<?xml version="1.0" encoding="UTF-8" standalone="no"?>
<!-- Generator: Adobe Illustrator 12.0.1, SVG Export Plug-In . SVG Version: 6.00 Build 51448)  -->

<svg
   version="1.1"
   id="SVGs"
   width="288"
   height="296.70801"
   viewBox="0 0 288 296.708"
   overflow="visible"
   enable-background="new 0 0 288 296.708"
   xml:space="preserve"
   sodipodi:docname="candle.svg"
   xmlns:inkscape="http://www.inkscape.org/namespaces/inkscape"
   xmlns:sodipodi="http://sodipodi.sourceforge.net/DTD/sodipodi-0.dtd"
   xmlns="http://www.w3.org/2000/svg"
   xmlns:svg="http://www.w3.org/2000/svg"><defs
   id="defs4902" /><sodipodi:namedview
   id="namedview4900"
   pagecolor="#ffffff"
   bordercolor="#000000"
   borderopacity="0.25"
   inkscape:showpageshadow="2"
   inkscape:pageopacity="0.0"
   inkscape:pagecheckerboard="0"
   inkscape:deskcolor="#d1d1d1"
   showgrid="false" />
<g
   style="overflow:visible;fill:#999999"
   id="g7472"
   transform="matrix(0.80940065,0,0,0.80940065,29.56279,218.68768)"><path
     fill="#6c0708"
     d="M 288,43.931 C 288,68.191 223.529,87.855 144,87.855 64.471,87.855 0,68.19 0,43.931 0,19.663 64.472,0 144,0 223.528,0 288,19.663 288,43.931 Z"
     id="path7464"
     style="fill:#999999" /></g><path
   id="path4897"
   d="m 135.88725,76.286598 v 27.585432 c -19.55905,1.71611 -43.942164,8.19523 -54.847497,14.29464 v 133.2297 c 0,10.95105 28.678067,19.82756 64.067347,19.82756 35.37377,0 64.06566,-8.87651 64.06566,-19.82756 v -133.2297 c -12.57912,-7.02989 -43.03227,-14.55934 -63.37004,-14.7275 V 76.286598 Z m -42.771076,14.79151 c -0.148685,0.1463 -0.300669,0.289359 -0.453076,0.431181 -0.07551,0.166903 -0.15061,0.334433 -0.225697,0.503604 0.286827,-0.08365 0.58341,-0.145748 0.862361,-0.245907 -0.06622,-0.215563 -0.1288,-0.440415 -0.183588,-0.688878 z M 84.5532,91.876465 c -0.128886,0.04514 -0.256857,0.09287 -0.385705,0.138113 0.170071,0.04463 0.346826,0.114214 0.515396,0.153272 C 84.64,92.06906 84.59558,91.979367 84.5532,91.876465 Z m 236.04939,51.411515 v 0.007 h 0.007 v -0.007 z"
   style="display:inline;fill:#e1d49e;fill-opacity:1;stroke-width:0.862361" />
<g
   style="overflow:visible"
   id="g5029"
   transform="matrix(0.82587305,0,0,0.86236086,124.51668,40.573928)"><path
     id="path7926"
     style="fill:#f6ad55;fill-opacity:1;fill-rule:evenodd;stroke:#8e8888;stroke-width:0;stroke-linecap:round"
     d="m 32.027753,-40.404422 c 0.839625,2.944476 1.748293,20.151732 1.748885,23.281218 C 31.097734,5.7541898 5.4523914,7.5228881 4.8308375,23.315557 -0.2045351,45.643614 11.40773,61.44372 23.665128,61.444405 35.922525,61.443719 47.839684,38.457007 47.840208,13.416964 45.296906,-7.0407906 44.233299,-12.225613 32.027753,-40.404422 Z"
     sodipodi:nodetypes="cccccc" /></g><g
   style="overflow:visible"
   id="g6373"
   transform="matrix(0.86236086,0,0,0.86236086,-272.06795,-101.62786)"><path
     fill="#e1d49e"
     d="m 484.0666,234.37189 c -39.503,0 -76.06,13.091 -80.778,17.12 -2.299,1.963 -4.735,17.314 -4.719,33.297 0.017,16.821 2.748,34.343 11.21,37.698 2.635,1.045 5.135,1.513 7.476,1.513 12.32,0.003 20.231,-12.928 20.231,-22.66 0,-11.582 16.51,-21.651 33.609,-12.588 17.099,9.062 28.302,-3.022 38.916,-8.056 10.613,-5.035 25.942,4.028 31.248,13.09 5.307,9.064 12.394,9.064 17.106,9.064 6.873,0 9.438,-15.833 9.154,-30.083 -0.202,-10.191 -1.861,-19.573 -4.443,-21.777 -6.191,-5.288 -31.25,-16.618 -79.01,-16.618 z m 202.503,148.351 h -0.007 v 0.008 h 0.007 z"
     id="path6365"
     sodipodi:nodetypes="sccccscccsccsccccc"
     style="fill:#ede1ae;fill-opacity:1" /></g></svg>
