<svg xmlns="http://www.w3.org/2000/svg" xmlns:xlink="http://www.w3.org/1999/xlink" width="816.322" height="586.576"><defs><mask id="e" fill="#fff"><circle cx="120" cy="120" r="120"/></mask><mask id="f" fill="#fff"><path d="M12 160c0 66.274 53.726 120 120 120s120-53.726 120-120h12V0H0v160z"/></mask><mask id="g" fill="#fff"><path d="M124 144.611V163h4c39.765 0 72 32.235 72 72v9H0v-9c0-39.765 32.235-72 72-72h4v-18.389c-17.237-8.189-29.628-24.924-31.695-44.73C38.48 99.058 34 94.052 34 88V74c0-5.946 4.325-10.882 10-11.834V56c0-30.928 25.072-56 56-56s56 25.072 56 56v6.166c5.675.952 10 5.888 10 11.834v14c0 6.052-4.48 11.058-10.305 11.881-2.067 19.806-14.458 36.541-31.695 44.73z"/></mask><mask id="h" fill="#fff"><use xlink:href="#a"/></mask><mask id="i" fill="#fff"><use xlink:href="#b"/></mask><mask id="j" fill="#fff"><use xlink:href="#c"/></mask><mask id="k" fill="#fff"><use xlink:href="#d"/></mask><path id="a" d="M94 29.688V74h76V29.688a71.525 71.525 0 0 1 26 8.944V110H68V38.632a71.525 71.525 0 0 1 26-8.944z"/><path id="b" d="M35.118 15.128C36.176 24.62 44.226 32 54 32c9.804 0 17.874-7.426 18.892-16.96.082-.767-.775-2.04-1.85-2.04H37.088c-1.08 0-2.075 1.178-1.97 2.128z"/><path id="c" d="M0 0h264v280H0Z"/><path id="d" d="M153.503 98.874C157.9 100.654 161 104.965 161 110v13c0 5.288-3.42 9.776-8.168 11.375a55.713 55.713 0 0 1-11.076 29.29c.209.807.41 1.625.556 2.503.55 3.327-.12 6.093 1.645 9.093.457.78 1.183 1.247 1.522 2.144.533 1.415-.232 4.594 1.95 4.595 3.106 0 1.374-5.966.596-7.384-1.525-2.772-2.462-3.45-2.383-7.044 1.745 1.16 7.53 3.376 9.448 2.316 4.432-2.448-6.662-4.936-7.438-5.453 1.704-1.666 3.656-2.55 5.197-4.746 1.26-1.793 2.406-4.397 4.55-4.501 1.186-.058 4.657 2.884 5.71.866.964-1.85-1.115-2.122-1.928-2.777-1.502-1.21-1.84-.006-1.474-2.134 1.085 1.165 2.789.429 3.244-1.015.49-1.559-1.127-2.024-1.097-3.014-.012.387.834-5.115.7-4.938.86-1.135 3.908-.784 5.413-.62 2.296.248 2.164.317 3.255 2.436.882 1.715 3.198 5.178 3.707.641.121-1.085-.869-3.404-1.45-4.338-.627-1.007-2.517-1.643-2.912-2.427-.944-1.87 2.165-6.034 1.639-8.854 1.093.418 3.857 6.927 5.198 1.599.707-2.8-6.505-8.945-3.514-9.894 2.289-.726 4.612 2.225 5.25 4.044.473 1.348.26 4.238 1.068 5.353 3.036 4.203 3.41-2.74 3.157-4.572-.559-4.026-1.984-6.988-5.623-8.51 1.295-1.607-.345-2.887-1.275-3.893 1.528-1.657 11.437.104 9.208-4.327-.538-1.072-2.481-1.262-3.467-1.655-2.49-.992-4.985-3.01-6.257-5.562 1.841-.46 7.28.798 6.565-2.996-.563-2.982-5.403-2.067-7.278-1.61 1.692-1.016 4.973-.174 5.434-2.941.531-3.183-3.288-3.076-5.08-2.402-.422-3.358 5.53-5.83 7.213-8.4.568-.867 1.47-1.164.746-2.633-1.306-2.643-4.68 1.086-5.792 2.09.876-1.628 3.32-8.403 2.95-10.122-.546-2.526-2.353-2.615-3.79-.568-.93 1.33-1.19 4.703-1.68 6.427-2.04-1.537-2.143.246-2.248-2.191-.068-1.58 2.002-4.701 2.532-6.248.456-1.329 1.668-3.76.943-5.046-1.776-3.143-3.473 1.172-3.94 2.652-.789-3.411 2.214-6.057 3.103-9.431.541-2.048 1.976-7.578-.51-8.561-3.394-1.341-2.2 4.956-2.678 7-.365 1.559-.922 4.077-2.139 4.845-.176.111-2.82.343-2.948.193-1.734-2.021 3.038-6.447 3.284-8.351.223-1.73-.44-2.825-2.061-2.929-.81-.051-2.12 1.2-2.495 1.119-1.48-.322.447-7.089.587-8.967.15-2.003-.094-7.172-3.483-4.785.227-2.697.364-5.236.734-7.891.195-1.4 1.398-2.645-.374-3.767-2.156-1.365-3.35 1.492-3.842 3.168-.846 2.885.9 7.375-3.158 7.466-4.665.106-1.444-4.73-1.215-7.868.128-1.74-1.012-6.421-3.262-3.263-.896 1.259-.587 5.694-1.084 7.183-1.106-.493.733-4.515-.23-5.564-2.06-2.247-3.788 1.026-5.099 1.692-.086-1.445-.187-2.891-.248-4.338-.093-2.2 1.255-6.83-.113-8.347-2.337-2.59-3.823.431-4.506 2.523-.613 1.884-.697 3.744-3.233 4 .208-2.717-2.258-8.436-1.035-10.727.553-1.035 1.679-.301 2.179-1.46.821-1.902-.524-2.71-1.986-2.771-6.792-.286-1.562 9.134-3.969 11.491-1.099-1.04.072-2.113-1.065-3.596-1.223-1.595-3.173-1.46-4.918-.738-.056-1.613 2.364-12.92-3.08-7.817-1.352 1.271-.974 3.393-1.693 4.886-.696 1.445-2.39 3.598-3.341 4.771-.51-2.067.272-4.63.82-6.666.38-1.415 2.931-5.805 2.387-7.244-1.58-4.167-6.323 2.72-7.572 3.832-1.582 1.41-7.88 6.045-9.901 4.64-.701-.487-.07-2.29-1.027-3.128-.47-.41-2.477-.6-3.05-.548.358-1.494-.346-3.427-2.055-2.91-2.149.65-1.219 3.838-2.58 5.002-2.53 2.164-5.535-2.112-8.245-1.992.414-1.755 3.485-8.062-1.399-6.144-1.246.49-2.13 3.351-2.44 4.54-.792 3.036-.222 3.593-3.509 4.45.257-1.76-.2-3.948.649-5.521.696-1.289 4.305-4.645.462-5.063-4.74-.516-4.274 7.672-4.855 10.44-4.206-2.549-6.974 1.098-9.48 4.252.447-1.419 1.553-15.557-2.965-11.237-1.292 1.237.138 3.066.05 4.478-.078 1.28-.5 2.422-.995 3.618-.796 1.921-1.72 3.887-2.974 5.524-1.573 2.059-1.015 2.22-2.82.823-2.425-1.873-3.577-6.624-3.457-9.525.09-2.16 1.196-6.548-2.384-5.531-3.507.996-1.649 7.974-1.296 10.453.381 2.687.635 5.436.183 8.173-2.984-3.05-3.42 3.302-4.017 4.385-.98 1.777-2.868 2.647-4.335 3.86-.8-2.794 2.405-5.157 1.77-7.38-1.194-4.165-4.571 1.716-5.313 2.87-.619.963-2.635 6.442-3.365 6.933-1.023.69-7.605-2.527-8.27-3.14-1.223-1.125-.778-4.272-2.316-4.99-4.72-2.197-1.932 5.735-1.005 7.375 2.419 4.284 3.516 9.456 2.949 14.504-.858-.302-1.915-1.312-2.468-2.077-1.076-1.49-.685-3.865-1.808-4.987-3.288-3.28-3.673 2.878-3.406 4.791.5 3.588 2.291 4.75 3.778 7.734 1.368 2.75-.445 6.069-.828 9.125-3.429-3.3-18.195-.543-14.396 4.502 1.978 2.633 4.318-2.377 6.598-2.25 4.083.225 6.235 5.295 5.967 8.846-.497-1.898-2.422-3.761-3.746-1.444-.897 1.573.635 4.26 1.374 5.823-.906-.444-5.372-2.52-6.246-2.161-3.44 1.414 1.3 4.151 2.537 4.698 4.224 1.868 6.887 3.92 8.2 8.992-2.367-.757-1.955-1.878-3.552-3.043-1.466-1.07-1.74-.518-3.09-.868-2.362-.611-5.441-1.427-8.11-.318-1.97.819-5.287 3.31-5.906 5.65-.757 2.874.844 3.606 2.904 2.143 2.45-1.739 2.897-5.105 6.583-4.96 1.769.068 3.52.995 4.64 2.325.835.993 1.323 2.43 2.12 3.495.703.94 2.564 2.259 2.957 3.254 1.418 3.595-1.276 6.795-3.083 9.314-.419-.554-3.477-1.758-4.11-1.878-2.94-.561-4.037.798-2.199 3.512.58.856 1.798 1.216 2.436 1.994.711.87 1.112 2.2 1.818 3.144 1.393 1.863 3.115 2.822 4.778 4.322-.613.41-.546-.624-1.102-.41-.404.156-1.107-.155-1.617.014-.828.275-.718 1.717-1.248 1.929-3.299 1.314-6.627-3.615-9.586-3.775-1.614-.088-2.975.994-2.2 3.022.538 1.412 2.87 2.178 4.036 2.767 3.246 1.644 6.478 2.868 9.948 1.607 2.797 2.438 6.159 3.64 9.674 3.675-2.011.998-4 2.235-4.702 4.721-1.189-1.23-4.108-6.952-5.633-2.462-1.045 3.087 3.723 6.871 5.92 8.262-2.555.755-4.677.907-7.277.607-1.357-.156-4.337-1.974-3.238 1.748 1.182 4.016 8.24 2.21 10.48 1.516.083-1.198-10.77 12.108-3.158 9.489 2.176-.748 2.385-5 5.418-5.373 3.503-.43 3.855 3.077 5.882 5.646 1.01 1.282 5.67 4.165 5.449 5.265-.191.952-2.75 1.496-3.293 2.828-.633 1.55-.347 2.746.532 4.078 1.538 2.333 4.36 2.691 6.592 3.604 3.164 1.295 4.31 2.867 5.73 6.217-2.502.12-9.62 7.36-5.258 8.648 1.625.48 1.372-.966 2.049-1.765.273-.516.547-1.03.821-1.545.458-1.198.965-1.271 1.52-.22.123-.031 1.61.388 1.947.409 1.708.105 2.85-1.192 4.266-1.893 1.023-.506 2.024-.418 2.795-1.586-.089.135.554-2.51.565-2.536.276-.637.985-.547 1.31-1.234-8.749-9.085-14.457-21.119-15.489-34.464C36.42 132.776 33 128.288 33 123v-13c0-5.035 3.1-9.345 7.497-11.126.531.374 1.27 0 1.503-.842-.463-1.506 3.296-27.854 13-34.876 3.618-2.438 23.008-2.619 42.313-2.606 19.096.014 38.108.195 41.687 2.606 9.704 7.022 13.463 33.37 13 34.876.233.843.972 1.216 1.503.842z"/><filter id="l" width="1.008" height="1.073" x="-.004" y="-.012" filterUnits="objectBoundingBox"><feOffset dy="2" in="SourceAlpha" result="shadowOffsetOuter1"/><feColorMatrix in="shadowOffsetOuter1" result="shadowMatrixOuter1" values="0 0 0 0 0 0 0 0 0 0 0 0 0 0 0 0 0 0 0.2 0"/><feMerge><feMergeNode in="shadowMatrixOuter1"/><feMergeNode in="SourceGraphic"/></feMerge></filter></defs><g externalResourcesRequired="false" style="display:inline"><path d="M115 124.9c-56.668 102.504-96.861 269.787 9.581 503.32h179.251c179.27-393.319-57.396-598.68-88.188-623.19L212.77 5C200.26 14.956 153.774 54.765 115 124.9Z" style="fill:#ececec;fill-rule:evenodd;stroke:#000;stroke-width:10" transform="rotate(60 476.104 530.705)"/><g style="fill-rule:evenodd"><g style="stroke:#000"><g style="fill:red"><path d="M136.856 86.678 93.42 166.48l-1.012 4.042 241.43 1.008-4.04-17.172-50.508-81.822-64.652-67.68-17.171 13.133Z" style="display:inline;fill:#f6a13b;fill-opacity:1" transform="rotate(60 476.104 530.705)"/><g style="fill:#0d0d0d;fill-opacity:1;stroke-width:10"><path d="M69.175 470.54s-107.08-1.334-42.426 270.72c0 0 6.06-227.16 62.63-199.15M359.55 470.54s107.08-1.334 42.426 270.72c0 0-6.06-227.16-62.63-199.15" style="fill:#0d0d0d;fill-opacity:1" transform="rotate(60 476.104 530.705)"/></g></g><path d="m98.47 572.56 26.264 55.558 179.81-1.01 21.213-54.548H98.477Z" style="fill:#b3b3b3" transform="rotate(60 476.104 530.705)"/></g><g style="fill:#d20000"><path d="m384.34 497.81-20.203 50.508-12.122-10.102-14.142 6.06 19.193-75.76 34.345 17.173s59.599 41.416 13.132 247.49c27.274-213.14-21.213-235.37-20.203-235.37z" style="fill:#979797;fill-opacity:1" transform="rotate(60 476.104 530.705)"/><path d="M23.718 738.23S13.657 517.86 82.307 517.01c7.576-.094 7.071 24.244 7.071 24.244l-27.274 6.06-21.213 66.67-17.173 124.25z" style="display:inline;fill:#979797;fill-opacity:1" transform="rotate(60 476.104 530.705)"/></g><path d="M259.87 572.57c4.053 12.21 6.448 29.248 5.281 53.531.862.304 1.776.73 2.719 1.219l36.656-.219 17.094-43.938c-.69-3.754-1.486-7.105-2.25-10.594h-59.5z" style="fill:#999" transform="rotate(60 476.104 530.705)"/><g style="fill:#ccc"><path d="M411.083 288.514c-2.972-6.157-6.05-9.353-6.05-9.353l-69.892 34.506s16.33 18.672-6.613 45.17l29.813 51.637c68.527-61.926 61.281-104.278 52.745-121.963zM248.536 229.316l-33.3 42.32 12.267 25.25 45.364-35.429z"/></g><g style="fill:none;stroke:#000;stroke-width:10"><path d="M115 124.9c-56.668 102.504-96.861 269.787 9.581 503.32h179.251c179.27-393.319-57.396-598.68-88.188-623.19L212.77 5C200.26 14.956 153.774 54.765 115 124.9ZM93.419 168.5h237.39" style="display:inline" transform="rotate(60 476.104 530.705)"/><g style="display:inline"><path d="M67.469 836.19v.25c-12.146 13.24-20.5 40.802-20.5 72.688 0 16.769 2.323 44.319 6.281 57.25-1.417-20.126-.603-20.738-.625-25.344-.644-20.722 5.014-51.131 15.174-59.14 9.516 7.868 14.678 37.928 14.67 59.14-.18 6.804-.07 6.403-.562 25.344 3.958-12.932 6.28-40.482 6.28-57.25 0-31.883-8.355-59.446-20.5-72.688v-.25c-.038.042-.085.083-.124.125-.035-.038-.059-.087-.094-.125z" style="display:inline;fill:#dd7800;fill-opacity:1;stroke:#f6a13b;stroke-opacity:1" transform="matrix(.75688 1.15315 1.1913 -.73264 -1026.066 1016.4)"/><path d="M67.62 895.21v.137c-6.64 7.237-11.206 22.303-11.206 39.732 0 9.166 1.27 24.225 3.433 31.294-.774-11.001-.33-11.336-.341-13.853-.352-11.327 2.74-27.95 8.294-32.327 5.202 4.3 8.023 20.732 8.019 32.327-.099 3.72-.038 3.5-.308 13.853 2.164-7.069 3.434-22.128 3.434-31.294 0-17.428-4.567-32.495-11.206-39.732v-.137c-.021.023-.047.045-.068.068-.02-.02-.032-.047-.052-.068z" style="display:inline;fill:#ff0;fill-opacity:.97255" transform="matrix(.75688 1.15315 1.1913 -.73264 -1026.066 1016.4)"/></g></g></g><path d="M315.65 560.44s80.812-185.87 16.162-364.66c3.03 317.19-83.843 364.66-83.843 364.66h67.68z" style="fill:#ccc;fill-rule:evenodd" transform="rotate(60 476.104 530.705)"/><g style="fill-rule:evenodd"><path d="M306.56 153.35s-31.315-81.822-90.914-125.26c54.548 105.06 26.264 125.26 26.264 125.26z" style="fill:#dd7800;fill-opacity:1" transform="rotate(60 476.104 530.705)"/><path d="M359.55 470.54s107.08-1.334 42.426 270.72c0 0-6.06-227.16-62.63-199.15" style="fill:none;stroke:#000;stroke-width:10" transform="rotate(60 476.104 530.705)"/><g style="fill:#fff"><path d="M621.255 21.344s116.88-5.66 162.72 19.197c45.843 24.856-163.964-17.313-162.72-19.197zM366.05 132.275c-.06-3.618 115.043-92.66 216.988-95.586 35.752 13.846 45.12 55.358 35.522 58.67-83.145 28.69-252.154 58.436-252.512 36.916z"/></g></g></g><g style="stroke:#000;stroke-width:10;stroke-linecap:round;stroke-dasharray:none"><path d="M-109.458 447.408h215.685v150h-215.685z" style="fill:#7f7f7f;stroke-width:10.2324" transform="rotate(60 369.058 707.572)"/><g style="fill:none"><path d="m218.073 293.73-105.531 33.215M282.207 406.813l-80.665 74.285M111.676 327.445l88 152.42"/><g stroke-linejoin="null"><path d="m218.939 293.23.866-.5M218.707 296.828l60.134 106.155M199.252 301.132l65.134 114.815M185.396 309.132l66.634 117.413M171.271 312.668l72 124.707M156.147 314.472l75.634 133.002M144.755 318.74l78.134 137.332M132.362 321.275l82.634 145.127M123.202 325.41l84.5 146.358M117.14 328.91l85.866 146.724"/></g></g></g><g style="display:inline;stroke:#000"><g style="stroke-linecap:round"><path d="M277.85 321.3a63.64 63.64 0 1 1-127.28 0 63.64 63.64 0 1 1 127.28 0z" style="fill:none;stroke-width:8" transform="rotate(60 622.05 502.345) scale(1.43623)"/></g><g style="display:inline;stroke-width:10"><path d="M101.5 573.57h224.25" style="fill:none" transform="rotate(60 444.246 505.407)"/><path d="M205.12 468.52h18.183v272.74H205.12Z" style="fill:#fff;fill-opacity:1;stroke-linecap:round" transform="rotate(60 444.246 505.407)"/></g><g fill="none" fill-rule="evenodd" style="display:inline"><g mask="url(#f)" style="display:inline" transform="matrix(.37859 .64114 -.6635 .39239 562.77 61.16)"><path d="M124 144.611V163h4c39.765 0 72 32.235 72 72v9H0v-9c0-39.765 32.235-72 72-72h4v-18.389c-17.237-8.189-29.628-24.924-31.695-44.73C38.48 99.058 34 94.052 34 88V74c0-5.946 4.325-10.882 10-11.834V56c0-30.928 25.072-56 56-56s56 25.072 56 56v6.166c5.675.952 10 5.888 10 11.834v14c0 6.052-4.48 11.058-10.305 11.881-2.067 19.806-14.458 36.541-31.695 44.73z" style="fill:#d0c6ac" transform="translate(32 36)"/><g fill="#614335" mask="url(#g)" transform="translate(32 36)"><path d="M0 0h264v280H0Z"/></g><path fill="#000" fill-opacity=".1" d="M156 79v23c0 30.928-25.072 56-56 56s-56-25.072-56-56V79v15c0 30.928 25.072 56 56 56s56-25.072 56-56z" mask="url(#g)" transform="translate(32 36)"/><g transform="translate(0 170)"><use xlink:href="#a" fill="#b7c1db"/><g fill="#fff" mask="url(#h)"><path d="M0 0h264v110H0Z"/></g><circle cx="81" cy="83" r="5" fill="#f4f4f4"/><circle cx="183" cy="83" r="5" fill="#f4f4f4"/></g><g fill="#000"><g transform="translate(78 134)"><use xlink:href="#b" fill-opacity=".7"/><rect width="31" height="16" x="39" y="2" fill="#fff" mask="url(#i)" rx="5"/><g fill="#ff4f6d" mask="url(#i)"><g transform="translate(38 24)"><circle cx="11" cy="11" r="11"/><circle cx="21" cy="11" r="11"/></g></g></g><path fill-opacity=".16" d="M120 130c0 4.418 5.373 8 12 8s12-3.582 12-8"/><path fill-opacity=".6" d="M92.16 112.447c1.847-3.798 6.004-6.447 10.838-6.447 4.816 0 8.961 2.63 10.817 6.407.552 1.122-.233 2.04-1.024 1.36-2.451-2.107-5.932-3.423-9.793-3.423-3.74 0-7.124 1.235-9.56 3.228-.891.728-1.818-.014-1.278-1.125zm58 0c1.847-3.798 6.004-6.447 10.838-6.447 4.816 0 8.961 2.63 10.817 6.407.552 1.122-.233 2.04-1.024 1.36-2.451-2.107-5.932-3.423-9.793-3.423-3.74 0-7.124 1.235-9.56 3.228-.891.728-1.818-.014-1.278-1.125zM102.547 88.148c-5.807.269-15.195 4.488-14.953 10.344.008.192.29.276.427.129 2.755-2.96 22.316-5.95 29.205-4.365.63.145 1.11-.477.71-.927-3.422-3.848-10.186-5.426-15.389-5.18m59.906-.001c5.807.269 15.195 4.488 14.953 10.344-.008.192-.29.276-.427.129-2.755-2.96-22.316-5.95-29.205-4.365-.63.145-1.11-.477-.71-.927 3.422-3.848 10.186-5.426 15.389-5.18"/></g><g mask="url(#j)" style="display:inline"><g transform="translate(35)"><use xlink:href="#d" fill="#2e3257"/><g fill="#c93305" mask="url(#k)" style="display:inline"><path d="M0 0h264v280H0Z" style="display:inline;fill:#f6a13b;fill-opacity:1"/></g></g><g fill="#252c2f" fill-rule="nonzero" filter="url(#o)" style="filter:url(#l)" transform="translate(67 92)"><path d="M34 41h-2.758C17.315 41 9 33.336 9 20.5 9 10.127 10.817 0 32.53 0h2.94C57.183 0 59 10.127 59 20.5 59 32.569 48.721 41 34 41ZM32.385 6C13 6 13 12.841 13 21.502 13 28.572 16.116 37 30.97 37H34c12.365 0 21-6.373 21-15.498C55 12.84 55 6 35.615 6ZM96 41h-2.758C79.315 41 71 33.336 71 20.5 71 10.127 72.817 0 94.53 0h2.94C119.183 0 121 10.127 121 20.5 121 32.569 110.721 41 96 41ZM94.385 6C75 6 75 12.841 75 21.502 75 28.572 78.12 37 92.97 37H96c12.365 0 21-6.373 21-15.498C117 12.84 117 6 97.615 6Z"/><path d="M2.955 5.772C3.645 5.096 11.21 0 32.5 0c17.851 0 21.63 1.853 27.35 4.652l.419.207c.398.14 2.431.83 4.81.907a16.998 16.998 0 0 0 4.563-.869C76.17 1.722 82.562 0 97.5 0c21.29 0 28.854 5.096 29.545 5.772 1.634 0 2.955 1.29 2.955 2.885v2.886c0 1.596-1.32 2.886-2.955 2.886 0 0-6.901 0-6.901 2.886 0 2.885-1.962-4.176-1.962-5.772v-2.81c-3.603-1.38-10.054-3.947-20.682-3.947-11.842 0-17.739 2.1-22.798 4.185l.057.137-.003 1.986-2.217 5.35L69.8 15.36c-.244-.097-.772-.27-1.504-.451-2.04-.503-4.137-.656-5.992-.276-.68.14-1.312.35-1.891.633l-2.643 1.29-2.643-5.16.117-2.295.08-.195c-4.362-2.033-8.385-4.12-22.824-4.12-10.628 0-17.078 2.565-20.682 3.944v2.812c0 1.596-2.954 8.657-2.954 5.772 0-2.886-5.91-2.886-5.91-2.886-1.63 0-2.954-1.29-2.954-2.886V8.657c0-1.595 1.324-2.885 2.955-2.885Z"/></g></g></g></g></g></svg>