<?xml version="1.0" encoding="UTF-8" standalone="no"?>
<svg
   width="816.322"
   height="586.576"
   version="1.1"
   id="svg45188"
   sodipodi:docname="rocket-30-degrees.svg"
   inkscape:export-filename="rocket-30-degrees-filled.svg"
   inkscape:export-xdpi="96"
   inkscape:export-ydpi="96"
   inkscape:version="1.2.2 (b0a8486541, 2022-12-01)"
   xmlns:inkscape="http://www.inkscape.org/namespaces/inkscape"
   xmlns:sodipodi="http://sodipodi.sourceforge.net/DTD/sodipodi-0.dtd"
   xmlns:xlink="http://www.w3.org/1999/xlink"
   xmlns="http://www.w3.org/2000/svg"
   xmlns:svg="http://www.w3.org/2000/svg">
  <sodipodi:namedview
     id="namedview45190"
     pagecolor="#ffffff"
     bordercolor="#000000"
     borderopacity="0.25"
     inkscape:showpageshadow="2"
     inkscape:pageopacity="0.0"
     inkscape:pagecheckerboard="0"
     inkscape:deskcolor="#d1d1d1"
     showgrid="false"
     inkscape:zoom="1"
     inkscape:cx="439.5"
     inkscape:cy="337.5"
     inkscape:window-width="1920"
     inkscape:window-height="1011"
     inkscape:window-x="0"
     inkscape:window-y="0"
     inkscape:window-maximized="1"
     inkscape:current-layer="g45114" />
  <defs
     id="defs45050">
    <mask
       id="e"
       fill="#fff">
      <circle
         cx="120"
         cy="120"
         r="120"
         id="circle45014" />
    </mask>
    <mask
       id="f"
       fill="#fff">
      <path
         d="M12 160c0 66.274 53.726 120 120 120s120-53.726 120-120h12V0H0v160z"
         id="path45017" />
    </mask>
    <mask
       id="g"
       fill="#fff">
      <path
         d="M124 144.611V163h4c39.765 0 72 32.235 72 72v9H0v-9c0-39.765 32.235-72 72-72h4v-18.389c-17.237-8.189-29.628-24.924-31.695-44.73C38.48 99.058 34 94.052 34 88V74c0-5.946 4.325-10.882 10-11.834V56c0-30.928 25.072-56 56-56s56 25.072 56 56v6.166c5.675.952 10 5.888 10 11.834v14c0 6.052-4.48 11.058-10.305 11.881-2.067 19.806-14.458 36.541-31.695 44.73z"
         id="path45020" />
    </mask>
    <mask
       id="h"
       fill="#fff">
      <use
         xlink:href="#a"
         id="use45023" />
    </mask>
    <mask
       id="i"
       fill="#fff">
      <use
         xlink:href="#b"
         id="use45026" />
    </mask>
    <mask
       id="j"
       fill="#fff">
      <use
         xlink:href="#c"
         id="use45029" />
    </mask>
    <mask
       id="k"
       fill="#fff">
      <use
         xlink:href="#d"
         id="use45032" />
    </mask>
    <path
       id="a"
       d="M94 29.688V74h76V29.688a71.525 71.525 0 0 1 26 8.944V110H68V38.632a71.525 71.525 0 0 1 26-8.944z" />
    <path
       id="b"
       d="M35.118 15.128C36.176 24.62 44.226 32 54 32c9.804 0 17.874-7.426 18.892-16.96.082-.767-.775-2.04-1.85-2.04H37.088c-1.08 0-2.075 1.178-1.97 2.128z" />
    <path
       id="c"
       d="M0 0h264v280H0Z" />
    <path
       id="d"
       d="M153.503 98.874C157.9 100.654 161 104.965 161 110v13c0 5.288-3.42 9.776-8.168 11.375a55.713 55.713 0 0 1-11.076 29.29c.209.807.41 1.625.556 2.503.55 3.327-.12 6.093 1.645 9.093.457.78 1.183 1.247 1.522 2.144.533 1.415-.232 4.594 1.95 4.595 3.106 0 1.374-5.966.596-7.384-1.525-2.772-2.462-3.45-2.383-7.044 1.745 1.16 7.53 3.376 9.448 2.316 4.432-2.448-6.662-4.936-7.438-5.453 1.704-1.666 3.656-2.55 5.197-4.746 1.26-1.793 2.406-4.397 4.55-4.501 1.186-.058 4.657 2.884 5.71.866.964-1.85-1.115-2.122-1.928-2.777-1.502-1.21-1.84-.006-1.474-2.134 1.085 1.165 2.789.429 3.244-1.015.49-1.559-1.127-2.024-1.097-3.014-.012.387.834-5.115.7-4.938.86-1.135 3.908-.784 5.413-.62 2.296.248 2.164.317 3.255 2.436.882 1.715 3.198 5.178 3.707.641.121-1.085-.869-3.404-1.45-4.338-.627-1.007-2.517-1.643-2.912-2.427-.944-1.87 2.165-6.034 1.639-8.854 1.093.418 3.857 6.927 5.198 1.599.707-2.8-6.505-8.945-3.514-9.894 2.289-.726 4.612 2.225 5.25 4.044.473 1.348.26 4.238 1.068 5.353 3.036 4.203 3.41-2.74 3.157-4.572-.559-4.026-1.984-6.988-5.623-8.51 1.295-1.607-.345-2.887-1.275-3.893 1.528-1.657 11.437.104 9.208-4.327-.538-1.072-2.481-1.262-3.467-1.655-2.49-.992-4.985-3.01-6.257-5.562 1.841-.46 7.28.798 6.565-2.996-.563-2.982-5.403-2.067-7.278-1.61 1.692-1.016 4.973-.174 5.434-2.941.531-3.183-3.288-3.076-5.08-2.402-.422-3.358 5.53-5.83 7.213-8.4.568-.867 1.47-1.164.746-2.633-1.306-2.643-4.68 1.086-5.792 2.09.876-1.628 3.32-8.403 2.95-10.122-.546-2.526-2.353-2.615-3.79-.568-.93 1.33-1.19 4.703-1.68 6.427-2.04-1.537-2.143.246-2.248-2.191-.068-1.58 2.002-4.701 2.532-6.248.456-1.329 1.668-3.76.943-5.046-1.776-3.143-3.473 1.172-3.94 2.652-.789-3.411 2.214-6.057 3.103-9.431.541-2.048 1.976-7.578-.51-8.561-3.394-1.341-2.2 4.956-2.678 7-.365 1.559-.922 4.077-2.139 4.845-.176.111-2.82.343-2.948.193-1.734-2.021 3.038-6.447 3.284-8.351.223-1.73-.44-2.825-2.061-2.929-.81-.051-2.12 1.2-2.495 1.119-1.48-.322.447-7.089.587-8.967.15-2.003-.094-7.172-3.483-4.785.227-2.697.364-5.236.734-7.891.195-1.4 1.398-2.645-.374-3.767-2.156-1.365-3.35 1.492-3.842 3.168-.846 2.885.9 7.375-3.158 7.466-4.665.106-1.444-4.73-1.215-7.868.128-1.74-1.012-6.421-3.262-3.263-.896 1.259-.587 5.694-1.084 7.183-1.106-.493.733-4.515-.23-5.564-2.06-2.247-3.788 1.026-5.099 1.692-.086-1.445-.187-2.891-.248-4.338-.093-2.2 1.255-6.83-.113-8.347-2.337-2.59-3.823.431-4.506 2.523-.613 1.884-.697 3.744-3.233 4 .208-2.717-2.258-8.436-1.035-10.727.553-1.035 1.679-.301 2.179-1.46.821-1.902-.524-2.71-1.986-2.771-6.792-.286-1.562 9.134-3.969 11.491-1.099-1.04.072-2.113-1.065-3.596-1.223-1.595-3.173-1.46-4.918-.738-.056-1.613 2.364-12.92-3.08-7.817-1.352 1.271-.974 3.393-1.693 4.886-.696 1.445-2.39 3.598-3.341 4.771-.51-2.067.272-4.63.82-6.666.38-1.415 2.931-5.805 2.387-7.244-1.58-4.167-6.323 2.72-7.572 3.832-1.582 1.41-7.88 6.045-9.901 4.64-.701-.487-.07-2.29-1.027-3.128-.47-.41-2.477-.6-3.05-.548.358-1.494-.346-3.427-2.055-2.91-2.149.65-1.219 3.838-2.58 5.002-2.53 2.164-5.535-2.112-8.245-1.992.414-1.755 3.485-8.062-1.399-6.144-1.246.49-2.13 3.351-2.44 4.54-.792 3.036-.222 3.593-3.509 4.45.257-1.76-.2-3.948.649-5.521.696-1.289 4.305-4.645.462-5.063-4.74-.516-4.274 7.672-4.855 10.44-4.206-2.549-6.974 1.098-9.48 4.252.447-1.419 1.553-15.557-2.965-11.237-1.292 1.237.138 3.066.05 4.478-.078 1.28-.5 2.422-.995 3.618-.796 1.921-1.72 3.887-2.974 5.524-1.573 2.059-1.015 2.22-2.82.823-2.425-1.873-3.577-6.624-3.457-9.525.09-2.16 1.196-6.548-2.384-5.531-3.507.996-1.649 7.974-1.296 10.453.381 2.687.635 5.436.183 8.173-2.984-3.05-3.42 3.302-4.017 4.385-.98 1.777-2.868 2.647-4.335 3.86-.8-2.794 2.405-5.157 1.77-7.38-1.194-4.165-4.571 1.716-5.313 2.87-.619.963-2.635 6.442-3.365 6.933-1.023.69-7.605-2.527-8.27-3.14-1.223-1.125-.778-4.272-2.316-4.99-4.72-2.197-1.932 5.735-1.005 7.375 2.419 4.284 3.516 9.456 2.949 14.504-.858-.302-1.915-1.312-2.468-2.077-1.076-1.49-.685-3.865-1.808-4.987-3.288-3.28-3.673 2.878-3.406 4.791.5 3.588 2.291 4.75 3.778 7.734 1.368 2.75-.445 6.069-.828 9.125-3.429-3.3-18.195-.543-14.396 4.502 1.978 2.633 4.318-2.377 6.598-2.25 4.083.225 6.235 5.295 5.967 8.846-.497-1.898-2.422-3.761-3.746-1.444-.897 1.573.635 4.26 1.374 5.823-.906-.444-5.372-2.52-6.246-2.161-3.44 1.414 1.3 4.151 2.537 4.698 4.224 1.868 6.887 3.92 8.2 8.992-2.367-.757-1.955-1.878-3.552-3.043-1.466-1.07-1.74-.518-3.09-.868-2.362-.611-5.441-1.427-8.11-.318-1.97.819-5.287 3.31-5.906 5.65-.757 2.874.844 3.606 2.904 2.143 2.45-1.739 2.897-5.105 6.583-4.96 1.769.068 3.52.995 4.64 2.325.835.993 1.323 2.43 2.12 3.495.703.94 2.564 2.259 2.957 3.254 1.418 3.595-1.276 6.795-3.083 9.314-.419-.554-3.477-1.758-4.11-1.878-2.94-.561-4.037.798-2.199 3.512.58.856 1.798 1.216 2.436 1.994.711.87 1.112 2.2 1.818 3.144 1.393 1.863 3.115 2.822 4.778 4.322-.613.41-.546-.624-1.102-.41-.404.156-1.107-.155-1.617.014-.828.275-.718 1.717-1.248 1.929-3.299 1.314-6.627-3.615-9.586-3.775-1.614-.088-2.975.994-2.2 3.022.538 1.412 2.87 2.178 4.036 2.767 3.246 1.644 6.478 2.868 9.948 1.607 2.797 2.438 6.159 3.64 9.674 3.675-2.011.998-4 2.235-4.702 4.721-1.189-1.23-4.108-6.952-5.633-2.462-1.045 3.087 3.723 6.871 5.92 8.262-2.555.755-4.677.907-7.277.607-1.357-.156-4.337-1.974-3.238 1.748 1.182 4.016 8.24 2.21 10.48 1.516.083-1.198-10.77 12.108-3.158 9.489 2.176-.748 2.385-5 5.418-5.373 3.503-.43 3.855 3.077 5.882 5.646 1.01 1.282 5.67 4.165 5.449 5.265-.191.952-2.75 1.496-3.293 2.828-.633 1.55-.347 2.746.532 4.078 1.538 2.333 4.36 2.691 6.592 3.604 3.164 1.295 4.31 2.867 5.73 6.217-2.502.12-9.62 7.36-5.258 8.648 1.625.48 1.372-.966 2.049-1.765.273-.516.547-1.03.821-1.545.458-1.198.965-1.271 1.52-.22.123-.031 1.61.388 1.947.409 1.708.105 2.85-1.192 4.266-1.893 1.023-.506 2.024-.418 2.795-1.586-.089.135.554-2.51.565-2.536.276-.637.985-.547 1.31-1.234-8.749-9.085-14.457-21.119-15.489-34.464C36.42 132.776 33 128.288 33 123v-13c0-5.035 3.1-9.345 7.497-11.126.531.374 1.27 0 1.503-.842-.463-1.506 3.296-27.854 13-34.876 3.618-2.438 23.008-2.619 42.313-2.606 19.096.014 38.108.195 41.687 2.606 9.704 7.022 13.463 33.37 13 34.876.233.843.972 1.216 1.503.842z" />
    <filter
       id="l"
       width="1.0076923"
       height="1.0731707"
       x="-0.0038461538"
       y="-0.012195122"
       filterUnits="objectBoundingBox">
      <feOffset
         dy="2"
         in="SourceAlpha"
         result="shadowOffsetOuter1"
         id="feOffset45039" />
      <feColorMatrix
         in="shadowOffsetOuter1"
         result="shadowMatrixOuter1"
         values="0 0 0 0 0 0 0 0 0 0 0 0 0 0 0 0 0 0 0.2 0"
         id="feColorMatrix45041" />
      <feMerge
         id="feMerge45047">
        <feMergeNode
           in="shadowMatrixOuter1"
           id="feMergeNode45043" />
        <feMergeNode
           in="SourceGraphic"
           id="feMergeNode45045" />
      </feMerge>
    </filter>
  </defs>
  <g
     externalResourcesRequired="false"
     style="display:inline"
     id="g45102"
     transform="translate(12,6)">
    <path
       d="M 115,124.9 C 58.332,227.404 18.139,394.687 124.581,628.22 H 303.832 C 390.58765,437.87781 379.93257,291.55472 342.34063,188.44523 302.2534,78.491489 231.53457,17.678669 215.644,5.03 L 212.77,5 C 200.26,14.956 153.774,54.765 115,124.9 Z"
       style="fill:#ececec;fill-rule:evenodd;stroke:none;stroke-width:10"
       transform="rotate(60,476.104,530.705)"
       id="path45052"
       sodipodi:nodetypes="cccsccc" />
    <g
       style="fill-rule:evenodd"
       id="g45088"
       transform="translate(-0.12346475,-2.6763827)">
      <g
         style="stroke:#000000"
         id="g45064">
        <g
           style="fill:#ff0000"
           id="g45060">
          <g
             style="fill:#9b9b9b;fill-opacity:1;stroke:none;stroke-width:10"
             id="g45058">
            <path
               d="m 69.175,470.54 c 0,0 -107.08,-1.334 -42.426,270.72 0,0 6.06,-227.16 62.63,-199.15 M 359.55,470.54 c 0,0 107.08,-1.334 42.426,270.72 0,0 -6.06,-227.16 -62.63,-199.15"
               style="fill:#9b9b9b;fill-opacity:1;stroke:none"
               transform="rotate(60,476.104,530.705)"
               id="path45056" />
          </g>
        </g>
        <path
           d="m 98.47,572.56 26.264,55.558 179.81,-1.01 21.213,-54.548 H 98.477 Z"
           style="fill:#b3b3b3"
           id="path45062"
           transform="rotate(60,476.104,530.705)" />
      </g>
      <g
         style="fill:#d20000"
         id="g45070" />
      <path
         d="m 259.87,572.57 c 4.053,12.21 6.448,29.248 5.281,53.531 0.862,0.304 1.776,0.73 2.719,1.219 l 36.656,-0.219 17.094,-43.938 c -0.69,-3.754 -1.486,-7.105 -2.25,-10.594 h -59.5 z"
         style="fill:#999999"
         id="path45072"
         transform="rotate(60,476.104,530.705)" />
      <g
         style="fill:#cccccc"
         id="g45076">
        <path
           d="m 411.083,288.514 c -2.972,-6.157 -6.05,-9.353 -6.05,-9.353 l -69.892,34.506 c 0,0 16.33,18.672 -6.613,45.17 l 29.813,51.637 c 68.527,-61.926 61.281,-104.278 52.745,-121.963 z m -162.547,-59.198 -33.3,42.32 12.267,25.25 45.364,-35.429 z"
           id="path45074" />
      </g>
      <g
         style="fill:none;stroke:#000000;stroke-width:10"
         id="g45086">
        <path
           d="M 115,124.9 C 58.332,227.404 18.139,394.687 124.581,628.22 H 303.832 C 483.102,234.901 246.436,29.54 215.644,5.03 L 212.77,5 C 200.26,14.956 153.774,54.765 115,124.9 Z m -21.581,43.6 h 237.39"
           style="display:inline;stroke:none;stroke-opacity:1"
           transform="rotate(60,476.104,530.705)"
           id="path45078" />
        <g
           style="display:inline"
           id="g45084"
           transform="translate(0,-4)">
          <path
             d="m 23.153084,481.57564 0.297825,-0.18316 c 6.579747,-23.70632 33.091382,-53.53276 71.077174,-76.89372 19.976907,-12.28564 54.555457,-29.7911 72.955887,-34.7007 -25.0486,13.1111 -25.16158,14.49814 -30.66536,17.84731 -25.17355,14.43914 -57.11736,43.24251 -58.968581,60.82623 16.575619,5.20896 56.293111,-10.86164 81.556911,-26.41162 7.96937,-5.19245 7.57491,-4.77182 29.76694,-19.2161 -12.41016,14.03867 -43.473,36.90051 -63.44872,49.18542 -37.982215,23.35876 -77.141749,33.91795 -102.109251,29.61456 l -0.297825,0.18316 c 0.02127,-0.0746 0.03454,-0.15882 0.05506,-0.23457 -0.07176,-0.0125 -0.148299,-0.004 -0.220059,-0.0168 z"
             style="display:inline;fill:#dd7800;fill-opacity:1;stroke:#f6a13b;stroke-width:13.8862;stroke-opacity:1"
             id="path45080" />
          <path
             d="m 67.62,895.21 v 0.137 c -6.64,7.237 -11.206,22.303 -11.206,39.732 0,9.166 1.27,24.225 3.433,31.294 -0.774,-11.001 -0.33,-11.336 -0.341,-13.853 -0.352,-11.327 2.74,-27.95 8.294,-32.327 5.202,4.3 8.023,20.732 8.019,32.327 -0.099,3.72 -0.038,3.5 -0.308,13.853 2.164,-7.069 3.434,-22.128 3.434,-31.294 0,-17.428 -4.567,-32.495 -11.206,-39.732 v -0.137 c -0.021,0.023 -0.047,0.045 -0.068,0.068 -0.02,-0.02 -0.032,-0.047 -0.052,-0.068 z"
             style="display:inline;fill:#ffff00;fill-opacity:0.97255"
             transform="matrix(0.75688,1.15315,1.1913,-0.73264,-1026.066,1016.4)"
             id="path45082" />
        </g>
      </g>
    </g>
    <path
       d="m 315.65,560.44 c 0,0 80.812,-185.87 16.162,-364.66 3.03,317.19 -83.843,364.66 -83.843,364.66 h 67.68 z"
       style="fill:#cccccc;fill-rule:evenodd"
       transform="rotate(60,476.104,530.705)"
       id="path45090" />
    <g
       style="fill-rule:evenodd"
       id="g45100">
      <g
         style="fill:#ffffff"
         id="g45098">
        <path
           d="m 621.255,21.344 c 0,0 116.88,-5.66 162.72,19.197 C 829.818,65.397 620.011,23.228 621.255,21.344 Z M 366.05,132.275 c -0.06,-3.618 115.043,-92.66 216.988,-95.586 35.752,13.846 45.12,55.358 35.522,58.67 -83.145,28.69 -252.154,58.436 -252.512,36.916 z"
           id="path45096" />
      </g>
    </g>
  </g>
  <g
     style="stroke:#000;stroke-width:10;stroke-linecap:round;stroke-dasharray:none"
     id="g45114">
    <path
       d="M-109.458 447.408h215.685v150h-215.685z"
       style="fill:#545454;stroke-width:10.2324;stroke:none;fill-opacity:1"
       transform="rotate(60 369.058 707.572)"
       id="path45104" />
    <g
       style="fill:none"
       id="g45112"
       transform="translate(10,-6)">
      <path
         d="m 218.073,293.73 -105.531,33.215 m 169.665,79.868 -80.665,74.285 m -89.866,-153.653 88,152.42"
         id="path45106"
         style="display:none" />
      <g
         stroke-linejoin="null"
         id="g45110">
        <path
           d="m 218.939,293.23 0.866,-0.5 m -1.098,4.098 60.134,106.155 m -79.589,-101.851 65.134,114.815 m -78.99,-106.815 66.634,117.413 m -80.759,-113.877 72,124.707 M 156.147,314.472 231.781,447.474 M 144.755,318.74 222.889,456.072 m -90.527,-134.797 82.634,145.127 m -91.794,-140.992 84.5,146.358 M 117.14,328.91 203.006,475.634"
           id="path45108"
           style="fill:none;fill-opacity:1;stroke:#515151;stroke-opacity:1" />
      </g>
    </g>
    <path
       style="fill:#f6a13b;fill-opacity:1;fill-rule:evenodd;stroke:none;stroke-width:3;stroke-linecap:round;stroke-opacity:1"
       d="M 668.5842,113.87416 C 634.63132,61.829942 607.22256,18.896696 607.67584,18.466944 c 1.28822,-1.221334 29.6121,-2.967198 48.09457,-2.964516 36.88824,0.0054 72.86083,4.532231 108.72959,13.682793 17.17106,4.380548 33.61493,9.953272 35.12584,11.903923 1.32383,1.709136 -0.0733,10.186122 -4.76478,28.910856 -8.59167,34.29095 -24.24681,73.14694 -42.30465,105 -7.96098,14.04273 -20.45235,33.5 -21.50667,33.5 -0.40317,0 -28.51267,-42.58163 -62.46554,-94.62584 z M 790,47.513154 c 2.49908,-1.593114 0.005,-4.176703 -7.87589,-8.160119 C 757.42063,26.867365 711.67923,20.5 646.68907,20.5 c -17.58992,0 -25.75956,0.329511 -25.0776,1.011468 2.83495,2.834956 91.5174,19.633567 131.38853,24.888182 15.73837,2.07416 34.60249,2.64187 37,1.113504 z"
       id="path45930" />
    <path
       d="m 729.74631,190.78018 c 0,0 46.96879,-59.61002 52.83079,-123.224627 -53.94426,87.206687 -81.52422,75.131557 -81.52422,75.131557 z"
       style="display:inline;fill:#dd7800;fill-opacity:1;fill-rule:evenodd;stroke:none;stroke-width:8.66238"
       id="path46293" />
  </g>
  <g
     style="display:inline;stroke:#000"
     id="g45186">
    <g
       style="stroke-linecap:round"
       id="g45118">
      <path
         d="M277.85 321.3a63.64 63.64 0 1 1-127.28 0 63.64 63.64 0 1 1 127.28 0z"
         style="fill:none;stroke-width:8"
         transform="rotate(60 622.05 502.345) scale(1.43623)"
         id="path45116" />
    </g>
    <g
       style="display:inline;stroke-width:10;fill:#cecece;fill-opacity:1"
       id="g45124">
      <path
         d="M101.5 573.57h224.25"
         style="fill:#cecece;fill-opacity:1"
         transform="rotate(60 444.246 505.407)"
         id="path45120" />
      <path
         d="M205.12 468.52h18.183v272.74H205.12Z"
         style="fill:#cecece;fill-opacity:1;stroke-linecap:round"
         transform="rotate(60 444.246 505.407)"
         id="path45122" />
    </g>
    <g
       fill="none"
       fill-rule="evenodd"
       style="display:inline"
       id="g45184">
      <g
         mask="url(#f)"
         style="display:inline"
         transform="matrix(.37859 .64114 -.6635 .39239 562.77 61.16)"
         id="g45182">
        <path
           d="M124 144.611V163h4c39.765 0 72 32.235 72 72v9H0v-9c0-39.765 32.235-72 72-72h4v-18.389c-17.237-8.189-29.628-24.924-31.695-44.73C38.48 99.058 34 94.052 34 88V74c0-5.946 4.325-10.882 10-11.834V56c0-30.928 25.072-56 56-56s56 25.072 56 56v6.166c5.675.952 10 5.888 10 11.834v14c0 6.052-4.48 11.058-10.305 11.881-2.067 19.806-14.458 36.541-31.695 44.73z"
           style="fill:#d0c6ac"
           transform="translate(32 36)"
           id="path45126" />
        <g
           fill="#614335"
           mask="url(#g)"
           transform="translate(32 36)"
           id="g45130">
          <path
             d="M0 0h264v280H0Z"
             id="path45128" />
        </g>
        <path
           fill="#000"
           fill-opacity=".1"
           d="M156 79v23c0 30.928-25.072 56-56 56s-56-25.072-56-56V79v15c0 30.928 25.072 56 56 56s56-25.072 56-56z"
           mask="url(#g)"
           transform="translate(32 36)"
           id="path45132" />
        <g
           transform="translate(0 170)"
           id="g45144">
          <use
             xlink:href="#a"
             fill="#b7c1db"
             id="use45134" />
          <g
             fill="#fff"
             mask="url(#h)"
             id="g45138">
            <path
               d="M0 0h264v110H0Z"
               id="path45136" />
          </g>
          <circle
             cx="81"
             cy="83"
             r="5"
             fill="#f4f4f4"
             id="circle45140" />
          <circle
             cx="183"
             cy="83"
             r="5"
             fill="#f4f4f4"
             id="circle45142" />
        </g>
        <g
           fill="#000"
           id="g45164">
          <g
             transform="translate(78 134)"
             id="g45158">
            <use
               xlink:href="#b"
               fill-opacity=".7"
               id="use45146" />
            <rect
               width="31"
               height="16"
               x="39"
               y="2"
               fill="#fff"
               mask="url(#i)"
               rx="5"
               id="rect45148" />
            <g
               fill="#ff4f6d"
               mask="url(#i)"
               id="g45156">
              <g
                 transform="translate(38 24)"
                 id="g45154">
                <circle
                   cx="11"
                   cy="11"
                   r="11"
                   id="circle45150" />
                <circle
                   cx="21"
                   cy="11"
                   r="11"
                   id="circle45152" />
              </g>
            </g>
          </g>
          <path
             fill-opacity=".16"
             d="M120 130c0 4.418 5.373 8 12 8s12-3.582 12-8"
             id="path45160" />
          <path
             fill-opacity=".6"
             d="M92.16 112.447c1.847-3.798 6.004-6.447 10.838-6.447 4.816 0 8.961 2.63 10.817 6.407.552 1.122-.233 2.04-1.024 1.36-2.451-2.107-5.932-3.423-9.793-3.423-3.74 0-7.124 1.235-9.56 3.228-.891.728-1.818-.014-1.278-1.125zm58 0c1.847-3.798 6.004-6.447 10.838-6.447 4.816 0 8.961 2.63 10.817 6.407.552 1.122-.233 2.04-1.024 1.36-2.451-2.107-5.932-3.423-9.793-3.423-3.74 0-7.124 1.235-9.56 3.228-.891.728-1.818-.014-1.278-1.125zM102.547 88.148c-5.807.269-15.195 4.488-14.953 10.344.008.192.29.276.427.129 2.755-2.96 22.316-5.95 29.205-4.365.63.145 1.11-.477.71-.927-3.422-3.848-10.186-5.426-15.389-5.18m59.906-.001c5.807.269 15.195 4.488 14.953 10.344-.008.192-.29.276-.427.129-2.755-2.96-22.316-5.95-29.205-4.365-.63.145-1.11-.477-.71-.927 3.422-3.848 10.186-5.426 15.389-5.18"
             id="path45162" />
        </g>
        <g
           mask="url(#j)"
           style="display:inline"
           id="g45180">
          <g
             transform="translate(35)"
             id="g45172">
            <use
               xlink:href="#d"
               fill="#2e3257"
               id="use45166" />
            <g
               fill="#c93305"
               mask="url(#k)"
               style="display:inline"
               id="g45170">
              <path
                 d="M0 0h264v280H0Z"
                 style="display:inline;fill:#f6a13b;fill-opacity:1"
                 id="path45168" />
            </g>
          </g>
          <g
             fill="#252c2f"
             fill-rule="nonzero"
             filter="url(#o)"
             style="filter:url(#l)"
             transform="translate(67 92)"
             id="g45178">
            <path
               d="M34 41h-2.758C17.315 41 9 33.336 9 20.5 9 10.127 10.817 0 32.53 0h2.94C57.183 0 59 10.127 59 20.5 59 32.569 48.721 41 34 41ZM32.385 6C13 6 13 12.841 13 21.502 13 28.572 16.116 37 30.97 37H34c12.365 0 21-6.373 21-15.498C55 12.84 55 6 35.615 6ZM96 41h-2.758C79.315 41 71 33.336 71 20.5 71 10.127 72.817 0 94.53 0h2.94C119.183 0 121 10.127 121 20.5 121 32.569 110.721 41 96 41ZM94.385 6C75 6 75 12.841 75 21.502 75 28.572 78.12 37 92.97 37H96c12.365 0 21-6.373 21-15.498C117 12.84 117 6 97.615 6Z"
               id="path45174" />
            <path
               d="M2.955 5.772C3.645 5.096 11.21 0 32.5 0c17.851 0 21.63 1.853 27.35 4.652l.419.207c.398.14 2.431.83 4.81.907a16.998 16.998 0 0 0 4.563-.869C76.17 1.722 82.562 0 97.5 0c21.29 0 28.854 5.096 29.545 5.772 1.634 0 2.955 1.29 2.955 2.885v2.886c0 1.596-1.32 2.886-2.955 2.886 0 0-6.901 0-6.901 2.886 0 2.885-1.962-4.176-1.962-5.772v-2.81c-3.603-1.38-10.054-3.947-20.682-3.947-11.842 0-17.739 2.1-22.798 4.185l.057.137-.003 1.986-2.217 5.35L69.8 15.36c-.244-.097-.772-.27-1.504-.451-2.04-.503-4.137-.656-5.992-.276-.68.14-1.312.35-1.891.633l-2.643 1.29-2.643-5.16.117-2.295.08-.195c-4.362-2.033-8.385-4.12-22.824-4.12-10.628 0-17.078 2.565-20.682 3.944v2.812c0 1.596-2.954 8.657-2.954 5.772 0-2.886-5.91-2.886-5.91-2.886-1.63 0-2.954-1.29-2.954-2.886V8.657c0-1.595 1.324-2.885 2.955-2.885Z"
               id="path45176" />
          </g>
        </g>
      </g>
    </g>
  </g>
</svg>
