<svg xmlns="http://www.w3.org/2000/svg" width="134.781" height="190.741" viewBox="0 0 35.661 50.467"><g transform="matrix(.87939 0 0 .87939 -125.386 -5.071)"><path d="M165.417 32.478c6.83-5.384 13.034 0 13.034 0" style="fill:none;fill-opacity:1;stroke:#000;stroke-width:.264583;stroke-dasharray:none;stroke-opacity:1" transform="matrix(.4049 0 0 .49553 99.864 14.854)"/><path d="M167.26 29.84c2.314-1.544 4.415 0 4.415 0" style="fill:none;fill-opacity:1;stroke:#000;stroke-width:.109942;stroke-dasharray:none;stroke-opacity:1"/><path d="M168.156 28.928c1.411-.612 2.693 0 2.693 0" style="fill:none;fill-opacity:1;stroke:#000;stroke-width:.084;stroke-dasharray:none;stroke-opacity:1"/><circle cx="169.458" cy="32.723" r="2.501" style="fill:#0a3d62;fill-opacity:1;stroke-width:.762926"/><path d="M168.817 28.37a1.81 1.81 0 0 1 1.395 0" style="fill:none;fill-opacity:1;stroke:#000;stroke-width:.0435308;stroke-dasharray:none;stroke-opacity:1"/></g><g transform="rotate(65.75 83.733 -65.836) scale(.87939)"><path d="M165.417 32.478c6.83-5.384 13.034 0 13.034 0" style="fill:none;fill-opacity:1;stroke:#000;stroke-width:.264583;stroke-dasharray:none;stroke-opacity:1" transform="matrix(.4049 0 0 .49553 99.864 14.854)"/><path d="M167.26 29.84c2.314-1.544 4.415 0 4.415 0" style="fill:none;fill-opacity:1;stroke:#000;stroke-width:.109942;stroke-dasharray:none;stroke-opacity:1"/><path d="M168.156 28.928c1.411-.612 2.693 0 2.693 0" style="fill:none;fill-opacity:1;stroke:#000;stroke-width:.084;stroke-dasharray:none;stroke-opacity:1"/><circle cx="169.458" cy="32.723" r="2.501" style="fill:#0a3d62;fill-opacity:1;stroke-width:.762926"/><path d="M168.817 28.37a1.81 1.81 0 0 1 1.395 0" style="fill:none;fill-opacity:1;stroke:#000;stroke-width:.0435308;stroke-dasharray:none;stroke-opacity:1"/></g><g transform="rotate(-35.258 112.29 245.238) scale(.87939)"><path d="M165.417 32.478c6.83-5.384 13.034 0 13.034 0" style="fill:none;fill-opacity:1;stroke:#000;stroke-width:.264583;stroke-dasharray:none;stroke-opacity:1" transform="matrix(.4049 0 0 .49553 99.864 14.854)"/><path d="M167.26 29.84c2.314-1.544 4.415 0 4.415 0" style="fill:none;fill-opacity:1;stroke:#000;stroke-width:.109942;stroke-dasharray:none;stroke-opacity:1"/><path d="M168.156 28.928c1.411-.612 2.693 0 2.693 0" style="fill:none;fill-opacity:1;stroke:#000;stroke-width:.084;stroke-dasharray:none;stroke-opacity:1"/><circle cx="169.458" cy="32.723" r="2.501" style="fill:#0a3d62;fill-opacity:1;stroke-width:.762926"/><path d="M168.817 28.37a1.81 1.81 0 0 1 1.395 0" style="fill:none;fill-opacity:1;stroke:#000;stroke-width:.0435308;stroke-dasharray:none;stroke-opacity:1"/></g><g transform="rotate(11.273 49.609 -664.436) scale(.87939)"><path d="M165.417 32.478c6.83-5.384 13.034 0 13.034 0" style="fill:none;fill-opacity:1;stroke:#000;stroke-width:.264583;stroke-dasharray:none;stroke-opacity:1" transform="matrix(.4049 0 0 .49553 99.864 14.854)"/><path d="M167.26 29.84c2.314-1.544 4.415 0 4.415 0" style="fill:none;fill-opacity:1;stroke:#000;stroke-width:.109942;stroke-dasharray:none;stroke-opacity:1"/><path d="M168.156 28.928c1.411-.612 2.693 0 2.693 0" style="fill:none;fill-opacity:1;stroke:#000;stroke-width:.084;stroke-dasharray:none;stroke-opacity:1"/><circle cx="169.458" cy="32.723" r="2.501" style="fill:#0a3d62;fill-opacity:1;stroke-width:.762926"/><path d="M168.817 28.37a1.81 1.81 0 0 1 1.395 0" style="fill:none;fill-opacity:1;stroke:#000;stroke-width:.0435308;stroke-dasharray:none;stroke-opacity:1"/></g><g transform="rotate(-48.356 69.855 172.489) scale(.87939)"><path d="M165.417 32.478c6.83-5.384 13.034 0 13.034 0" style="fill:none;fill-opacity:1;stroke:#000;stroke-width:.264583;stroke-dasharray:none;stroke-opacity:1" transform="matrix(.4049 0 0 .49553 99.864 14.854)"/><path d="M167.26 29.84c2.314-1.544 4.415 0 4.415 0" style="fill:none;fill-opacity:1;stroke:#000;stroke-width:.109942;stroke-dasharray:none;stroke-opacity:1"/><path d="M168.156 28.928c1.411-.612 2.693 0 2.693 0" style="fill:none;fill-opacity:1;stroke:#000;stroke-width:.084;stroke-dasharray:none;stroke-opacity:1"/><circle cx="169.458" cy="32.723" r="2.501" style="fill:#0a3d62;fill-opacity:1;stroke-width:.762926"/><path d="M168.817 28.37a1.81 1.81 0 0 1 1.395 0" style="fill:none;fill-opacity:1;stroke:#000;stroke-width:.0435308;stroke-dasharray:none;stroke-opacity:1"/></g><g transform="rotate(-179.053 87.816 37.53) scale(.87939)"><path d="M165.417 32.478c6.83-5.384 13.034 0 13.034 0" style="fill:none;fill-opacity:1;stroke:#000;stroke-width:.264583;stroke-dasharray:none;stroke-opacity:1" transform="matrix(.4049 0 0 .49553 99.864 14.854)"/><path d="M167.26 29.84c2.314-1.544 4.415 0 4.415 0" style="fill:none;fill-opacity:1;stroke:#000;stroke-width:.109942;stroke-dasharray:none;stroke-opacity:1"/><path d="M168.156 28.928c1.411-.612 2.693 0 2.693 0" style="fill:none;fill-opacity:1;stroke:#000;stroke-width:.084;stroke-dasharray:none;stroke-opacity:1"/><circle cx="169.458" cy="32.723" r="2.501" style="fill:#0a3d62;fill-opacity:1;stroke-width:.762926"/><path d="M168.817 28.37a1.81 1.81 0 0 1 1.395 0" style="fill:none;fill-opacity:1;stroke:#000;stroke-width:.0435308;stroke-dasharray:none;stroke-opacity:1"/></g><g transform="rotate(4.846 -45.634 -1515.977) scale(.87939)"><path d="M165.417 32.478c6.83-5.384 13.034 0 13.034 0" style="fill:none;fill-opacity:1;stroke:#000;stroke-width:.264583;stroke-dasharray:none;stroke-opacity:1" transform="matrix(.4049 0 0 .49553 99.864 14.854)"/><path d="M167.26 29.84c2.314-1.544 4.415 0 4.415 0" style="fill:none;fill-opacity:1;stroke:#000;stroke-width:.109942;stroke-dasharray:none;stroke-opacity:1"/><path d="M168.156 28.928c1.411-.612 2.693 0 2.693 0" style="fill:none;fill-opacity:1;stroke:#000;stroke-width:.084;stroke-dasharray:none;stroke-opacity:1"/><circle cx="169.458" cy="32.723" r="2.501" style="fill:#0a3d62;fill-opacity:1;stroke-width:.762926"/><path d="M168.817 28.37a1.81 1.81 0 0 1 1.395 0" style="fill:none;fill-opacity:1;stroke:#000;stroke-width:.0435308;stroke-dasharray:none;stroke-opacity:1"/></g><g transform="rotate(-149.319 82.472 44.02) scale(.87939)"><path d="M165.417 32.478c6.83-5.384 13.034 0 13.034 0" style="fill:none;fill-opacity:1;stroke:#000;stroke-width:.264583;stroke-dasharray:none;stroke-opacity:1" transform="matrix(.4049 0 0 .49553 99.864 14.854)"/><path d="M167.26 29.84c2.314-1.544 4.415 0 4.415 0" style="fill:none;fill-opacity:1;stroke:#000;stroke-width:.109942;stroke-dasharray:none;stroke-opacity:1"/><path d="M168.156 28.928c1.411-.612 2.693 0 2.693 0" style="fill:none;fill-opacity:1;stroke:#000;stroke-width:.084;stroke-dasharray:none;stroke-opacity:1"/><circle cx="169.458" cy="32.723" r="2.501" style="fill:#0a3d62;fill-opacity:1;stroke-width:.762926"/><path d="M168.817 28.37a1.81 1.81 0 0 1 1.395 0" style="fill:none;fill-opacity:1;stroke:#000;stroke-width:.0435308;stroke-dasharray:none;stroke-opacity:1"/></g><g transform="rotate(135.974 88.77 -7.755) scale(.87939)"><path d="M165.417 32.478c6.83-5.384 13.034 0 13.034 0" style="fill:none;fill-opacity:1;stroke:#000;stroke-width:.264583;stroke-dasharray:none;stroke-opacity:1" transform="matrix(.4049 0 0 .49553 99.864 14.854)"/><path d="M167.26 29.84c2.314-1.544 4.415 0 4.415 0" style="fill:none;fill-opacity:1;stroke:#000;stroke-width:.109942;stroke-dasharray:none;stroke-opacity:1"/><path d="M168.156 28.928c1.411-.612 2.693 0 2.693 0" style="fill:none;fill-opacity:1;stroke:#000;stroke-width:.084;stroke-dasharray:none;stroke-opacity:1"/><circle cx="169.458" cy="32.723" r="2.501" style="fill:#0a3d62;fill-opacity:1;stroke-width:.762926"/><path d="M168.817 28.37a1.81 1.81 0 0 1 1.395 0" style="fill:none;fill-opacity:1;stroke:#000;stroke-width:.0435308;stroke-dasharray:none;stroke-opacity:1"/></g><g transform="rotate(85.521 91.625 -47.782) scale(.87939)"><path d="M165.417 32.478c6.83-5.384 13.034 0 13.034 0" style="fill:none;fill-opacity:1;stroke:#000;stroke-width:.264583;stroke-dasharray:none;stroke-opacity:1" transform="matrix(.4049 0 0 .49553 99.864 14.854)"/><path d="M167.26 29.84c2.314-1.544 4.415 0 4.415 0" style="fill:none;fill-opacity:1;stroke:#000;stroke-width:.109942;stroke-dasharray:none;stroke-opacity:1"/><path d="M168.156 28.928c1.411-.612 2.693 0 2.693 0" style="fill:none;fill-opacity:1;stroke:#000;stroke-width:.084;stroke-dasharray:none;stroke-opacity:1"/><circle cx="169.458" cy="32.723" r="2.501" style="fill:#0a3d62;fill-opacity:1;stroke-width:.762926"/><path d="M168.817 28.37a1.81 1.81 0 0 1 1.395 0" style="fill:none;fill-opacity:1;stroke:#000;stroke-width:.0435308;stroke-dasharray:none;stroke-opacity:1"/></g><g transform="rotate(11.273 30.251 -689.501) scale(.87939)"><path d="M165.417 32.478c6.83-5.384 13.034 0 13.034 0" style="fill:none;fill-opacity:1;stroke:#000;stroke-width:.264583;stroke-dasharray:none;stroke-opacity:1" transform="matrix(.4049 0 0 .49553 99.864 14.854)"/><path d="M167.26 29.84c2.314-1.544 4.415 0 4.415 0" style="fill:none;fill-opacity:1;stroke:#000;stroke-width:.109942;stroke-dasharray:none;stroke-opacity:1"/><path d="M168.156 28.928c1.411-.612 2.693 0 2.693 0" style="fill:none;fill-opacity:1;stroke:#000;stroke-width:.084;stroke-dasharray:none;stroke-opacity:1"/><circle cx="-170.04" cy="29.548" r="2.501" style="fill:#0a3d62;fill-opacity:1;stroke-width:.762926" transform="rotate(-159.213)"/><path d="M168.817 28.37a1.81 1.81 0 0 1 1.395 0" style="fill:none;fill-opacity:1;stroke:#000;stroke-width:.0435308;stroke-dasharray:none;stroke-opacity:1"/></g><g transform="rotate(-177.979 82.02 17.845) scale(.87939)"><path d="M165.417 32.478c6.83-5.384 13.034 0 13.034 0" style="fill:none;fill-opacity:1;stroke:#000;stroke-width:.264583;stroke-dasharray:none;stroke-opacity:1" transform="matrix(.4049 0 0 .49553 99.864 14.854)"/><path d="M167.26 29.84c2.314-1.544 4.415 0 4.415 0" style="fill:none;fill-opacity:1;stroke:#000;stroke-width:.109942;stroke-dasharray:none;stroke-opacity:1"/><path d="M168.156 28.928c1.411-.612 2.693 0 2.693 0" style="fill:none;fill-opacity:1;stroke:#000;stroke-width:.084;stroke-dasharray:none;stroke-opacity:1"/><circle cx="169.458" cy="32.723" r="2.501" style="fill:#0a3d62;fill-opacity:1;stroke-width:.762926"/><path d="M168.817 28.37a1.81 1.81 0 0 1 1.395 0" style="fill:none;fill-opacity:1;stroke:#000;stroke-width:.0435308;stroke-dasharray:none;stroke-opacity:1"/></g><g transform="rotate(-91.256 93.688 91.997) scale(.87939)"><path d="M165.417 32.478c6.83-5.384 13.034 0 13.034 0" style="fill:none;fill-opacity:1;stroke:#000;stroke-width:.264583;stroke-dasharray:none;stroke-opacity:1" transform="matrix(.4049 0 0 .49553 99.864 14.854)"/><path d="M167.26 29.84c2.314-1.544 4.415 0 4.415 0" style="fill:none;fill-opacity:1;stroke:#000;stroke-width:.109942;stroke-dasharray:none;stroke-opacity:1"/><path d="M168.156 28.928c1.411-.612 2.693 0 2.693 0" style="fill:none;fill-opacity:1;stroke:#000;stroke-width:.084;stroke-dasharray:none;stroke-opacity:1"/><circle cx="169.458" cy="32.723" r="2.501" style="fill:#0a3d62;fill-opacity:1;stroke-width:.762926"/><path d="M168.817 28.37a1.81 1.81 0 0 1 1.395 0" style="fill:none;fill-opacity:1;stroke:#000;stroke-width:.0435308;stroke-dasharray:none;stroke-opacity:1"/></g><g transform="rotate(-71.451 85.818 120.633) scale(.87939)"><path d="M165.417 32.478c6.83-5.384 13.034 0 13.034 0" style="fill:none;fill-opacity:1;stroke:#000;stroke-width:.264583;stroke-dasharray:none;stroke-opacity:1" transform="matrix(.4049 0 0 .49553 99.864 14.854)"/><path d="M167.26 29.84c2.314-1.544 4.415 0 4.415 0" style="fill:none;fill-opacity:1;stroke:#000;stroke-width:.109942;stroke-dasharray:none;stroke-opacity:1"/><path d="M168.156 28.928c1.411-.612 2.693 0 2.693 0" style="fill:none;fill-opacity:1;stroke:#000;stroke-width:.084;stroke-dasharray:none;stroke-opacity:1"/><circle cx="169.458" cy="32.723" r="2.501" style="fill:#0a3d62;fill-opacity:1;stroke-width:.762926"/><path d="M168.817 28.37a1.81 1.81 0 0 1 1.395 0" style="fill:none;fill-opacity:1;stroke:#000;stroke-width:.0435308;stroke-dasharray:none;stroke-opacity:1"/></g><g transform="rotate(76.5 80.758 -59.848) scale(.87939)"><path d="M165.417 32.478c6.83-5.384 13.034 0 13.034 0" style="fill:none;fill-opacity:1;stroke:#000;stroke-width:.264583;stroke-dasharray:none;stroke-opacity:1" transform="matrix(.4049 0 0 .49553 99.864 14.854)"/><path d="M167.26 29.84c2.314-1.544 4.415 0 4.415 0" style="fill:none;fill-opacity:1;stroke:#000;stroke-width:.109942;stroke-dasharray:none;stroke-opacity:1"/><path d="M168.156 28.928c1.411-.612 2.693 0 2.693 0" style="fill:none;fill-opacity:1;stroke:#000;stroke-width:.084;stroke-dasharray:none;stroke-opacity:1"/><circle cx="169.458" cy="32.723" r="2.501" style="fill:#0a3d62;fill-opacity:1;stroke-width:.762926"/><path d="M168.817 28.37a1.81 1.81 0 0 1 1.395 0" style="fill:none;fill-opacity:1;stroke:#000;stroke-width:.0435308;stroke-dasharray:none;stroke-opacity:1"/></g><g transform="rotate(11.273 -8.544 -685.373) scale(.87939)"><path d="M165.417 32.478c6.83-5.384 13.034 0 13.034 0" style="fill:none;fill-opacity:1;stroke:#000;stroke-width:.264583;stroke-dasharray:none;stroke-opacity:1" transform="matrix(.4049 0 0 .49553 99.864 14.854)"/><path d="M167.26 29.84c2.314-1.544 4.415 0 4.415 0" style="fill:none;fill-opacity:1;stroke:#000;stroke-width:.109942;stroke-dasharray:none;stroke-opacity:1"/><path d="M168.156 28.928c1.411-.612 2.693 0 2.693 0" style="fill:none;fill-opacity:1;stroke:#000;stroke-width:.084;stroke-dasharray:none;stroke-opacity:1"/><circle cx="169.458" cy="32.723" r="2.501" style="fill:#0a3d62;fill-opacity:1;stroke-width:.762926"/><path d="M168.817 28.37a1.81 1.81 0 0 1 1.395 0" style="fill:none;fill-opacity:1;stroke:#000;stroke-width:.0435308;stroke-dasharray:none;stroke-opacity:1"/></g><path d="m135.639 82.517-.021 13.759-11.384 31.528.151 4.812 34.77-.3-.114-5.554-11.614-29.754.029-14.477" style="fill:none;fill-opacity:1;stroke:#000;stroke-width:.729755;stroke-dasharray:none;stroke-opacity:1" transform="translate(-123.867 -82.517)"/></svg>