<?xml version="1.0" encoding="UTF-8" standalone="no"?>
<svg
   width="241.31252"
   height="255.61046"
   version="1.1"
   id="svg18248"
   sodipodi:docname="teacher.svg"
   inkscape:export-filename="teacher.svg"
   inkscape:export-xdpi="96"
   inkscape:export-ydpi="96"
   xmlns:inkscape="http://www.inkscape.org/namespaces/inkscape"
   xmlns:sodipodi="http://sodipodi.sourceforge.net/DTD/sodipodi-0.dtd"
   xmlns:xlink="http://www.w3.org/1999/xlink"
   xmlns="http://www.w3.org/2000/svg"
   xmlns:svg="http://www.w3.org/2000/svg">
  <sodipodi:namedview
     id="namedview18250"
     pagecolor="#ffffff"
     bordercolor="#000000"
     borderopacity="0.25"
     inkscape:showpageshadow="2"
     inkscape:pageopacity="0.0"
     inkscape:pagecheckerboard="0"
     inkscape:deskcolor="#d1d1d1"
     showgrid="false" />
  <defs
     id="defs18121">
    <path
       id="c"
       d="m 12,160 c 0,66.274 53.726,120 120,120 66.274,0 120,-53.726 120,-120 h 12 V 0 H 0 v 160 z" />
    <path
       id="e"
       d="M 124,144.611 V 163 h 4 c 39.765,0 72,32.235 72,72 v 9 H 0 v -9 c 0,-39.765 32.235,-72 72,-72 h 4 V 144.611 C 58.763,136.422 46.372,119.687 44.305,99.881 38.48,99.058 34,94.052 34,88 V 74 C 34,68.054 38.325,63.118 44,62.166 V 56 C 44,25.072 69.072,0 100,0 c 30.928,0 56,25.072 56,56 v 6.166 c 5.675,0.952 10,5.888 10,11.834 v 14 c 0,6.052 -4.48,11.058 -10.305,11.881 -2.067,19.806 -14.458,36.541 -31.695,44.73 z" />
    <circle
       id="a"
       cx="120"
       cy="120"
       r="120" />
  </defs>
  <g
     fill="none"
     fill-rule="evenodd"
     id="g18246"
     transform="matrix(1.0054688,0,0,1.0475839,-12.065626,-37.71302)">
    <g
       transform="translate(12,40)"
       id="g18132"
       style="display:inline">
      <mask
         id="b"
         fill="#ffffff">
        <use
           xlink:href="#a"
           id="use18123" />
      </mask>
      <use
         xlink:href="#a"
         fill="#e6e6e6"
         id="use18126" />
      <g
         fill="#65c9ff"
         mask="url(#b)"
         id="g18130"
         style="display:inline;fill:#bdefff;fill-opacity:1">
        <path
           d="M 0,0 H 240 V 240 H 0 Z"
           id="path18128"
           style="display:inline;fill:#48bb78;fill-opacity:1" />
      </g>
    </g>
    <mask
       id="d"
       fill="#ffffff">
      <use
         xlink:href="#c"
         id="use18134" />
    </mask>
    <g
       mask="url(#d)"
       id="g18244">
      <g
         transform="translate(32,36)"
         id="g18148"
         style="display:inline">
        <mask
           id="f"
           fill="#ffffff">
          <use
             xlink:href="#e"
             id="use18137" />
        </mask>
        <use
           xlink:href="#e"
           fill="#d0c6ac"
           id="use18140" />
        <g
           fill="#d08b5b"
           mask="url(#f)"
           id="g18144">
          <path
             d="M 0,0 H 264 V 280 H 0 Z"
             id="path18142" />
        </g>
        <path
           fill="#000000"
           fill-opacity="0.1"
           d="m 156,79 v 23 c 0,30.928 -25.072,56 -56,56 -30.928,0 -56,-25.072 -56,-56 V 79 94 c 0,30.928 25.072,56 56,56 30.928,0 56,-25.072 56,-56 z"
           mask="url(#f)"
           id="path18146" />
      </g>
      <g
         transform="translate(0,170)"
         id="g18162">
        <defs
           id="defs18151">
          <path
             id="g"
             d="M 171.32,29.936 C 205.706,35.366 232,65.14 232,101.052 V 110 H 32 v -8.948 C 32,65.138 58.294,35.366 92.682,29.936 a 23.896,23.896 0 0 0 7.554,13.603 l 29.085,26.229 a 4,4 0 0 0 5.358,0 l 29.085,-26.229 a 24,24 0 0 0 1.234,-1.196 23.888,23.888 0 0 0 6.322,-12.407 z" />
        </defs>
        <mask
           id="h"
           fill="#ffffff">
          <use
             xlink:href="#g"
             id="use18153" />
        </mask>
        <use
           xlink:href="#g"
           fill="#e6e6e6"
           id="use18156" />
        <g
           fill="#ffffff"
           mask="url(#h)"
           id="g18160">
          <path
             d="M 0,0 H 264 V 110 H 0 Z"
             id="path18158" />
        </g>
      </g>
      <g
         fill="#000000"
         id="g18194">
        <g
           transform="translate(78,134)"
           id="g18182">
          <defs
             id="defs18165">
            <path
               id="i"
               d="M 35.118,15.128 C 36.176,24.62 44.226,32 54,32 63.804,32 71.874,24.574 72.892,15.04 72.974,14.273 72.117,13 71.042,13 H 37.088 c -1.08,0 -2.075,1.178 -1.97,2.128 z" />
          </defs>
          <mask
             id="j"
             fill="#ffffff">
            <use
               xlink:href="#i"
               id="use18167" />
          </mask>
          <use
             xlink:href="#i"
             fill-opacity="0.7"
             id="use18170" />
          <rect
             width="31"
             height="16"
             x="39"
             y="2"
             fill="#ffffff"
             mask="url(#j)"
             rx="5"
             id="rect18172" />
          <g
             fill="#ff4f6d"
             mask="url(#j)"
             id="g18180">
            <g
               transform="translate(38,24)"
               id="g18178">
              <circle
                 cx="11"
                 cy="11"
                 r="11"
                 id="circle18174" />
              <circle
                 cx="21"
                 cy="11"
                 r="11"
                 id="circle18176" />
            </g>
          </g>
        </g>
        <path
           fill-opacity="0.16"
           d="m 120,130 c 0,4.418 5.373,8 12,8 6.627,0 12,-3.582 12,-8"
           id="path18184" />
        <g
           fill-opacity="0.6"
           id="g18188">
          <path
             d="m 103.241,110.346 a 6,6 0 1 0 10.699,2.8 1.998,1.998 0 0 0 -0.125,-0.739 7.509,7.509 0 0 0 -0.144,-0.372 6.007,6.007 0 0 0 -1.646,-2.484 c -2.126,-2.234 -5.519,-3.551 -9.027,-3.551 -4.834,0 -8.991,2.649 -10.838,6.447 -0.54,1.111 0.387,1.853 1.278,1.125 2.436,-1.993 5.82,-3.228 9.56,-3.228 0.08,0 0.162,0 0.243,0.002 z m 58,0 a 6,6 0 1 0 10.699,2.8 1.998,1.998 0 0 0 -0.125,-0.739 7.509,7.509 0 0 0 -0.144,-0.372 6.007,6.007 0 0 0 -1.646,-2.484 c -2.126,-2.234 -5.519,-3.551 -9.027,-3.551 -4.834,0 -8.991,2.649 -10.838,6.447 -0.54,1.111 0.387,1.853 1.278,1.125 2.436,-1.993 5.82,-3.228 9.56,-3.228 0.08,0 0.162,0 0.243,0.002 z"
             id="path18186" />
        </g>
        <g
           fill-opacity="0.6"
           fill-rule="nonzero"
           id="g18192">
          <path
             d="m 91.976,99.128 c 1.495,-9.523 14.083,-16.02 23.188,-11.827 a 2,2 0 0 0 1.672,-3.633 c -11.487,-5.29 -26.9,2.664 -28.812,14.84 a 2.000169,2.000169 0 1 0 3.952,0.62 z m 80.048,0 c -1.495,-9.523 -14.082,-16.02 -23.187,-11.827 a 2,2 0 0 1 -1.673,-3.633 c 11.487,-5.29 26.9,2.664 28.812,14.84 a 2.000169,2.000169 0 0 1 -3.952,0.62 z"
             id="path18190" />
        </g>
      </g>
      <defs
         id="defs18198">
        <path
           id="k"
           d="M 0,0 H 264 V 280 H 0 Z" />
        <path
           id="o"
           d="M 6,28 C 0.924,28.071 0,26.994 0,23 0,17.344 4.04,6.778 8,2 c 1.176,-2.17 3.619,-3.432 3,1 -2.66,8.477 0.417,24.914 -5,25 z m 114,0 c -5.417,-0.086 -2.34,-16.523 -5,-25 -0.619,-4.432 1.824,-3.17 3,-1 3.96,4.778 8,15.344 8,21 0,3.994 -0.924,5.071 -6,5 z" />
      </defs>
      <mask
         id="l"
         fill="#ffffff">
        <use
           xlink:href="#k"
           id="use18200" />
      </mask>
      <g
         mask="url(#l)"
         id="g18242"
         style="display:inline">
        <g
           transform="translate(48,72)"
           id="g18215">
          <defs
             id="defs18204">
            <path
               id="m"
               d="m 105.018,94.13 c -3.868,5.591 -6.76,1.817 -10.88,-1.254 -2.481,-1.849 -6.177,-4.148 -9.634,-4.035 -3.456,-0.113 -7.152,2.186 -9.633,4.035 -4.12,3.07 -7.013,6.845 -10.88,1.254 -2.903,-4.198 -1.688,-11.256 1.024,-15.227 3.859,-5.652 9.094,-2.918 14.947,-3.563 1.592,-0.175 3.19,-0.617 4.542,-1.34 1.352,0.723 2.95,1.165 4.542,1.34 5.854,0.645 11.089,-2.089 14.948,3.563 2.712,3.97 3.926,11.03 1.024,15.227 M 140.39,26 c -3.424,14.075 -4.998,28.434 -7.481,42.671 a 319.166,319.166 0 0 1 -1.685,8.879 c -0.127,0.62 -0.251,2.923 -0.862,3.214 -1.851,0.884 -5.624,-3.817 -6.633,-4.879 -2.533,-2.666 -5.045,-5.356 -8.13,-7.448 -6.235,-4.227 -13.535,-6.726 -21.13,-7.32 -3.178,-0.248 -7.475,0.186 -10.47,1.993 -2.995,-1.807 -7.292,-2.24 -10.47,-1.992 -7.596,0.593 -14.895,3.092 -21.13,7.32 -3.085,2.091 -5.597,4.781 -8.13,7.447 -1.01,1.062 -4.782,5.763 -6.633,4.88 -0.61,-0.292 -0.735,-2.595 -0.862,-3.215 A 319.164,319.164 0 0 1 35.089,68.671 C 32.607,54.434 31.034,40.075 27.61,26 c -0.997,0 -1.871,18.748 -1.983,20.495 -0.452,7.094 -0.98,14.03 -0.305,21.131 1.164,12.249 2.377,27.608 11.71,36.962 8.434,8.451 20.678,10.218 31.24,15.553 1.36,0.687 3.163,1.535 5.108,2.23 2.049,1.563 6.113,2.629 10.794,2.629 4.91,0 9.142,-1.173 11.08,-2.862 a 47.143,47.143 0 0 0 4.475,-1.997 c 10.56,-5.336 22.805,-7.102 31.238,-15.553 9.334,-9.354 10.547,-24.713 11.712,-36.962 0.674,-7.1 0.146,-14.037 -0.306,-21.131 C 142.26,44.748 141.387,26 140.39,26 Z" />
          </defs>
          <mask
             id="n"
             fill="#ffffff">
            <use
               xlink:href="#m"
               id="use18206" />
          </mask>
          <use
             xlink:href="#m"
             fill="#252e32"
             id="use18209" />
          <g
             fill="#ecdcbf"
             mask="url(#n)"
             id="g18213">
            <path
               d="M -32,0 H 232 V 244 H -32 Z"
               id="path18211" />
          </g>
        </g>
        <g
           transform="translate(69,74)"
           id="g18226">
          <mask
             id="p"
             fill="#ffffff">
            <use
               xlink:href="#o"
               id="use18217" />
          </mask>
          <use
             xlink:href="#o"
             fill="#9e7a7a"
             id="use18220" />
          <g
             fill="#ecdcbf"
             mask="url(#p)"
             id="g18224">
            <path
               d="M 0,0 H 264 V 280 H 0 Z"
               id="path18222" />
          </g>
        </g>
        <g
           transform="translate(61,85)"
           id="g18240">
          <defs
             id="defs18234">
            <filter
               id="q"
               width="1"
               height="1.0416667"
               x="0"
               y="0"
               filterUnits="objectBoundingBox">
              <feOffset
                 dy="2"
                 in="SourceAlpha"
                 result="shadowOffsetOuter1"
                 id="feOffset18228" />
              <feColorMatrix
                 in="shadowOffsetOuter1"
                 values="0 0 0 0 0 0 0 0 0 0 0 0 0 0 0 0 0 0 0.1 0"
                 id="feColorMatrix18230" />
            </filter>
            <path
               id="r"
               d="M 80.465,16.394 C 84.38,8.46 92.553,3 102,3 110.92,3 118.703,7.866 122.84,15.088 123.05,15.031 123.272,15 123.5,15 h 8 a 2.5,2.5 0 1 1 0,5 h -6.537 A 23.998,23.998 0 0 1 126,27 C 126,40.255 115.255,51 102,51 88.745,51 78,40.255 78,27 78,25.578 78.124,24.185 78.36,22.831 78.277,18.455 74.915,15 70.863,15 c -3.736,0 -6.887,2.94 -7.42,6.83 0.365,1.665 0.558,3.395 0.558,5.17 0,13.255 -10.745,24 -24,24 C 26.746,51 16,40.255 16,27 c 0,-2.435 0.363,-4.785 1.037,-7 H 10.5 a 2.5,2.5 0 1 1 0,-5 h 8 c 0.228,0 0.45,0.03 0.66,0.088 C 23.297,7.866 31.08,3 40,3 49.352,3 57.455,8.35 61.416,16.155 63.493,13.039 66.949,11 70.862,11 c 4.013,0 7.545,2.144 9.603,5.394 z M 40,47 C 51.046,47 60,38.046 60,27 60,15.954 51.046,7 40,7 28.954,7 20,15.954 20,27 c 0,11.046 8.954,20 20,20 z m 62,0 c 11.046,0 20,-8.954 20,-20 0,-11.046 -8.954,-20 -20,-20 -11.046,0 -20,8.954 -20,20 0,11.046 8.954,20 20,20 z" />
          </defs>
          <use
             xlink:href="#r"
             fill="#000000"
             filter="url(#q)"
             id="use18236" />
          <use
             xlink:href="#r"
             fill="#252c2f"
             id="use18238" />
        </g>
      </g>
    </g>
  </g>
</svg>
