<?xml version="1.0" encoding="utf-8"?>
<svg xmlns="http://www.w3.org/2000/svg" viewBox="0 0 750 400">
  <g style="" transform="matrix(0.971986, 0, 0, 0.971181, 12.305179, 3.714869)">
    <path d="M 708.885 330.477 C 775.368 203.672 677.909 56.9 521.343 45.561 C 503.11 44.242 484.81 43.817 466.524 44.287 C 307.527 48.308 256.785 91.513 217.303 98.542 C 177.821 105.571 89.887 77.418 45.904 106.556 C 1.922 135.693 -51.605 269.076 45.077 364.656 C 141.759 460.236 338.079 361.042 427.093 370.682 C 516.107 380.322 579.25 419.037 644.703 393.92 C 669.222 384.497 692.166 362.361 708.885 330.477 Z" style="fill: rgb(240, 240, 240);"/>
  </g>
  <path d="M13.52 437.95h720.64" style="fill:none;stroke:#263238;stroke-linecap:round;stroke-linejoin:round" transform="translate(0 -65)"/>
  <path d="M342.28 426.91h17.85v4.61h-17.85zM347.39 389.48h7.64v37.43h-7.64z" style="fill:#fff;stroke:#263238;stroke-linecap:round;stroke-linejoin:round" transform="translate(0 -65)"/>
  <path d="M344.87 388.05h12.68v12.41h-12.68zM329.36 431.24h43.7a5 5 0 0 1 5 5V438h0-53.7 0v-1.71a5 5 0 0 1 5-5.05Z" style="fill:#fff;stroke:#263238;stroke-linecap:round;stroke-linejoin:round" transform="translate(0 -65)"/>
  <path d="M354.76 380.64c0 4.07-1.59 7.36-3.55 7.36s-3.55-3.29-3.55-7.36 2.13-11.8 3.55-11.8 3.55 7.73 3.55 11.8Z" style="fill:#0a3d62;stroke:#263238;stroke-linecap:round;stroke-linejoin:round" transform="translate(0 -65)"/>
  <path d="M353.69 383.71c0 2.37-1.11 4.29-2.48 4.29s-2.49-1.92-2.49-4.29 1.49-6.88 2.49-6.88 2.48 4.51 2.48 6.88Z" style="fill:#fff;stroke:#263238;stroke-linecap:round;stroke-linejoin:round" transform="translate(0 -65)"/>
  <path d="M354.99 409.29h3.37v8.16h-3.37z" style="fill:#263238;stroke:#263238;stroke-linecap:round;stroke-linejoin:round" transform="translate(0 -65)"/>
  <g transform="translate(0 -65)">
    <path d="m151.51 366.19-3.1.67-2.23-2.86 6.2-1.34-.87 3.53z" style="fill:#fff;stroke:#263238;stroke-linecap:round;stroke-linejoin:round"/>
    <path d="M144.49 348.33h6.34v14.99h-6.34z" style="fill:#fff;stroke:#263238;stroke-linecap:round;stroke-linejoin:round" transform="rotate(-12.16 147.631 355.78)"/>
    <path d="m140.7 366.31-2.83-1.43.05-3.63 5.67 2.84-2.89 2.22z" style="fill:#fff;stroke:#263238;stroke-linecap:round;stroke-linejoin:round"/>
    <path d="M141.02 348.31h6.34v14.99h-6.34z" style="fill:#fff;stroke:#263238;stroke-linecap:round;stroke-linejoin:round" transform="rotate(26.65 144.21 355.843)"/>
    <path d="m131.89 362.35-2.83-1.42.05-3.64 5.67 2.84-2.89 2.22z" style="fill:#fff;stroke:#263238;stroke-linecap:round;stroke-linejoin:round"/>
    <path d="M132.21 344.36h6.34v14.99h-6.34z" style="fill:#fff;stroke:#263238;stroke-linecap:round;stroke-linejoin:round" transform="rotate(26.65 135.382 351.892)"/>
    <path d="M89.55 392.04h47.27v11.51H89.55z" style="fill:#263238;stroke:#263238;stroke-linecap:round;stroke-linejoin:round"/>
    <path d="M100.87 418h68.76a8.13 8.13 0 0 1 8.13 8.13V438h0-76.89 0v-20h0Z" style="fill:#fff;stroke:#263238;stroke-linecap:round;stroke-linejoin:round"/>
    <path d="M177.15 427.95h-56.57" style="fill:none;stroke:#263238;stroke-linecap:round;stroke-linejoin:round"/>
    <path d="M89.55 392.04h30.87v45.91H89.55zM223.69 301.56l-59.98 23.85-2.49-6.31 59.97-23.85 2.5 6.31z" style="fill:#263238;stroke:#263238;stroke-linecap:round;stroke-linejoin:round"/>
    <path d="M199.73 302.39h3.33v8.91h-3.33z" style="fill:#fff;stroke:#263238;stroke-linecap:round;stroke-linejoin:round" transform="rotate(-21.59 201.453 306.917)"/>
    <path d="M161.48 310.49h28.06v13.2h-28.06z" style="fill:#263238;stroke:#263238;stroke-linecap:round;stroke-linejoin:round" transform="rotate(-21.6 175.473 317.046)"/>
    <path d="m174.18 330.94-8.61 12.63-34.45 1.14-41.62 72.62s-12.91-19.8-12.91-29.27v-.29a37.63 37.63 0 0 1 6.6-21.07L120.5 312h43.63Z" style="fill:#fff;stroke:#263238;stroke-linecap:round;stroke-linejoin:round"/>
    <path d="M174.18 330.94h-65.73" style="fill:none;stroke:#263238;stroke-linecap:round;stroke-linejoin:round"/>
    <path d="M133.13 305.05h21.53v6.89h-21.53zM89.69 391.51a5.47 5.47 0 0 1-4.7-8.28l21.51-36a5.47 5.47 0 1 1 9.4 5.61l-21.5 36a5.48 5.48 0 0 1-4.71 2.67ZM165.57 343.57l-7.87 13.99-27.61-11.05 7.85-13.07 27.63 10.13zM125.51 377.85h43.89v3.39h-43.89z" style="fill:#263238;stroke:#263238;stroke-linecap:round;stroke-linejoin:round"/>
    <path d="M125.51 381.39h28.37v10.17h-28.37z" style="fill:#fff;stroke:#263238;stroke-linecap:round;stroke-linejoin:round"/>
    <circle cx="112.22" cy="406.31" r="10.17" style="fill:#fff;stroke:#263238;stroke-linecap:round;stroke-linejoin:round" transform="rotate(-9.51 112.24 406.444)"/>
    <path d="M134.09 397.45a4.49 4.49 0 1 0-4.49 4.5 4.49 4.49 0 0 0 4.49-4.5Z" style="fill:#fff;stroke:#263238;stroke-linecap:round;stroke-linejoin:round"/>
  </g>
  <g transform="translate(25.386 -65.304)">
    <path d="M573.4 194.51v-3.79a3.51 3.51 0 0 1 3.51-3.51h25" style="fill:none;stroke:#263238;stroke-miterlimit:10;stroke-width:4px"/>
    <path d="M548.26 251.65a5.65 5.65 0 0 0 2.77 1.86c5.88 2.3 11.5 5.11 17.21 7.67l-18.79 8.44a2.2 2.2 0 0 0-1.45 1.9 2.14 2.14 0 0 0 1.43 2.21l18.81 8.44-18.79 8.43a2.22 2.22 0 0 0-1.45 1.86 2.13 2.13 0 0 0 1.43 2.18l20.9 9.38v29.56h6v-21c0-2.71.95-5.43.26-8.13-1-4-6-5.61-10.17-7.45l-9.51-4.21-.31-.14 18.27-8.19c1.4-.63 2.65-1.12 2.37-2.61-.34-1.79-3.75-2.52-5.52-3.33l-6.26-2.81-6.16-2.76a16.46 16.46 0 0 0-2.77-1.25l7.5-3.36 5.87-2.64c1.3-.58 2.54-1.25 3.87-1.79 1.13-.45 2.73-1.07 3.31-2 .78-1.25-.79-2.24-2.05-2.85-1.72-.82-3.52-1.6-5.27-2.39l-6-2.68-5.28-2.37a13.32 13.32 0 0 0-2.2-1q9.2-4.12 18.42-8.24l.16-.07c1.5-.69 2.75-1.56 2.22-3-.64-1.69-3.48-2.11-5.26-2.91l-5.75-2.58-9.17-4.12-.11-.05 8.8-3.95c2.31-1 4.79-1.66 7.11-2.71 2.6-1.17 4.23-2 4.23-4.73v-10.43h-6v10.23c0 .47-5.19 2.33-5.74 2.58-4.69 2.11-9.43 4.15-14.18 6.19a8.49 8.49 0 0 0-2.21 1.19c-1.37 1.16-.89 2.72.64 3.64a47.75 47.75 0 0 0 4.61 2l6.2 2.78 5.6 2.51a14 14 0 0 0 2.36 1.06c-6 2.71-12.08 5.36-18.07 8.11-1.64.76-2.82 2.03-1.88 3.53Z" style="fill:#fff;stroke:#263238;stroke-linecap:round;stroke-linejoin:round"/>
    <path d="m556.82 229.64-4.03 1.39M568.24 240l3.69-1.93M556.31 250.59l-3.52 1.56M568.24 261.18l4.01-1.75M556.53 271.67l-3.12 1.61M568.24 282.17l3.69-1.85" style="fill:none;stroke:#263238;stroke-miterlimit:10"/>
    <path d="M581.53 194.65h-15.14v2.83h2.2v8.33c0 1.13 1.23 2.05 2.74 2.05h5.25c1.51 0 2.74-.92 2.74-2.05v-8.33h2.21Z" style="fill:#fff;stroke:#263238;stroke-linecap:round;stroke-linejoin:round"/>
    <path d="M606.52 149.2h11.14v5.2h-11.14z" style="fill:#263238;stroke:#263238;stroke-miterlimit:10"/>
    <path d="M597.17 181.71h7.31v12.62h-7.31z" style="fill:#fff;stroke:#263238;stroke-miterlimit:10"/>
    <path d="M640.69 232.57h-20.28v-63.69a8.32 8.32 0 0 0-4.38-7.33v-7.28h-7.87v7.28a8.33 8.33 0 0 0-4.39 7.33v78.61a8.32 8.32 0 1 0 16.64 0v-10h22.37a29.11 29.11 0 0 1-2.09-4.92Z" style="fill:#fff;stroke:#263238;stroke-linecap:round;stroke-linejoin:round"/>
    <path d="M614.77 220.37c-.11-.81-1.22-1.14-1.79-1.51l-2-1.27-2.9-1.81 2.44-1.52 1.91-1.2c.42-.26.82-.56 1.26-.8a2.44 2.44 0 0 0 1.07-.92c.25-.56-.26-1-.67-1.28s-1.14-.73-1.71-1.09l-1.94-1.21-1.71-1.07a4.05 4.05 0 0 0-.72-.45l6-3.72h.06c.49-.32.89-.71.72-1.35s-1.13-1-1.71-1.32l-1.87-1.17-3-1.88L611 195c.75-.47 1.55-.75 2.3-1.22s1.38-.89 1.38-2.14v-2.89a1.83 1.83 0 0 0-1.83-1.83h-9.09v2.39h7.14a1.83 1.83 0 0 1 1.83 1.83v.41c0 .21-1.69 1.06-1.86 1.17q-2.29 1.43-4.61 2.8a2.72 2.72 0 0 0-.72.54 1.13 1.13 0 0 0 .21 1.64 14 14 0 0 0 1.49.9l2 1.26 1.82 1.14c.06 0 .7.52.77.48-2 1.22-3.93 2.42-5.87 3.66a1.25 1.25 0 0 0-.63 1.6 2 2 0 0 0 .9.84c1.92 1.05 3.74 2.32 5.6 3.47l-6.11 3.82a1.15 1.15 0 0 0 0 1.86l6.11 3.81-6.11 3.82a1 1 0 0 0-.47.84 1 1 0 0 0 .47 1l6.79 4.25v13.37h2v-9.52a20.46 20.46 0 0 0 .08-3.67c-.32-1.79-1.95-2.54-3.3-3.37l-3.09-1.9-.1-.07 5.93-3.7c.43-.33.83-.59.74-1.22Z" style="fill:#fff;stroke:#263238;stroke-miterlimit:10"/>
    <path d="M664.29 171.56h8.39v19.47h-8.39z" style="fill:#263238;stroke:#263238;stroke-linecap:round;stroke-linejoin:round"/>
    <path d="M675 195.14V180.2h-12.88v14.94a29.23 29.23 0 0 0-.8 56.84v12.36a3 3 0 0 0 3 3.05h8.33a3.06 3.06 0 0 0 3-3.05V252a29.23 29.23 0 0 0-.8-56.84Z" style="fill:#fff;stroke:#263238;stroke-linecap:round;stroke-linejoin:round"/>
    <path d="M659.81 176.09h17.41v6.57h-17.41z" style="fill:#0a3d62;stroke:#263238;stroke-linecap:round;stroke-linejoin:round"/>
    <path d="m597.49 378.51-14.32-55.61v-15.2H562.9v15.2l-14.31 55.61a5.9 5.9 0 0 0 5.71 7.37h37.48a5.9 5.9 0 0 0 5.71-7.37Z" style="fill:#fff;stroke:#263238;stroke-linecap:round;stroke-linejoin:round"/>
    <path d="M585.77 350.41h-25.46l-7.52 29.18a1.52 1.52 0 0 0 .28 1.34 1.5 1.5 0 0 0 1.23.6h37.48a1.54 1.54 0 0 0 1.5-1.94Z" style="stroke: rgb(38, 50, 56); stroke-linecap: round; stroke-linejoin: round; fill: rgb(43, 129, 83);"/>
    <path d="M536.7 385.97h73.76v7.44H536.7z" style="fill:#263238;stroke:#263238;stroke-linecap:round;stroke-linejoin:round"/>
    <path d="m545.38 392.78-8.06 44.02M601.78 392.78l8.06 44.02" style="fill:none;stroke:#263238;stroke-linecap:round;stroke-linejoin:round;stroke-width:3px"/>
    <path d="M682.7 275.67v-11.81a5.61 5.61 0 0 0-5.61-5.61h-16.42a5.61 5.61 0 0 0-5.61 5.61v11.44a29.22 29.22 0 1 0 27.64.37Z" style="fill:#fff;stroke:#263238;stroke-linecap:round;stroke-linejoin:round"/>
    <circle cx="668.44" cy="385.01" r="52.07" style="fill:#fff;stroke:#263238;stroke-linecap:round;stroke-linejoin:round" transform="rotate(-63.94 668.467 385.014)"/>
    <path d="M 656.2 330.32 L 679.87 330.32 L 679.87 335.49 L 656.2 335.49 L 656.2 330.32 Z M 620.37 380 C 616.088 417.089 653.562 444.905 687.823 430.068 C 707.44 421.573 719.182 401.236 716.73 380 L 620.37 380 Z" style="stroke: rgb(38, 50, 56); stroke-linecap: round; stroke-linejoin: round; fill: rgb(255, 179, 88); paint-order: stroke;"/>
    <path d="M661.93 401.52a3.63 3.63 0 1 1-3.63-3.62 3.64 3.64 0 0 1 3.63 3.62ZM647.44 403.79a3.17 3.17 0 1 1-3.17-3.17 3.17 3.17 0 0 1 3.17 3.17ZM667.81 389.07a2.94 2.94 0 1 1-2.94-2.94 2.94 2.94 0 0 1 2.94 2.94Z" style="fill:none;stroke:#263238;stroke-miterlimit:10"/>
    <circle cx="672.11" cy="406.73" r="2.49" style="fill:none;stroke:#263238;stroke-miterlimit:10"/>
    <path d="M654.23 417.14a2 2 0 1 1-2-2 2 2 0 0 1 2 2Z" style="fill:none;stroke:#263238;stroke-miterlimit:10"/>
  </g>
  <path d="M217.78 420.58h6.42v4.19h-6.42z" style="fill:#fff;stroke:#263238;stroke-linecap:round;stroke-linejoin:round" transform="translate(0 -65)"/>
  <path d="M297.05 437.95H189.43l10.76-15.99h86.1l10.76 15.99zM203.26 411.39h80.24v10.3h-80.24z" style="fill:#fff;stroke:#263238;stroke-linecap:round;stroke-linejoin:round" transform="translate(0 -65)"/>
  <path d="M208.92 418.09h6.1v3.7h-6.1zM271.43 418.09h6.1v3.7h-6.1z" style="fill:#263238;stroke:#263238;stroke-linecap:round;stroke-linejoin:round" transform="translate(0 -65)"/>
  <path d="M243.46 402.84h6.23v4.07h-6.23z" style="fill:#fff;stroke:#263238;stroke-linecap:round;stroke-linejoin:round" transform="translate(0 -65)"/>
  <path d="M240.64 352.1h7.89v8.38h-7.89z" style="fill:#263238;stroke:#263238;stroke-linecap:round;stroke-linejoin:round" transform="translate(0 -65)"/>
  <path d="m266.07 406.08-17.48-32.51v-15.31h-8.13v15.31L223 406.08a3.61 3.61 0 0 0 3.32 5h36.46a3.61 3.61 0 0 0 3.29-5Z" style="fill:#fff;stroke:#263238;stroke-linecap:round;stroke-linejoin:round" transform="translate(0 -65)"/>
  <path d="M256.88 394.85h-24.7l-5.18 9.73a3 3 0 0 0 2.7 4.11h29.7a3 3 0 0 0 2.71-4.11Z" style="stroke: rgb(38, 50, 56); stroke-linecap: round; stroke-linejoin: round; fill: rgb(101, 201, 255);" transform="translate(0 -65)"/>
  <path d="M341.04 269.31h20.55v6.84h-20.55z" style="fill:#263238;stroke:#263238;stroke-linecap:round;stroke-linejoin:round" transform="translate(0 -65)"/>
  <path d="M361.41 292.89v-16.74H341v16.74a26.25 26.25 0 0 0-16 24.19c0 11.43 16.3 28.05 23.18 34.56a4.38 4.38 0 0 0 6 0c6.89-6.51 23.18-23.13 23.18-34.56a26.25 26.25 0 0 0-15.95-24.19Z" style="fill:#fff;stroke:#263238;stroke-linecap:round;stroke-linejoin:round" transform="translate(0 -65)"/>
  <path d="M329 320.62c2.78 9.52 14.31 21.24 19.56 26.2a3.81 3.81 0 0 0 5.24 0c5.25-5 16.79-16.68 19.56-26.2Z" style="fill:#0a3d62;stroke:#263238;stroke-linecap:round;stroke-linejoin:round" transform="translate(0 -65)"/>
  <path d="M320.1 326.89h72.53v4.29H320.1z" style="fill:#fff;stroke:#263238;stroke-linecap:round;stroke-linejoin:round" transform="translate(0 -65)"/>
  <path d="M315.92 330.86h196.24v4.29H315.92z" style="fill:#fff;stroke:#263238;stroke-linecap:round;stroke-linejoin:round" transform="rotate(90 446.54 300.5)"/>
  <path d="M392.63 329.03h39.81" style="fill:none;stroke:#263238;stroke-linecap:round;stroke-linejoin:round;stroke-width:2px" transform="translate(0 -65)"/>
  <path d="M420.29 329.39a6.43 6.43 0 1 0-6.43 6.43 6.43 6.43 0 0 0 6.43-6.43ZM383.12 430.22h60.91v7.73h-60.91z" style="fill:#263238;stroke:#263238;stroke-linecap:round;stroke-linejoin:round" transform="translate(0 -65)"/>
  <path d="M244.59 356.29v-1.57a12.47 12.47 0 0 1 12.47-12.47h34.51a11.17 11.17 0 0 0 11.17-11.17v-66.27a9.79 9.79 0 0 1 9.8-9.79H343a9 9 0 0 1 9 9v8.7" style="fill:none;stroke:#263238;stroke-linecap:round;stroke-linejoin:round;stroke-width:4px" transform="translate(0 -65)"/>
  <path d="M315.08 407.79v-51.13h-10.8v51.13a15.57 15.57 0 1 0 10.8 0Z" style="fill:#fff;stroke:#263238;stroke-miterlimit:10" transform="translate(0 -65)"/>
  <path d="M296.35 418.44a13.91 13.91 0 1 0 26.66 0Z" style="fill:#0a3d62;stroke:#263238;stroke-linecap:round;stroke-linejoin:round" transform="translate(0 -65)"/>
  <path d="M467.1 381h8.68v50.65a4 4 0 0 1-4 4h-.62a4 4 0 0 1-4-4V381h-.06Z" style="fill:#fff;stroke:#263238;stroke-linecap:round;stroke-linejoin:round" transform="translate(0 -65)"/>
  <path d="M467.1 397.52v33.86a4.35 4.35 0 0 0 8.69 0v-33.86Z" style="stroke: rgb(38, 50, 56); stroke-linecap: round; stroke-linejoin: round; fill: rgb(255, 179, 88);" transform="translate(0 -65)"/>
  <path d="M465.57 379.76h11.75v8.17h-11.75z" style="fill:#263238;stroke:#263238;stroke-linecap:round;stroke-linejoin:round" transform="translate(0 -65)"/>
  <path d="M488.33 435.72h0a4.34 4.34 0 0 1-4.34-4.34V381h8.69v50.34a4.34 4.34 0 0 1-4.35 4.38Z" style="fill:#fff;stroke:#263238;stroke-linecap:round;stroke-linejoin:round" transform="translate(0 -65)"/>
  <path d="M484 397.52v33.86a4.35 4.35 0 0 0 8.69 0v-33.86Z" style="fill:#0a3d62;stroke:#263238;stroke-linecap:round;stroke-linejoin:round" transform="translate(0 -65)"/>
  <path d="M482.46 379.76h11.75v8.17h-11.75zM505.22 435.72h0a4.34 4.34 0 0 1-4.34-4.34V381h8.68v50.34a4.34 4.34 0 0 1-4.34 4.38Z" style="fill:#fff;stroke:#263238;stroke-linecap:round;stroke-linejoin:round" transform="translate(0 -65)"/>
  <path d="M500.88 397.52v33.86a4.34 4.34 0 0 0 4.34 4.34h0a4.34 4.34 0 0 0 4.34-4.34v-33.86Z" style="stroke: rgb(38, 50, 56); stroke-linecap: round; stroke-linejoin: round; fill: rgb(43, 129, 83);" transform="translate(0 -65)"/>
  <path d="M499.35 379.76h11.75v8.17h-11.75z" style="fill:#263238;stroke:#263238;stroke-linecap:round;stroke-linejoin:round" transform="translate(0 -65)"/>
  <path d="M522.11 435.72h0a4.34 4.34 0 0 1-4.34-4.34V381h8.68v50.34a4.34 4.34 0 0 1-4.34 4.38Z" style="fill:#fff;stroke:#263238;stroke-linecap:round;stroke-linejoin:round" transform="translate(0 -65)"/>
  <path d="M517.77 397.52v33.86a4.34 4.34 0 0 0 8.68 0v-33.86Z" style="stroke: rgb(38, 50, 56); stroke-linecap: round; stroke-linejoin: round; fill: rgb(101, 201, 255);" transform="translate(0 -65)"/>
  <path d="M516.24 379.76h11.75v8.17h-11.75zM535.33 392.34H459.7v2.57h75.63v36.8h-79.3v6.24h84.44v-45.61h-5.14z" style="fill:#fff;stroke:#263238;stroke-linecap:round;stroke-linejoin:round" transform="translate(0 -65)"/>
  <path d="M58.8 234.68H32.33l2.01 6.07v196.62h22.73V240.66l.08-.03 1.65-5.95z" style="fill:#fff;stroke:#263238;stroke-miterlimit:10" transform="translate(0 -65)"/>
  <path d="M25.24 432.66h40.94v5.29H25.24z" style="fill:#fff;stroke:#263238;stroke-miterlimit:10" transform="translate(0 -65)"/>
  <path d="M37.62 250.21h4.94M37.62 257.98h4.94M37.62 265.74h4.94M37.62 273.5h4.94M37.62 281.27h4.94M37.62 289.03h4.94M37.62 296.79h4.94M37.62 304.56h4.94M37.62 312.32h4.94M37.62 320.09h4.94M37.62 327.85h4.94M37.62 335.61h4.94M37.62 343.38h4.94M37.62 351.14h4.94M37.62 358.9h4.94M37.62 366.67h4.94M37.62 374.43h4.94M37.62 382.2h4.94M37.62 389.96h4.94M37.62 397.72h4.94M37.62 405.49h4.94M37.62 413.25h4.94M37.62 421.02h4.94M37.62 428.78h4.94" style="fill:none;stroke:#263238;stroke-linecap:round;stroke-linejoin:round" transform="translate(0 -65)"/>
  <g transform="translate(0 -65)">
    <path d="m70.39 168.6 6.94 12.03h24.31l12.15-21.05-12.15-21.05H77.33l-12.15 21.05 3.53 6.11M129.39 201.89h8.68l12.15-21.05-12.15-21.05h-24.31l-12.15 21.05 12.15 21.05h12.46M101.46 180.64H77.15L65 201.69l12.15 21.05h24.31l12.15-21.05-12.15-21.05zM138.07 159.79l6.23-13.41M138.07 201.89l10.33 19.76M65.18 159.58H44.43M114.15 120.81l2.2-3.12M101.64 138.53l10.61-15.03M77.15 222.74 65.3 236.19" style="fill:none;stroke:#263238;stroke-miterlimit:10"/>
    <path d="M 299.56 118.53 C 293.517 118.522 289.732 125.059 292.747 130.296 C 295.762 135.534 303.315 135.543 306.343 130.314 C 307.035 129.118 307.4 127.761 307.4 126.38 C 307.4 122.048 303.892 118.536 299.56 118.53 Z" style="fill:#263238"/>
    <path d="M 343.64 135.197 C 343.64 133.503 341.849 132.129 339.64 132.129 C 339.197 132.132 338.758 132.192 338.34 132.306 C 337.15 130.287 335.815 128.32 334.34 126.415 C 343.69 114.32 345.75 102.639 338.17 96.841 C 333.49 93.252 325.9 92.477 317.06 94.103 C 312.31 88.159 306.23 84.585 299.61 84.585 C 296.542 84.601 293.548 85.308 291 86.617 C 288.895 84.878 285.125 85.54 284.214 87.808 C 283.791 88.86 284.133 90.006 285.11 90.813 C 284.016 91.849 283.014 92.941 282.11 94.08 C 273.27 92.454 265.68 93.229 261 96.818 C 253.42 102.624 255.48 114.282 264.81 126.369 C 262.257 129.61 260.161 133.05 258.56 136.631 C 257.346 139.307 256.61 142.096 256.37 144.922 C 253.272 145.02 251.473 147.653 253.132 149.663 C 253.902 150.595 255.262 151.142 256.7 151.096 C 256.881 151.092 257.061 151.079 257.24 151.058 C 257.947 152.907 259.239 154.593 261 155.967 C 264.1 158.352 268.51 159.556 273.88 159.556 C 276.663 159.533 279.432 159.257 282.13 158.735 C 286.88 164.656 292.95 168.215 299.56 168.215 C 306.17 168.215 312.27 164.641 317.02 158.697 C 319.723 159.215 322.495 159.49 325.28 159.518 C 330.53 159.518 334.98 158.375 338.12 155.967 C 343.19 152.078 343.95 145.582 341.12 138.081 C 342.657 137.612 343.658 136.466 343.64 135.197 Z M 325.21 93.988 C 330.21 93.988 334.44 95.069 337.41 97.347 C 344.62 102.877 342.64 113.998 333.72 125.648 C 331.54 122.922 329.128 120.309 326.5 117.825 C 325.24 108.675 322.01 100.622 317.5 94.724 C 320.025 94.255 322.612 94.008 325.21 93.988 Z M 318.31 140.773 C 312.678 145.135 306.383 148.961 299.56 152.17 C 292.74 148.961 286.445 145.137 280.81 140.781 C 278.266 138.83 275.853 136.783 273.58 134.645 C 272.86 129.157 272.86 123.628 273.58 118.14 C 275.852 116.001 278.265 113.953 280.81 112.004 C 286.443 107.65 292.738 103.831 299.56 100.63 C 306.382 103.831 312.677 107.65 318.31 112.004 C 320.856 113.952 323.269 116 325.54 118.14 C 326.26 123.628 326.26 129.157 325.54 134.645 C 323.266 136.777 320.853 138.82 318.31 140.765 L 318.31 140.773 Z M 325.31 136.025 C 323.96 144.7 320.83 152.316 316.54 157.869 C 310.918 156.685 305.534 154.914 300.54 152.607 C 307.247 149.407 313.442 145.615 319 141.31 C 321.27 139.577 323.37 137.805 325.33 136.018 L 325.31 136.025 Z M 298.6 152.592 C 294.571 154.43 290.305 155.944 285.87 157.109 C 284.73 157.401 283.62 157.646 282.53 157.876 C 278.25 152.324 275.12 144.715 273.77 136.041 C 275.77 137.828 277.83 139.6 280.08 141.333 C 285.665 145.626 291.888 149.403 298.62 152.584 L 298.6 152.592 Z M 272.43 133.556 C 270.078 131.269 267.911 128.874 265.94 126.385 C 267.915 123.895 270.086 121.501 272.44 119.213 C 272.17 121.514 272.02 123.946 272.02 126.392 C 272.02 128.839 272.19 131.217 272.45 133.548 L 272.43 133.556 Z M 273.77 116.751 C 275.12 108.085 278.25 100.476 282.53 94.924 C 288.173 96.101 293.574 97.874 298.58 100.193 C 291.856 103.378 285.646 107.163 280.08 111.467 C 277.867 113.18 275.77 114.939 273.79 116.744 L 273.77 116.751 Z M 300.5 100.193 C 305.506 97.874 310.907 96.101 316.55 94.924 C 320.83 100.476 323.96 108.085 325.31 116.759 C 323.31 114.964 321.25 113.193 319 111.467 C 313.439 107.163 307.236 103.376 300.52 100.185 L 300.5 100.193 Z M 326.66 119.19 C 329.01 121.478 331.178 123.873 333.15 126.362 C 331.18 128.849 329.013 131.241 326.66 133.525 C 326.93 131.224 327.08 128.808 327.08 126.362 C 327.08 123.915 326.93 121.545 326.66 119.19 Z M 285.83 91.273 C 286.486 91.604 287.255 91.78 288.04 91.779 C 290.249 91.779 292.04 90.405 292.04 88.711 C 292.037 88.202 291.869 87.701 291.55 87.254 C 293.919 86.037 296.699 85.376 299.55 85.352 C 305.78 85.352 311.55 88.703 316.04 94.295 C 310.239 95.529 304.69 97.375 299.55 99.778 C 294.409 97.376 288.86 95.531 283.06 94.295 C 283.897 93.242 284.822 92.233 285.83 91.273 Z M 261.7 97.347 C 264.7 95.046 268.9 93.988 273.91 93.988 C 276.506 94.019 279.09 94.276 281.61 94.755 C 277.11 100.653 273.88 108.706 272.61 117.848 C 269.976 120.329 267.558 122.94 265.37 125.664 C 256.48 113.983 254.51 102.869 261.7 97.347 Z M 261.7 155.414 C 260.068 154.141 258.87 152.579 258.21 150.866 C 261.107 150.066 261.788 147.161 259.436 145.636 C 258.849 145.256 258.132 145.014 257.37 144.938 C 257.608 142.187 258.328 139.473 259.51 136.869 C 261.026 133.47 262.997 130.201 265.39 127.113 C 267.576 129.841 269.991 132.457 272.62 134.944 C 273.88 144.086 277.11 152.14 281.62 158.038 C 273 159.587 266 158.697 261.7 155.414 Z M 299.56 167.441 C 293.34 167.441 287.63 164.104 283.1 158.544 C 284.1 158.337 285.1 158.099 286.21 157.83 C 290.883 156.6 295.372 154.99 299.6 153.029 C 304.729 155.423 310.265 157.264 316.05 158.498 C 311.52 164.089 305.79 167.441 299.56 167.441 Z M 337.41 155.414 C 333.01 158.797 325.87 159.533 317.51 158.038 C 322.01 152.147 325.24 144.094 326.51 134.944 C 329.138 132.458 331.55 129.842 333.73 127.113 C 335.09 128.887 336.325 130.715 337.43 132.589 C 334.772 133.781 334.792 136.733 337.467 137.903 C 338.119 138.188 338.861 138.327 339.61 138.303 C 339.808 138.296 340.004 138.28 340.2 138.257 C 343 145.475 342.25 151.71 337.41 155.414 Z" style="fill: rgb(38, 50, 56);"/>
    <path d="M401.65 168.3c6.1 3.55 13.68 4.64 22.18 3.11a51.66 51.66 0 0 0 12.76-4.08l.16-.08.11-.05.11-.06.15-.07a52.41 52.41 0 0 0 11-7.68c6.37-5.84 10.1-12.52 11-19.53 6.11 3.55 13.69 4.63 22.19 3.11a50.86 50.86 0 0 0 13.28-4.34l-1.85-3.55a44.07 44.07 0 0 1-6 2.38l-12.86-26a45.45 45.45 0 0 1 5.54-3.34l-1.7-3.62a50.76 50.76 0 0 0-11.51 7.94c-6.36 5.83-10.1 12.52-11 19.53-6.11-3.56-13.69-4.64-22.18-3.11a52.17 52.17 0 0 0-12.82 4.14l-.13.06-.11.06-.11.06-.14.06a52.14 52.14 0 0 0-11 7.69c-6.37 5.84-10.1 12.52-11 19.53-6.1-3.55-13.68-4.63-22.18-3.11a51 51 0 0 0-13.29 4.34l1.86 3.55a41.79 41.79 0 0 1 5-2.07l13 26.23a43.39 43.39 0 0 1-4.7 2.77l1.7 3.62a50.82 50.82 0 0 0 11.5-7.94c6.39-5.85 10.16-12.54 11.04-19.55Zm13.56-27.51 12.65 25.55a43 43 0 0 1-9.07 1.64L408.4 147a42.69 42.69 0 0 1 6.81-6.21Zm6.54-4.1a37.67 37.67 0 0 1 3.69-1.56l13.12 26.49c-1.83 1.15-3.17 1.84-3.55 2a43.84 43.84 0 0 1-4.85 2l-13-26.21a43.07 43.07 0 0 1 4.59-2.72Zm18.8 23.59-12.84-25.93a44.56 44.56 0 0 1 10.33-2l10.39 21a44 44 0 0 1-7.88 6.93Zm43.81-22.14a43.37 43.37 0 0 1-7.77 1.36l-10.51-21.22a43.63 43.63 0 0 1 5.79-5.36Zm-19.94-17.85L474 139.6a24.46 24.46 0 0 1-15-4.6 24.46 24.46 0 0 1 5.42-14.71Zm-9.15 16.56a24.36 24.36 0 0 1-5.2 14.41l-9.41-19a24.32 24.32 0 0 1 14.61 4.59Zm-48.52 12.2 9.42 19a24.27 24.27 0 0 1-14.61-4.61 24.3 24.3 0 0 1 5.19-14.39Zm-8.91 16.24a24.29 24.29 0 0 1-5.14 14.33l-9.38-18.93a24.2 24.2 0 0 1 14.52 4.6Zm-26.51-2.82a43.75 43.75 0 0 1 9.37-1.72l10.35 20.91a43.14 43.14 0 0 1-7 6.43Z" style="fill:none;stroke:#263238;stroke-miterlimit:10"/>
    <circle cx="477.01" cy="233.51" r="12.82" style="fill:none;stroke:#263238;stroke-miterlimit:10" transform="rotate(-76.64 477.026 233.51)"/>
    <path d="M525.17 192.28a6.93 6.93 0 1 1-6.93-6.93 6.93 6.93 0 0 1 6.93 6.93ZM468.35 194a4.51 4.51 0 1 1-4.51-4.51 4.51 4.51 0 0 1 4.51 4.51Z" style="fill:none;stroke:#263238;stroke-miterlimit:10"/>
    <circle cx="517.54" cy="280.29" r="5.54" style="fill:none;stroke:#263238;stroke-miterlimit:10"/>
    <circle cx="442.01" cy="258.11" r="4.85" style="fill:none;stroke:#263238;stroke-miterlimit:10"/>
    <circle cx="475.5" cy="267.51" r="4.85" style="fill:none;stroke:#263238;stroke-miterlimit:10"/>
    <path d="M451.33 227.77a10.29 10.29 0 1 1 2.67-3.47" style="fill:none;stroke:#263238;stroke-miterlimit:10"/>
    <circle cx="522.69" cy="210.06" r="4.46" style="fill:none;stroke:#263238;stroke-miterlimit:10"/>
    <path d="m465.35 198.16 6.94 22.63M505.38 206.05l8.36-8.78M487.3 225.05l15.82-16.62M484.74 243.47l28.33 32.66M446.08 254.84l21.06-12.99M239.89 241.32c-1.17-5.94-1.93-7.19-6.53-10.75l13.51-23.37c10.2 3.44 22.23 24 19.91 34.12ZM221 251.92c4.71 2.18 6.19 2.22 12.32.4l13.52 23.39c-11.53 7.08-28.14 6.88-39.39-.35ZM207.45 207.51c4.5 7.78 9 15.58 13.36 23.12a36 36 0 0 0-4 4.86 34.5 34.5 0 0 0-2.08 5.84H188c-1.26-11.57 9-29.51 19.45-33.82ZM227.38 249.42a7.91 7.91 0 0 1 .11-15.81 7.91 7.91 0 1 1-.11 15.81Z" style="fill:none;stroke:#263238;stroke-miterlimit:10"/>
  </g>
  <g transform="matrix(1, 0, 0, 1, -2, 4)">
    <path d="M121.19 92.56c4 8.44 15.68 14.56 29.48 14.56s25.5-6.12 29.49-14.56Z" style="fill:#fff;stroke:#263238;stroke-linecap:round;stroke-linejoin:round" transform="translate(69.406 -17.188) scale(.87273)"/>
    <path d="M150.52 74.99 100.76 95.8h99.52l-49.76-20.81z" style="fill:#263238;stroke:#263238;stroke-linecap:round;stroke-linejoin:round" transform="translate(69.406 -17.188) scale(.87273)"/>
    <path d="M136.41 67.07h28.22v16.38h-28.22z" style="fill:#263238;stroke:#263238;stroke-linecap:round;stroke-linejoin:round" transform="translate(69.406 -17.188) scale(.87273)"/>
    <path d="M150.52 67.98V27.02" style="fill:none;stroke:#263238;stroke-linecap:round;stroke-linejoin:round;stroke-width:4px" transform="translate(69.406 -17.188) scale(.87273)"/>
    <path d="M538.12 92.56c4 8.44 15.67 14.56 29.48 14.56s25.5-6.12 29.48-14.56Z" style="fill:#fff;stroke:#263238;stroke-linecap:round;stroke-linejoin:round" transform="translate(69.406 -17.188) scale(.87273)"/>
    <path d="M567.45 74.99 517.69 95.8h99.52l-49.76-20.81z" style="fill:#263238;stroke:#263238;stroke-linecap:round;stroke-linejoin:round" transform="translate(69.406 -17.188) scale(.87273)"/>
    <path d="M553.34 67.07h28.22v16.38h-28.22z" style="fill:#263238;stroke:#263238;stroke-linecap:round;stroke-linejoin:round" transform="translate(69.406 -17.188) scale(.87273)"/>
    <path d="M567.45 67.98V27.02" style="fill:none;stroke:#263238;stroke-linecap:round;stroke-linejoin:round;stroke-width:4px" transform="translate(69.406 -17.188) scale(.87273)"/>
  </g>
  <rect x="681.844" y="265.307" width="23.96" height="5.026" style="stroke: rgb(0, 0, 0);"/>
</svg>