<svg xmlns="http://www.w3.org/2000/svg" xml:space="preserve" width="544.783" height="161.998" viewBox="0 0 144.141 42.862"><g transform="translate(-36.504 -186.713)"><g aria-label="WeLearn" style="font-size:21.1667px;letter-spacing:-.132292px;fill:#0693d9;fill-opacity:1;stroke-width:.529167"><path d="m103.984 204.622-4.91-14.817h2.857l4.381 13.398h-1.418l4.551-13.398h2.54l4.424 13.398h-1.376l4.487-13.398h2.625l-4.91 14.817h-2.922l-4.042-12.087h.762l-4.107 12.087zM128.469 204.77q-1.884 0-3.302-.741-1.397-.762-2.18-2.074-.762-1.313-.762-2.985 0-1.693.74-2.985.762-1.312 2.075-2.053 1.333-.74 3.027-.74 1.65 0 2.942.72 1.29.719 2.032 2.031.74 1.312.74 3.09 0 .17-.02.382 0 .211-.022.402h-9.42v-1.757h8.023l-1.037.55q.021-.974-.402-1.714-.424-.741-1.164-1.165-.72-.423-1.673-.423-.973 0-1.714.423-.72.424-1.143 1.186-.402.74-.402 1.757v.423q0 1.016.465 1.8.466.782 1.313 1.206.846.423 1.947.423.953 0 1.715-.296.762-.297 1.354-.932l1.418 1.63q-.762.89-1.926 1.376-1.143.466-2.624.466zM136.443 204.622v-14.817h2.752v12.488h7.747v2.329zM153.938 204.77q-1.884 0-3.302-.741-1.397-.762-2.18-2.074-.762-1.313-.762-2.985 0-1.693.74-2.985.763-1.312 2.075-2.053 1.334-.74 3.027-.74 1.651 0 2.942.72 1.291.719 2.032 2.031.741 1.312.741 3.09 0 .17-.021.382 0 .211-.021.402h-9.42v-1.757h8.023l-1.038.55q.022-.974-.402-1.714-.423-.741-1.164-1.165-.72-.423-1.672-.423-.974 0-1.715.423-.72.424-1.143 1.186-.402.74-.402 1.757v.423q0 1.016.466 1.8.466.782 1.312 1.206.847.423 1.948.423.952 0 1.714-.296.762-.297 1.355-.932l1.418 1.63q-.762.89-1.926 1.376-1.143.466-2.625.466zM168.305 204.622v-2.287l-.148-.486v-4q0-1.165-.699-1.8-.698-.656-2.116-.656-.953 0-1.884.296-.91.296-1.545.826l-1.037-1.927q.91-.698 2.159-1.037 1.27-.36 2.624-.36 2.456 0 3.79 1.186 1.354 1.164 1.354 3.62v6.625zm-3.556.148q-1.27 0-2.222-.424-.953-.444-1.482-1.206-.508-.783-.508-1.757 0-.953.444-1.715.466-.762 1.503-1.206 1.037-.445 2.752-.445h3.28v1.757h-3.09q-1.354 0-1.82.445-.466.423-.466 1.058 0 .72.572 1.143.571.423 1.587.423.974 0 1.736-.444.783-.445 1.122-1.312l.444 1.587q-.38.995-1.375 1.545-.974.55-2.477.55zM174.057 204.622v-11.304h2.519v3.112l-.296-.91q.508-1.143 1.587-1.736 1.1-.593 2.73-.593v2.52q-.169-.043-.317-.043-.148-.021-.296-.021-1.503 0-2.392.889-.889.868-.889 2.603v5.483zM182.704 204.622v-11.304h2.52v3.048l-.445-.93q.592-1.08 1.714-1.652 1.143-.593 2.625-.593 1.355 0 2.413.53 1.08.529 1.693 1.63.614 1.079.614 2.793v6.478h-2.646v-6.139q0-1.503-.72-2.244-.698-.74-1.968-.74-.931 0-1.651.38-.72.382-1.122 1.144-.38.74-.38 1.884v5.715z" style="font-weight:600;font-family:Montserrat;-inkscape-font-specification:&quot;Montserrat Semi-Bold&quot;;fill:#0693d9;fill-opacity:1" transform="matrix(1 0 0 1.07013 -13.193 -13.092)"/></g><ellipse cx="-156.366" cy="-150.066" rx="10.092" ry="22.994" style="fill:none;fill-opacity:1;stroke:#0a3d62;stroke-width:1.77128;stroke-dasharray:none;stroke-opacity:1" transform="rotate(-150)"/><ellipse cx="51.778" cy="-210.45" rx="10.092" ry="22.994" style="fill:none;fill-opacity:1;stroke:#0a3d62;stroke-width:1.77128;stroke-dasharray:none;stroke-opacity:1" transform="rotate(150)"/><ellipse cx="208.144" cy="-60.384" rx="10.092" ry="22.994" style="fill:none;fill-opacity:1;stroke:#0a3d62;stroke-width:1.77128;stroke-dasharray:none;stroke-opacity:1" transform="rotate(90)"/><circle cx="60.454" cy="208.512" r="5.932" style="fill:#0a3d62;fill-opacity:1;stroke:none;stroke-width:.765549;stroke-dasharray:none;stroke-opacity:1"/><ellipse cx="58.707" cy="207.005" rx=".926" ry="1.287" style="fill:#fff;fill-opacity:1;stroke:none;stroke-width:.902598;stroke-dasharray:none;stroke-opacity:1"/><path d="M63.939 209.68a3.959 4.869 0 0 1-3.584 2.801 3.959 4.869 0 0 1-3.583-2.8" style="fill:none;fill-opacity:1;stroke:#fff;stroke-width:.715093;stroke-dasharray:none;stroke-opacity:1"/><ellipse cx="62.353" cy="207.005" rx=".926" ry="1.287" style="fill:#fff;fill-opacity:1;stroke:none;stroke-width:.902598;stroke-dasharray:none;stroke-opacity:1"/><g aria-label="Science" style="font-size:23.2833px;letter-spacing:-.132292px;fill:#0a3d62;stroke-width:.529167"><path d="M106.027 225.52q-1.909 0-3.655-.536-1.746-.559-2.771-1.42l1.048-2.352q.978.769 2.421 1.28 1.444.513 2.957.513 1.28 0 2.072-.28.792-.279 1.165-.744.372-.49.372-1.095 0-.745-.535-1.187-.536-.466-1.397-.722-.839-.28-1.886-.512-1.025-.233-2.073-.536-1.024-.326-1.885-.815-.839-.512-1.374-1.35-.536-.838-.536-2.142 0-1.327.699-2.422.722-1.117 2.165-1.77 1.467-.674 3.702-.674 1.467 0 2.91.372 1.444.373 2.515 1.071l-.954 2.352q-1.095-.652-2.259-.955-1.164-.326-2.235-.326-1.257 0-2.049.303-.768.303-1.14.792-.35.489-.35 1.117 0 .745.512 1.211.536.442 1.374.698.861.257 1.909.513 1.048.233 2.072.535 1.048.303 1.886.792.862.489 1.374 1.327.535.838.535 2.119 0 1.304-.721 2.421-.699 1.095-2.166 1.77-1.467.652-3.702.652zM120.913 225.45q-1.956 0-3.493-.815-1.513-.838-2.375-2.282-.861-1.443-.861-3.283 0-1.862.861-3.283.862-1.443 2.375-2.258 1.537-.815 3.493-.815 1.816 0 3.19.745 1.396.722 2.118 2.142l-2.235 1.304q-.559-.885-1.374-1.304-.791-.42-1.723-.42-1.07 0-1.932.467-.862.465-1.35 1.35-.49.861-.49 2.072t.49 2.096q.488.861 1.35 1.327.861.466 1.932.466.932 0 1.723-.42.815-.419 1.374-1.303l2.235 1.303q-.722 1.397-2.119 2.166-1.373.745-3.19.745zM128.482 225.287v-12.433h2.91v12.433zm1.467-14.482q-.815 0-1.35-.513-.513-.512-.513-1.234 0-.745.512-1.234.536-.512 1.35-.512.816 0 1.328.49.535.465.535 1.187 0 .768-.512 1.303-.512.513-1.35.513zM140.923 225.45q-2.073 0-3.633-.815-1.536-.838-2.398-2.282-.838-1.443-.838-3.283 0-1.862.815-3.283.838-1.443 2.282-2.258 1.467-.815 3.33-.815 1.815 0 3.236.792 1.42.791 2.235 2.235.815 1.443.815 3.4 0 .185-.024.418 0 .233-.023.443h-10.36v-1.933h8.823l-1.14.605q.023-1.07-.443-1.886-.465-.814-1.28-1.28-.792-.466-1.84-.466-1.07 0-1.886.466-.791.466-1.257 1.304-.442.815-.442 1.932v.466q0 1.118.512 1.979t1.443 1.327q.932.466 2.142.466 1.048 0 1.886-.326.839-.326 1.49-1.025l1.56 1.793q-.838.978-2.118 1.514-1.258.512-2.887.512zM149.428 225.287v-12.433h2.771v3.352l-.489-1.024q.652-1.188 1.886-1.816 1.257-.652 2.887-.652 1.49 0 2.655.582 1.187.582 1.862 1.793.675 1.187.675 3.073v7.125h-2.91v-6.752q0-1.653-.792-2.468-.768-.815-2.165-.815-1.024 0-1.816.419t-1.234 1.257q-.42.815-.42 2.072v6.287zM170.98 225.45q-1.956 0-3.493-.815-1.513-.838-2.375-2.282-.861-1.443-.861-3.283 0-1.862.861-3.283.862-1.443 2.375-2.258 1.537-.815 3.493-.815 1.816 0 3.19.745 1.397.722 2.118 2.142l-2.235 1.304q-.559-.885-1.373-1.304-.792-.42-1.723-.42-1.071 0-1.933.467-.861.465-1.35 1.35-.49.861-.49 2.072t.49 2.096q.489.861 1.35 1.327.862.466 1.933.466.93 0 1.723-.42.814-.419 1.373-1.303l2.235 1.303q-.721 1.397-2.118 2.166-1.374.745-3.19.745zM184.338 225.45q-2.073 0-3.633-.815-1.536-.838-2.398-2.282-.838-1.443-.838-3.283 0-1.862.815-3.283.838-1.443 2.282-2.258 1.467-.815 3.33-.815 1.815 0 3.236.792 1.42.791 2.235 2.235.815 1.443.815 3.4 0 .185-.024.418 0 .233-.023.443h-10.36v-1.933h8.823l-1.14.605q.023-1.07-.443-1.886-.465-.814-1.28-1.28-.792-.466-1.84-.466-1.07 0-1.886.466-.791.466-1.257 1.304-.442.815-.442 1.932v.466q0 1.118.512 1.979t1.443 1.327q.932.466 2.142.466 1.048 0 1.886-.326.839-.326 1.49-1.025l1.56 1.793q-.838.978-2.118 1.514-1.258.512-2.887.512z" style="font-weight:600;font-family:Montserrat;-inkscape-font-specification:&quot;Montserrat Semi-Bold&quot;" transform="matrix(1 0 0 1.04663 -11.28 -8.73)"/></g></g></svg>