<svg xmlns="http://www.w3.org/2000/svg" xml:space="preserve" width="700" height="370" viewBox="54.29 101.43 700 370"><path d="M357.585 116.38c67.028-140.35-31.23-302.8-189.082-315.35a514.613 514.613 0 0 0-55.269-1.41c-160.302 4.45-211.461 52.27-251.267 60.05-39.806 7.78-128.462-23.38-172.805 8.87-44.343 32.25-98.31 179.88-.834 285.67 97.475 105.79 295.407-4 385.151 6.67 89.744 10.67 153.406 53.52 219.396 25.72 24.72-10.43 47.853-34.93 64.71-70.22z" style="opacity:1;fill:#f0f0f0;fill-rule:nonzero;stroke:none;stroke-width:1.0086;stroke-linecap:butt;stroke-linejoin:miter;stroke-miterlimit:4;stroke-dasharray:none;stroke-dashoffset:0" transform="matrix(.92669 0 0 .82728 399.075 293.796)" vector-effect="non-scaling-stroke"/><path stroke-linecap="round" d="M342.28 426.91h17.85v4.61h-17.85zm5.11-37.43h7.64v37.43h-7.64z" style="opacity:1;fill:#fff;fill-rule:nonzero;stroke:#263238;stroke-width:1;stroke-linecap:round;stroke-linejoin:round;stroke-miterlimit:4;stroke-dasharray:none;stroke-dashoffset:0" transform="matrix(.8773 0 0 .9177 68.033 62.772)" vector-effect="non-scaling-stroke"/><path stroke-linecap="round" d="M344.87 388.05h12.68v12.41h-12.68zm-15.51 43.19h43.7a5 5 0 0 1 5 5V438h-53.7v-1.71a5 5 0 0 1 5-5.05z" style="opacity:1;fill:#fff;fill-rule:nonzero;stroke:#263238;stroke-width:1;stroke-linecap:round;stroke-linejoin:round;stroke-miterlimit:4;stroke-dasharray:none;stroke-dashoffset:0" transform="matrix(.8773 0 0 .9177 68.024 62.781)" vector-effect="non-scaling-stroke"/><path stroke-linecap="round" d="M354.76 380.64c0 4.07-1.59 7.36-3.55 7.36-1.96 0-3.55-3.29-3.55-7.36s2.13-11.8 3.55-11.8 3.55 7.73 3.55 11.8z" style="opacity:1;fill:#0a3d62;fill-rule:nonzero;stroke:#263238;stroke-width:1;stroke-linecap:round;stroke-linejoin:round;stroke-miterlimit:4;stroke-dasharray:none;stroke-dashoffset:0" transform="matrix(.8773 0 0 .9177 68.024 62.772)" vector-effect="non-scaling-stroke"/><path stroke-linecap="round" d="M353.69 383.71c0 2.37-1.11 4.29-2.48 4.29-1.37 0-2.49-1.92-2.49-4.29s1.49-6.88 2.49-6.88c1 0 2.48 4.51 2.48 6.88z" style="opacity:1;fill:#fff;fill-rule:nonzero;stroke:#263238;stroke-width:1;stroke-linecap:round;stroke-linejoin:round;stroke-miterlimit:4;stroke-dasharray:none;stroke-dashoffset:0" transform="matrix(.8773 0 0 .9177 68.033 62.781)" vector-effect="non-scaling-stroke"/><path stroke-linecap="round" d="M354.99 409.29h3.37v8.16h-3.37z" style="opacity:1;fill:#263238;fill-rule:nonzero;stroke:#263238;stroke-width:1;stroke-linecap:round;stroke-linejoin:round;stroke-miterlimit:4;stroke-dasharray:none;stroke-dashoffset:0" transform="matrix(.8773 0 0 .9177 68.024 62.772)" vector-effect="non-scaling-stroke"/><path stroke-linecap="round" d="m151.51 366.19-3.1.67-2.23-2.86 6.2-1.34z" style="opacity:1;fill:#fff;fill-rule:nonzero;stroke:#263238;stroke-width:1;stroke-linecap:round;stroke-linejoin:round;stroke-miterlimit:4;stroke-dasharray:none;stroke-dashoffset:0" transform="matrix(.8773 0 0 .9177 68.024 62.772)" vector-effect="non-scaling-stroke"/><path stroke-linecap="round" d="M144.49 348.33h6.34v14.99h-6.34z" style="opacity:1;fill:#fff;fill-rule:nonzero;stroke:#263238;stroke-width:1;stroke-linecap:round;stroke-linejoin:round;stroke-miterlimit:4;stroke-dasharray:none;stroke-dashoffset:0" transform="matrix(.85976 -.19272 .18423 .89935 5.07 97.75)" vector-effect="non-scaling-stroke"/><path stroke-linecap="round" d="m140.7 366.31-2.83-1.43.05-3.63 5.67 2.84z" style="opacity:1;fill:#fff;fill-rule:nonzero;stroke:#263238;stroke-width:1;stroke-linecap:round;stroke-linejoin:round;stroke-miterlimit:4;stroke-dasharray:none;stroke-dashoffset:0" transform="matrix(.8773 0 0 .9177 68.024 62.772)" vector-effect="non-scaling-stroke"/><path stroke-linecap="round" d="M141.02 348.31h6.34v14.99h-6.34z" style="opacity:1;fill:#fff;fill-rule:nonzero;stroke:#263238;stroke-width:1;stroke-linecap:round;stroke-linejoin:round;stroke-miterlimit:4;stroke-dasharray:none;stroke-dashoffset:0" transform="matrix(.7808 .41297 -.39479 .81676 222.425 39.135)" vector-effect="non-scaling-stroke"/><path stroke-linecap="round" d="m131.89 362.35-2.83-1.42.05-3.64 5.67 2.84z" style="opacity:1;fill:#fff;fill-rule:nonzero;stroke:#263238;stroke-width:1;stroke-linecap:round;stroke-linejoin:round;stroke-miterlimit:4;stroke-dasharray:none;stroke-dashoffset:0" transform="matrix(.8773 0 0 .9177 68.024 62.772)" vector-effect="non-scaling-stroke"/><path stroke-linecap="round" d="M132.21 344.36h6.34v14.99h-6.34z" style="opacity:1;fill:#fff;fill-rule:nonzero;stroke:#263238;stroke-width:1;stroke-linecap:round;stroke-linejoin:round;stroke-miterlimit:4;stroke-dasharray:none;stroke-dashoffset:0" transform="matrix(.7808 .41297 -.39479 .81676 220.016 42.384)" vector-effect="non-scaling-stroke"/><path stroke-linecap="round" d="M89.55 392.04h47.27v11.51H89.55Z" style="opacity:1;fill:#263238;fill-rule:nonzero;stroke:#263238;stroke-width:1;stroke-linecap:round;stroke-linejoin:round;stroke-miterlimit:4;stroke-dasharray:none;stroke-dashoffset:0" transform="matrix(.8773 0 0 .9177 68.016 62.763)" vector-effect="non-scaling-stroke"/><path stroke-linecap="round" d="M100.87 418h68.76a8.13 8.13 0 0 1 8.13 8.13V438h-76.89z" style="opacity:1;fill:#fff;fill-rule:nonzero;stroke:#263238;stroke-width:1;stroke-linecap:round;stroke-linejoin:round;stroke-miterlimit:4;stroke-dasharray:none;stroke-dashoffset:0" transform="matrix(.8773 0 0 .9177 68.033 62.772)" vector-effect="non-scaling-stroke"/><path stroke-linecap="round" d="M177.15 427.95h-56.57" style="opacity:1;fill:none;fill-rule:nonzero;stroke:#263238;stroke-width:1;stroke-linecap:round;stroke-linejoin:round;stroke-miterlimit:4;stroke-dasharray:none;stroke-dashoffset:0" transform="matrix(.8773 0 0 .9177 68.024 62.772)" vector-effect="non-scaling-stroke"/><path stroke-linecap="round" d="M89.55 392.04h30.87v45.91H89.55Zm134.14-90.48-59.98 23.85-2.49-6.31 59.97-23.85z" style="opacity:1;fill:#263238;fill-rule:nonzero;stroke:#263238;stroke-width:1;stroke-linecap:round;stroke-linejoin:round;stroke-miterlimit:4;stroke-dasharray:none;stroke-dashoffset:0" transform="matrix(.8773 0 0 .9177 68.024 62.772)" vector-effect="non-scaling-stroke"/><path stroke-linecap="round" d="M199.73 302.39h3.33v8.91h-3.33z" style="opacity:1;fill:#fff;fill-rule:nonzero;stroke:#263238;stroke-width:1;stroke-linecap:round;stroke-linejoin:round;stroke-miterlimit:4;stroke-dasharray:none;stroke-dashoffset:0" transform="matrix(.8159 -.33955 .3246 .85347 -19.22 150.885)" vector-effect="non-scaling-stroke"/><path stroke-linecap="round" d="M161.48 310.49h28.06v13.2h-28.06z" style="opacity:1;fill:#263238;fill-rule:nonzero;stroke:#263238;stroke-width:1;stroke-linecap:round;stroke-linejoin:round;stroke-miterlimit:4;stroke-dasharray:none;stroke-dashoffset:0" transform="matrix(.8159 -.33955 .3246 .85347 -24.116 142.718)" vector-effect="non-scaling-stroke"/><path stroke-linecap="round" d="m174.18 330.94-8.61 12.63-34.45 1.14-41.62 72.62s-12.91-19.8-12.91-29.27v-.29a37.63 37.63 0 0 1 6.6-21.07L120.5 312h43.63z" style="opacity:1;fill:#fff;fill-rule:nonzero;stroke:#263238;stroke-width:1;stroke-linecap:round;stroke-linejoin:round;stroke-miterlimit:4;stroke-dasharray:none;stroke-dashoffset:0" transform="matrix(.8773 0 0 .9177 68.024 62.772)" vector-effect="non-scaling-stroke"/><path stroke-linecap="round" d="M174.18 330.94h-65.73" style="opacity:1;fill:none;fill-rule:nonzero;stroke:#263238;stroke-width:1;stroke-linecap:round;stroke-linejoin:round;stroke-miterlimit:4;stroke-dasharray:none;stroke-dashoffset:0" transform="matrix(.8773 0 0 .9177 68.033 62.772)" vector-effect="non-scaling-stroke"/><path stroke-linecap="round" d="M133.13 305.05h21.53v6.89h-21.53zm-43.44 86.46a5.471 5.471 0 0 1-4.7-8.28l21.51-36a5.473 5.473 0 1 1 9.4 5.61l-21.5 36a5.48 5.48 0 0 1-4.71 2.67zm75.88-47.94-7.87 13.99-27.61-11.05 7.85-13.07zm-40.06 34.28h43.89v3.39h-43.89z" style="opacity:1;fill:#263238;fill-rule:nonzero;stroke:#263238;stroke-width:1;stroke-linecap:round;stroke-linejoin:round;stroke-miterlimit:4;stroke-dasharray:none;stroke-dashoffset:0" transform="matrix(.8773 0 0 .9177 68.024 62.772)" vector-effect="non-scaling-stroke"/><path stroke-linecap="round" d="M125.51 381.39h28.37v10.17h-28.37z" style="opacity:1;fill:#fff;fill-rule:nonzero;stroke:#263238;stroke-width:1;stroke-linecap:round;stroke-linejoin:round;stroke-miterlimit:4;stroke-dasharray:none;stroke-dashoffset:0" transform="matrix(.8773 0 0 .9177 68.033 62.772)" vector-effect="non-scaling-stroke"/><circle r="10.17" style="opacity:1;fill:#fff;fill-rule:nonzero;stroke:#263238;stroke-width:1;stroke-linecap:round;stroke-linejoin:round;stroke-miterlimit:4;stroke-dasharray:none;stroke-dashoffset:0" transform="matrix(.86853 -.15601 .14914 .90853 166.466 435.645)" vector-effect="non-scaling-stroke"/><path stroke-linecap="round" d="M134.09 397.45a4.49 4.49 0 1 0-8.98.02 4.49 4.49 0 0 0 8.98-.02z" style="opacity:1;fill:#fff;fill-rule:nonzero;stroke:#263238;stroke-width:1;stroke-linecap:round;stroke-linejoin:round;stroke-miterlimit:4;stroke-dasharray:none;stroke-dashoffset:0" transform="matrix(.8773 0 0 .9177 68.024 62.772)" vector-effect="non-scaling-stroke"/><path stroke-linecap="round" d="M573.4 194.51v-3.79a3.51 3.51 0 0 1 3.51-3.51h25" style="opacity:1;fill:none;fill-rule:nonzero;stroke:#263238;stroke-width:4;stroke-linecap:butt;stroke-linejoin:miter;stroke-miterlimit:10;stroke-dasharray:none;stroke-dashoffset:0" transform="matrix(.8773 0 0 .9177 100.43 62.304)" vector-effect="non-scaling-stroke"/><path stroke-linecap="round" d="M548.26 251.65a5.65 5.65 0 0 0 2.77 1.86c5.88 2.3 11.5 5.11 17.21 7.67l-18.79 8.44a2.2 2.2 0 0 0-1.45 1.9 2.14 2.14 0 0 0 1.43 2.21l18.81 8.44-18.79 8.43a2.22 2.22 0 0 0-1.45 1.86 2.13 2.13 0 0 0 1.43 2.18l20.9 9.38v29.56h6v-21c0-2.71.95-5.43.26-8.13-1-4-6-5.61-10.17-7.45l-9.51-4.21-.31-.14 18.27-8.19c1.4-.63 2.65-1.12 2.37-2.61-.34-1.79-3.75-2.52-5.52-3.33l-6.26-2.81-6.16-2.76a16.46 16.46 0 0 0-2.77-1.25l7.5-3.36 5.87-2.64c1.3-.58 2.54-1.25 3.87-1.79 1.13-.45 2.73-1.07 3.31-2 .78-1.25-.79-2.24-2.05-2.85-1.72-.82-3.52-1.6-5.27-2.39l-6-2.68-5.28-2.37a13.32 13.32 0 0 0-2.2-1q9.2-4.12 18.42-8.24l.16-.07c1.5-.69 2.75-1.56 2.22-3-.64-1.69-3.48-2.11-5.26-2.91l-5.75-2.58-9.17-4.12-.11-.05 8.8-3.95c2.31-1 4.79-1.66 7.11-2.71 2.6-1.17 4.23-2 4.23-4.73v-10.43h-6v10.23c0 .47-5.19 2.33-5.74 2.58-4.69 2.11-9.43 4.15-14.18 6.19a8.49 8.49 0 0 0-2.21 1.19c-1.37 1.16-.89 2.72.64 3.64a47.75 47.75 0 0 0 4.61 2l6.2 2.78 5.6 2.51a14 14 0 0 0 2.36 1.06c-6 2.71-12.08 5.36-18.07 8.11-1.64.76-2.82 2.03-1.88 3.53z" style="opacity:1;fill:#fff;fill-rule:nonzero;stroke:#263238;stroke-width:1;stroke-linecap:round;stroke-linejoin:round;stroke-miterlimit:4;stroke-dasharray:none;stroke-dashoffset:0" transform="matrix(.8773 0 0 .9177 100.43 62.313)" vector-effect="non-scaling-stroke"/><path stroke-linecap="round" d="m556.82 229.64-4.03 1.39m15.45 8.97 3.69-1.93m-15.62 12.52-3.52 1.56m15.45 9.03 4.01-1.75m-15.72 12.24-3.12 1.61m14.83 8.89 3.69-1.85" style="opacity:1;fill:none;fill-rule:nonzero;stroke:#263238;stroke-width:1;stroke-linecap:butt;stroke-linejoin:miter;stroke-miterlimit:10;stroke-dasharray:none;stroke-dashoffset:0" transform="matrix(.8773 0 0 .9177 100.43 62.304)" vector-effect="non-scaling-stroke"/><path stroke-linecap="round" d="M581.53 194.65h-15.14v2.83h2.2v8.33c0 1.13 1.23 2.05 2.74 2.05h5.25c1.51 0 2.74-.92 2.74-2.05v-8.33h2.21z" style="opacity:1;fill:#fff;fill-rule:nonzero;stroke:#263238;stroke-width:1;stroke-linecap:round;stroke-linejoin:round;stroke-miterlimit:4;stroke-dasharray:none;stroke-dashoffset:0" transform="matrix(.8773 0 0 .9177 100.43 62.304)" vector-effect="non-scaling-stroke"/><path stroke-linecap="round" d="M606.52 149.2h11.14v5.2h-11.14z" style="opacity:1;fill:#263238;fill-rule:nonzero;stroke:#263238;stroke-width:1;stroke-linecap:butt;stroke-linejoin:miter;stroke-miterlimit:10;stroke-dasharray:none;stroke-dashoffset:0" transform="matrix(.8773 0 0 .9177 100.43 62.304)" vector-effect="non-scaling-stroke"/><path stroke-linecap="round" d="M597.17 181.71h7.31v12.62h-7.31z" style="opacity:1;fill:#fff;fill-rule:nonzero;stroke:#263238;stroke-width:1;stroke-linecap:butt;stroke-linejoin:miter;stroke-miterlimit:10;stroke-dasharray:none;stroke-dashoffset:0" transform="matrix(.8773 0 0 .9177 100.43 62.304)" vector-effect="non-scaling-stroke"/><path stroke-linecap="round" d="M640.69 232.57h-20.28v-63.69a8.32 8.32 0 0 0-4.38-7.33v-7.28h-7.87v7.28a8.33 8.33 0 0 0-4.39 7.33v78.61a8.32 8.32 0 1 0 16.64 0v-10h22.37a29.11 29.11 0 0 1-2.09-4.92z" style="opacity:1;fill:#fff;fill-rule:nonzero;stroke:#263238;stroke-width:1;stroke-linecap:round;stroke-linejoin:round;stroke-miterlimit:4;stroke-dasharray:none;stroke-dashoffset:0" transform="matrix(.8773 0 0 .9177 100.43 62.304)" vector-effect="non-scaling-stroke"/><path stroke-linecap="round" d="M614.77 220.37c-.11-.81-1.22-1.14-1.79-1.51l-2-1.27-2.9-1.81 2.44-1.52 1.91-1.2c.42-.26.82-.56 1.26-.8a2.44 2.44 0 0 0 1.07-.92c.25-.56-.26-1-.67-1.28-.41-.28-1.14-.73-1.71-1.09l-1.94-1.21-1.71-1.07a4.05 4.05 0 0 0-.72-.45l6-3.72h.06c.49-.32.89-.71.72-1.35-.17-.64-1.13-1-1.71-1.32l-1.87-1.17-3-1.88L611 195c.75-.47 1.55-.75 2.3-1.22.75-.47 1.38-.89 1.38-2.14v-2.89a1.83 1.83 0 0 0-1.83-1.83h-9.09v2.39h7.14a1.83 1.83 0 0 1 1.83 1.83v.41c0 .21-1.69 1.06-1.86 1.17q-2.29 1.43-4.61 2.8a2.72 2.72 0 0 0-.72.54 1.13 1.13 0 0 0 .21 1.64 14 14 0 0 0 1.49.9l2 1.26 1.82 1.14c.06 0 .7.52.77.48-2 1.22-3.93 2.42-5.87 3.66a1.25 1.25 0 0 0-.63 1.6 2 2 0 0 0 .9.84c1.92 1.05 3.74 2.32 5.6 3.47l-6.11 3.82a1.15 1.15 0 0 0 0 1.86l6.11 3.81-6.11 3.82a1 1 0 0 0-.47.84 1 1 0 0 0 .47 1l6.79 4.25v13.37h2v-9.52a20.46 20.46 0 0 0 .08-3.67c-.32-1.79-1.95-2.54-3.3-3.37l-3.09-1.9-.1-.07 5.93-3.7c.43-.33.83-.59.74-1.22z" style="opacity:1;fill:#fff;fill-rule:nonzero;stroke:#263238;stroke-width:1;stroke-linecap:butt;stroke-linejoin:miter;stroke-miterlimit:10;stroke-dasharray:none;stroke-dashoffset:0" transform="matrix(.8773 0 0 .9177 100.43 62.304)" vector-effect="non-scaling-stroke"/><path stroke-linecap="round" d="M664.29 171.56h8.39v19.47h-8.39z" style="opacity:1;fill:#263238;fill-rule:nonzero;stroke:#263238;stroke-width:1;stroke-linecap:round;stroke-linejoin:round;stroke-miterlimit:4;stroke-dasharray:none;stroke-dashoffset:0" transform="matrix(.8773 0 0 .9177 100.43 62.304)" vector-effect="non-scaling-stroke"/><path stroke-linecap="round" d="M675 195.14V180.2h-12.88v14.94c-13.185 2.969-22.616 14.59-22.806 28.105-.19 13.514 8.91 25.396 22.006 28.735v12.36a3 3 0 0 0 3 3.05h8.33a3.06 3.06 0 0 0 3-3.05V252c13.097-3.339 22.196-15.221 22.006-28.735-.19-13.514-9.62-25.136-22.806-28.105Z" style="opacity:1;fill:#fff;fill-rule:nonzero;stroke:#263238;stroke-width:1;stroke-linecap:round;stroke-linejoin:round;stroke-miterlimit:4;stroke-dasharray:none;stroke-dashoffset:0" transform="matrix(.8773 0 0 .9177 100.422 62.304)" vector-effect="non-scaling-stroke"/><path stroke-linecap="round" d="M659.81 176.09h17.41v6.57h-17.41z" style="opacity:1;fill:#0a3d62;fill-rule:nonzero;stroke:#263238;stroke-width:1;stroke-linecap:round;stroke-linejoin:round;stroke-miterlimit:4;stroke-dasharray:none;stroke-dashoffset:0" transform="matrix(.8773 0 0 .9177 100.43 62.304)" vector-effect="non-scaling-stroke"/><path stroke-linecap="round" d="m597.49 378.51-14.32-55.61v-15.2H562.9v15.2l-14.31 55.61a5.9 5.9 0 0 0 5.71 7.37h37.48a5.9 5.9 0 0 0 5.71-7.37z" style="opacity:1;fill:#fff;fill-rule:nonzero;stroke:#263238;stroke-width:1;stroke-linecap:round;stroke-linejoin:round;stroke-miterlimit:4;stroke-dasharray:none;stroke-dashoffset:0" transform="matrix(.8773 0 0 .9177 100.44 62.304)" vector-effect="non-scaling-stroke"/><path stroke-linecap="round" d="M585.77 350.41h-25.46l-7.52 29.18a1.52 1.52 0 0 0 .28 1.34 1.5 1.5 0 0 0 1.23.6h37.48a1.54 1.54 0 0 0 1.5-1.94z" style="opacity:1;fill:#2b8153;fill-rule:nonzero;stroke:#263238;stroke-width:1;stroke-linecap:round;stroke-linejoin:round;stroke-miterlimit:4;stroke-dasharray:none;stroke-dashoffset:0" transform="matrix(.8773 0 0 .9177 100.43 62.304)" vector-effect="non-scaling-stroke"/><path stroke-linecap="round" d="M536.7 385.97h73.76v7.44H536.7Z" style="opacity:1;fill:#263238;fill-rule:nonzero;stroke:#263238;stroke-width:1;stroke-linecap:round;stroke-linejoin:round;stroke-miterlimit:4;stroke-dasharray:none;stroke-dashoffset:0" transform="matrix(.8773 0 0 .9177 100.43 62.304)" vector-effect="non-scaling-stroke"/><path stroke-linecap="round" d="m545.38 392.78-8.06 44.02m64.46-44.02 8.06 44.02" style="opacity:1;fill:none;fill-rule:nonzero;stroke:#263238;stroke-width:3;stroke-linecap:round;stroke-linejoin:round;stroke-miterlimit:4;stroke-dasharray:none;stroke-dashoffset:0" transform="matrix(.8773 0 0 .9177 100.43 62.304)" vector-effect="non-scaling-stroke"/><path stroke-linecap="round" d="M682.7 275.67v-11.81a5.61 5.61 0 0 0-5.61-5.61h-16.42a5.61 5.61 0 0 0-5.61 5.61v11.44c-11.884 6.177-18.047 19.642-14.955 32.673 3.092 13.031 14.647 22.292 28.04 22.472 13.391.179 25.19-8.77 28.63-21.713 3.44-12.944-2.36-26.57-14.075-33.062Z" style="opacity:1;fill:#fff;fill-rule:nonzero;stroke:#263238;stroke-width:1;stroke-linecap:round;stroke-linejoin:round;stroke-miterlimit:4;stroke-dasharray:none;stroke-dashoffset:0" transform="matrix(.8773 0 0 .9177 100.422 62.304)" vector-effect="non-scaling-stroke"/><circle r="52.07" style="opacity:1;fill:#fff;fill-rule:nonzero;stroke:#263238;stroke-width:1;stroke-linecap:round;stroke-linejoin:round;stroke-miterlimit:4;stroke-dasharray:none;stroke-dashoffset:0" transform="matrix(.38601 -.82594 .78957 .4038 686.863 415.658)" vector-effect="non-scaling-stroke"/><path stroke-linecap="round" d="M656.2 328.32h23.67v5.17H656.2Z" style="opacity:1;fill:#0a3d62;fill-rule:nonzero;stroke:#263238;stroke-width:1;stroke-linecap:round;stroke-linejoin:round;stroke-miterlimit:4;stroke-dasharray:none;stroke-dashoffset:0" transform="matrix(.8773 0 0 .9177 100.422 62.313)" vector-effect="non-scaling-stroke"/><path stroke-linecap="round" d="M620.37 378a48.5 48.5 0 1 0 96.36 0Z" style="opacity:1;fill:#f6ad55;fill-rule:nonzero;stroke:#263238;stroke-width:1;stroke-linecap:round;stroke-linejoin:round;stroke-miterlimit:4;stroke-dasharray:none;stroke-dashoffset:0" transform="matrix(.8773 0 0 .9177 100.43 62.304)" vector-effect="non-scaling-stroke"/><path stroke-linecap="round" d="M661.93 401.52a3.63 3.63 0 1 1-3.63-3.62 3.64 3.64 0 0 1 3.63 3.62zm-14.49 2.27a3.17 3.17 0 1 1-6.34 0 3.17 3.17 0 0 1 6.34 0zm20.37-14.72a2.94 2.94 0 1 1-5.88 0 2.94 2.94 0 0 1 5.88 0z" style="opacity:1;fill:none;fill-rule:nonzero;stroke:#263238;stroke-width:1;stroke-linecap:butt;stroke-linejoin:miter;stroke-miterlimit:10;stroke-dasharray:none;stroke-dashoffset:0" transform="matrix(.8773 0 0 .9177 100.44 62.304)" vector-effect="non-scaling-stroke"/><circle r="2.49" style="opacity:1;fill:none;fill-rule:nonzero;stroke:#263238;stroke-width:1;stroke-linecap:butt;stroke-linejoin:miter;stroke-miterlimit:10;stroke-dasharray:none;stroke-dashoffset:0" transform="matrix(.8773 0 0 .9177 690.074 435.563)" vector-effect="non-scaling-stroke"/><path stroke-linecap="round" d="M654.23 417.14a2 2 0 1 1-4 0 2 2 0 0 1 4 0z" style="opacity:1;fill:none;fill-rule:nonzero;stroke:#263238;stroke-width:1;stroke-linecap:butt;stroke-linejoin:miter;stroke-miterlimit:10;stroke-dasharray:none;stroke-dashoffset:0" transform="matrix(.8773 0 0 .9177 100.43 62.304)" vector-effect="non-scaling-stroke"/><path stroke-linecap="round" d="M217.78 420.58h6.42v4.19h-6.42z" style="opacity:1;fill:#fff;fill-rule:nonzero;stroke:#263238;stroke-width:1;stroke-linecap:round;stroke-linejoin:round;stroke-miterlimit:4;stroke-dasharray:none;stroke-dashoffset:0" transform="matrix(.8773 0 0 .9177 68.024 62.781)" vector-effect="non-scaling-stroke"/><path stroke-linecap="round" d="M297.05 437.95H189.43l10.76-15.99h86.1zm-93.79-26.56h80.24v10.3h-80.24z" style="opacity:1;fill:#fff;fill-rule:nonzero;stroke:#263238;stroke-width:1;stroke-linecap:round;stroke-linejoin:round;stroke-miterlimit:4;stroke-dasharray:none;stroke-dashoffset:0" transform="matrix(.8773 0 0 .9177 68.024 62.772)" vector-effect="non-scaling-stroke"/><path stroke-linecap="round" d="M208.92 418.09h6.1v3.7h-6.1zm62.51 0h6.1v3.7h-6.1z" style="opacity:1;fill:#263238;fill-rule:nonzero;stroke:#263238;stroke-width:1;stroke-linecap:round;stroke-linejoin:round;stroke-miterlimit:4;stroke-dasharray:none;stroke-dashoffset:0" transform="matrix(.8773 0 0 .9177 68.024 62.772)" vector-effect="non-scaling-stroke"/><path stroke-linecap="round" d="M243.46 402.84h6.23v4.07h-6.23z" style="opacity:1;fill:#fff;fill-rule:nonzero;stroke:#263238;stroke-width:1;stroke-linecap:round;stroke-linejoin:round;stroke-miterlimit:4;stroke-dasharray:none;stroke-dashoffset:0" transform="matrix(.8773 0 0 .9177 68.033 62.763)" vector-effect="non-scaling-stroke"/><path stroke-linecap="round" d="M240.64 352.1h7.89v8.38h-7.89z" style="opacity:1;fill:#263238;fill-rule:nonzero;stroke:#263238;stroke-width:1;stroke-linecap:round;stroke-linejoin:round;stroke-miterlimit:4;stroke-dasharray:none;stroke-dashoffset:0" transform="matrix(.8773 0 0 .9177 68.024 62.772)" vector-effect="non-scaling-stroke"/><path stroke-linecap="round" d="m266.07 406.08-17.48-32.51v-15.31h-8.13v15.31L223 406.08a3.61 3.61 0 0 0 3.32 5h36.46a3.61 3.61 0 0 0 3.29-5z" style="opacity:1;fill:#fff;fill-rule:nonzero;stroke:#263238;stroke-width:1;stroke-linecap:round;stroke-linejoin:round;stroke-miterlimit:4;stroke-dasharray:none;stroke-dashoffset:0" transform="matrix(.8773 0 0 .9177 68.024 62.772)" vector-effect="non-scaling-stroke"/><path stroke-linecap="round" d="M256.88 394.85h-24.7l-5.18 9.73a3 3 0 0 0 2.7 4.11h29.7a3 3 0 0 0 2.71-4.11z" style="opacity:1;fill:#65c9ff;fill-rule:nonzero;stroke:#263238;stroke-width:1;stroke-linecap:round;stroke-linejoin:round;stroke-miterlimit:4;stroke-dasharray:none;stroke-dashoffset:0" transform="matrix(.8773 0 0 .9177 68.033 62.772)" vector-effect="non-scaling-stroke"/><path stroke-linecap="round" d="M341.04 269.31h20.55v6.84h-20.55z" style="opacity:1;fill:#263238;fill-rule:nonzero;stroke:#263238;stroke-width:1;stroke-linecap:round;stroke-linejoin:round;stroke-miterlimit:4;stroke-dasharray:none;stroke-dashoffset:0" transform="matrix(.8773 0 0 .9177 68.024 62.772)" vector-effect="non-scaling-stroke"/><path stroke-linecap="round" d="M361.41 292.89v-16.74H341v16.74a26.25 26.25 0 0 0-16 24.19c0 11.43 16.3 28.05 23.18 34.56a4.38 4.38 0 0 0 6 0c6.89-6.51 23.18-23.13 23.18-34.56a26.25 26.25 0 0 0-15.95-24.19z" style="opacity:1;fill:#fff;fill-rule:nonzero;stroke:#263238;stroke-width:1;stroke-linecap:round;stroke-linejoin:round;stroke-miterlimit:4;stroke-dasharray:none;stroke-dashoffset:0" transform="matrix(.8773 0 0 .9177 68.024 62.772)" vector-effect="non-scaling-stroke"/><path stroke-linecap="round" d="M329 320.62c2.78 9.52 14.31 21.24 19.56 26.2a3.81 3.81 0 0 0 5.24 0c5.25-5 16.79-16.68 19.56-26.2z" style="opacity:1;fill:#0a3d62;fill-rule:nonzero;stroke:#263238;stroke-width:1;stroke-linecap:round;stroke-linejoin:round;stroke-miterlimit:4;stroke-dasharray:none;stroke-dashoffset:0" transform="matrix(.8773 0 0 .9177 68.024 62.772)" vector-effect="non-scaling-stroke"/><path stroke-linecap="round" d="M320.1 326.89h72.53v4.29H320.1Z" style="opacity:1;fill:#fff;fill-rule:nonzero;stroke:#263238;stroke-width:1;stroke-linecap:round;stroke-linejoin:round;stroke-miterlimit:4;stroke-dasharray:none;stroke-dashoffset:0" transform="matrix(.8773 0 0 .9177 68.016 62.781)" vector-effect="non-scaling-stroke"/><path stroke-linecap="round" d="M315.92 330.86h196.24v4.29H315.92Z" style="opacity:1;fill:#fff;fill-rule:nonzero;stroke:#263238;stroke-width:1;stroke-linecap:round;stroke-linejoin:round;stroke-miterlimit:4;stroke-dasharray:none;stroke-dashoffset:0" transform="matrix(0 .9177 -.8773 0 723.404 -11.599)" vector-effect="non-scaling-stroke"/><path stroke-linecap="round" d="M392.63 329.03h39.81" style="opacity:1;fill:none;fill-rule:nonzero;stroke:#263238;stroke-width:2;stroke-linecap:round;stroke-linejoin:round;stroke-miterlimit:4;stroke-dasharray:none;stroke-dashoffset:0" transform="matrix(.8773 0 0 .9177 68.033 62.772)" vector-effect="non-scaling-stroke"/><path stroke-linecap="round" d="M420.29 329.39a6.43 6.43 0 1 0-12.86 0 6.43 6.43 0 0 0 12.86 0zm-37.17 100.83h60.91v7.73h-60.91z" style="opacity:1;fill:#263238;fill-rule:nonzero;stroke:#263238;stroke-width:1;stroke-linecap:round;stroke-linejoin:round;stroke-miterlimit:4;stroke-dasharray:none;stroke-dashoffset:0" transform="matrix(.8773 0 0 .9177 68.024 62.772)" vector-effect="non-scaling-stroke"/><path stroke-linecap="round" d="M244.59 356.29v-1.57a12.47 12.47 0 0 1 12.47-12.47h34.51a11.17 11.17 0 0 0 11.17-11.17v-66.27a9.79 9.79 0 0 1 9.8-9.79H343a9 9 0 0 1 9 9v8.7" style="opacity:1;fill:none;fill-rule:nonzero;stroke:#263238;stroke-width:4;stroke-linecap:round;stroke-linejoin:round;stroke-miterlimit:4;stroke-dasharray:none;stroke-dashoffset:0" transform="matrix(.8773 0 0 .9177 68.016 62.781)" vector-effect="non-scaling-stroke"/><path stroke-linecap="round" d="M315.08 407.79v-51.13h-10.8v51.13a15.57 15.57 0 1 0 10.8 0z" style="opacity:1;fill:#fff;fill-rule:nonzero;stroke:#263238;stroke-width:1;stroke-linecap:butt;stroke-linejoin:miter;stroke-miterlimit:10;stroke-dasharray:none;stroke-dashoffset:0" transform="matrix(.8773 0 0 .9177 68.024 62.772)" vector-effect="non-scaling-stroke"/><path stroke-linecap="round" d="M296.35 418.44a13.91 13.91 0 1 0 26.66 0z" style="opacity:1;fill:#0a3d62;fill-rule:nonzero;stroke:#263238;stroke-width:1;stroke-linecap:round;stroke-linejoin:round;stroke-miterlimit:4;stroke-dasharray:none;stroke-dashoffset:0" transform="matrix(.8773 0 0 .9177 68.024 62.772)" vector-effect="non-scaling-stroke"/><path stroke-linecap="round" d="M467.1 381h8.68v50.65a4 4 0 0 1-4 4h-.62a4 4 0 0 1-4-4V381Z" style="opacity:1;fill:#fff;fill-rule:nonzero;stroke:#263238;stroke-width:1;stroke-linecap:round;stroke-linejoin:round;stroke-miterlimit:4;stroke-dasharray:none;stroke-dashoffset:0" transform="matrix(1.06732 0 0 1.11648 -18.536 -24.38)" vector-effect="non-scaling-stroke"/><path stroke-linecap="round" d="M467.1 397.52v33.86a4.35 4.35 0 0 0 8.69 0v-33.86z" style="opacity:1;fill:#f6ad55;fill-rule:nonzero;stroke:#263238;stroke-width:1;stroke-linecap:round;stroke-linejoin:round;stroke-miterlimit:4;stroke-dasharray:none;stroke-dashoffset:0" transform="matrix(1.06732 0 0 1.11648 -18.547 -24.38)" vector-effect="non-scaling-stroke"/><path stroke-linecap="round" d="M465.57 379.76h11.75v8.17h-11.75z" style="opacity:1;fill:#263238;fill-rule:nonzero;stroke:#263238;stroke-width:1;stroke-linecap:round;stroke-linejoin:round;stroke-miterlimit:4;stroke-dasharray:none;stroke-dashoffset:0" transform="matrix(1.06732 0 0 1.11648 -18.536 -24.38)" vector-effect="non-scaling-stroke"/><path stroke-linecap="round" d="M488.33 435.72v0a4.34 4.34 0 0 1-4.34-4.34V381h8.69v50.34a4.34 4.34 0 0 1-4.35 4.38z" style="opacity:1;fill:#fff;fill-rule:nonzero;stroke:#263238;stroke-width:1;stroke-linecap:round;stroke-linejoin:round;stroke-miterlimit:4;stroke-dasharray:none;stroke-dashoffset:0" transform="matrix(1.06732 0 0 1.11648 -18.536 -24.38)" vector-effect="non-scaling-stroke"/><path stroke-linecap="round" d="M484 397.52v33.86a4.35 4.35 0 0 0 8.69 0v-33.86z" style="opacity:1;fill:#0a3d62;fill-rule:nonzero;stroke:#263238;stroke-width:1;stroke-linecap:round;stroke-linejoin:round;stroke-miterlimit:4;stroke-dasharray:none;stroke-dashoffset:0" transform="matrix(1.06732 0 0 1.11648 -18.536 -24.38)" vector-effect="non-scaling-stroke"/><path stroke-linecap="round" d="M482.46 379.76h11.75v8.17h-11.75zm22.76 55.96v0a4.34 4.34 0 0 1-4.34-4.34V381h8.68v50.34a4.34 4.34 0 0 1-4.34 4.38z" style="opacity:1;fill:#fff;fill-rule:nonzero;stroke:#263238;stroke-width:1;stroke-linecap:round;stroke-linejoin:round;stroke-miterlimit:4;stroke-dasharray:none;stroke-dashoffset:0" transform="matrix(1.06732 0 0 1.11648 -18.536 -24.38)" vector-effect="non-scaling-stroke"/><path stroke-linecap="round" d="M500.88 397.52v33.86a4.34 4.34 0 0 0 4.34 4.34v0a4.34 4.34 0 0 0 4.34-4.34v-33.86z" style="opacity:1;fill:#2b8153;fill-rule:nonzero;stroke:#263238;stroke-width:1;stroke-linecap:round;stroke-linejoin:round;stroke-miterlimit:4;stroke-dasharray:none;stroke-dashoffset:0" transform="matrix(1.06732 0 0 1.11648 -18.536 -24.38)" vector-effect="non-scaling-stroke"/><path stroke-linecap="round" d="M499.35 379.76h11.75v8.17h-11.75z" style="opacity:1;fill:#263238;fill-rule:nonzero;stroke:#263238;stroke-width:1;stroke-linecap:round;stroke-linejoin:round;stroke-miterlimit:4;stroke-dasharray:none;stroke-dashoffset:0" transform="matrix(1.06732 0 0 1.11648 -18.536 -24.38)" vector-effect="non-scaling-stroke"/><path stroke-linecap="round" d="M522.11 435.72v0a4.34 4.34 0 0 1-4.34-4.34V381h8.68v50.34a4.34 4.34 0 0 1-4.34 4.38z" style="opacity:1;fill:#fff;fill-rule:nonzero;stroke:#263238;stroke-width:1;stroke-linecap:round;stroke-linejoin:round;stroke-miterlimit:4;stroke-dasharray:none;stroke-dashoffset:0" transform="matrix(1.06732 0 0 1.11648 -18.536 -24.38)" vector-effect="non-scaling-stroke"/><path stroke-linecap="round" d="M517.77 397.52v33.86a4.34 4.34 0 1 0 8.68 0v-33.86z" style="opacity:1;fill:#65c9ff;fill-rule:nonzero;stroke:#263238;stroke-width:1;stroke-linecap:round;stroke-linejoin:round;stroke-miterlimit:4;stroke-dasharray:none;stroke-dashoffset:0" transform="matrix(1.06732 0 0 1.11648 -18.536 -24.38)" vector-effect="non-scaling-stroke"/><path stroke-linecap="round" d="M516.24 379.76h11.75v8.17h-11.75zm19.09 51.95h-79.3v6.24h84.44v-45.61H459.7v2.57h75.63z" style="opacity:1;fill:#fff;fill-rule:nonzero;stroke:#263238;stroke-width:1;stroke-linecap:round;stroke-linejoin:round;stroke-miterlimit:4;stroke-dasharray:none;stroke-dashoffset:0" transform="matrix(1.06732 0 0 1.11648 -18.536 -24.38)" vector-effect="non-scaling-stroke"/><path stroke-linecap="round" d="M34.34 437.37h22.73V240.66l.08-.03 1.65-5.95H32.33l2.01 6.07z" style="opacity:1;fill:#fff;fill-rule:nonzero;stroke:#263238;stroke-width:1;stroke-linecap:butt;stroke-linejoin:miter;stroke-miterlimit:10;stroke-dasharray:none;stroke-dashoffset:0" transform="matrix(.8773 0 0 .9177 68.033 62.781)" vector-effect="non-scaling-stroke"/><path stroke-linecap="round" d="M25.24 432.66h40.94v5.29H25.24Z" style="opacity:1;fill:#fff;fill-rule:nonzero;stroke:#263238;stroke-width:1;stroke-linecap:butt;stroke-linejoin:miter;stroke-miterlimit:10;stroke-dasharray:none;stroke-dashoffset:0" transform="matrix(.8773 0 0 .9177 68.024 62.772)" vector-effect="non-scaling-stroke"/><path stroke-linecap="round" d="M37.62 250.21h4.94m-4.94 7.77h4.94m-4.94 7.76h4.94m-4.94 7.76h4.94m-4.94 7.77h4.94m-4.94 7.76h4.94m-4.94 7.76h4.94m-4.94 7.77h4.94m-4.94 7.76h4.94m-4.94 7.77h4.94m-4.94 7.76h4.94m-4.94 7.76h4.94m-4.94 7.77h4.94m-4.94 7.76h4.94m-4.94 7.76h4.94m-4.94 7.77h4.94m-4.94 7.76h4.94m-4.94 7.77h4.94m-4.94 7.76h4.94m-4.94 7.76h4.94m-4.94 7.77h4.94m-4.94 7.76h4.94m-4.94 7.77h4.94m-4.94 7.76h4.94" style="opacity:1;fill:none;fill-rule:nonzero;stroke:#263238;stroke-width:1;stroke-linecap:round;stroke-linejoin:round;stroke-miterlimit:4;stroke-dasharray:none;stroke-dashoffset:0" transform="matrix(.8773 0 0 .9177 68.024 62.763)" vector-effect="non-scaling-stroke"/><path stroke-linecap="round" d="m70.39 168.6 6.94 12.03h24.31l12.15-21.05-12.15-21.05H77.33l-12.15 21.05 3.53 6.11m60.68 36.2h8.68l12.15-21.05-12.15-21.05h-24.31l-12.15 21.05 12.15 21.05h12.46m-12.61-.2-12.15-21.05H77.15L65 201.69l12.15 21.05h24.31zm24.46-41.9 6.23-13.41m-6.23 55.51 10.33 19.76m-83.22-62.07H44.43m69.72-38.77 2.2-3.12m-14.71 20.84 10.61-15.03m-35.1 99.24L65.3 236.19" style="opacity:1;fill:none;fill-rule:nonzero;stroke:#263238;stroke-width:1;stroke-linecap:butt;stroke-linejoin:miter;stroke-miterlimit:10;stroke-dasharray:none;stroke-dashoffset:0" transform="matrix(.8773 0 0 .9177 83.447 70.353)" vector-effect="non-scaling-stroke"/><path d="M299.685 103.682a7.85 7.85 0 1 0-.02 15.7 7.85 7.85 0 0 0 .02-15.7z" style="opacity:1;fill:#263238;fill-rule:nonzero;stroke:none;stroke-width:1;stroke-linecap:butt;stroke-linejoin:miter;stroke-miterlimit:4;stroke-dasharray:none;stroke-dashoffset:0" transform="matrix(.8773 0 0 .81655 83.447 82.841)" vector-effect="non-scaling-stroke"/><path d="M339.056 121.78c0-1.837-1.61-3.326-3.597-3.327a3.862 3.862 0 0 0-1.17.19 63.049 63.049 0 0 0-3.597-6.388c8.41-13.12 10.262-25.79 3.445-32.08-4.21-3.894-11.036-4.734-18.987-2.97-4.272-6.448-9.74-10.325-15.695-10.325-2.759.018-5.451.784-7.743 2.205-.874-.895-2.2-1.286-3.472-1.022-1.272.263-2.293 1.139-2.67 2.293-.379 1.154-.056 2.407.844 3.279a32.666 32.666 0 0 0-2.698 3.545c-7.95-1.764-14.777-.924-18.987 2.97-6.817 6.297-4.964 18.943 3.427 32.055a55.845 55.845 0 0 0-5.621 11.131 31.889 31.889 0 0 0-1.97 8.993c-2 .076-3.554 1.637-3.472 3.486.082 1.85 1.77 3.288 3.769 3.212.163-.005.325-.02.486-.042.636 2.005 1.797 3.834 3.381 5.325 2.789 2.587 6.755 3.893 11.585 3.893a34.21 34.21 0 0 0 7.42-.89c4.272 6.423 9.731 10.283 15.676 10.283 5.946 0 11.432-3.877 15.704-10.325 2.431.562 4.924.86 7.43.89 4.721 0 8.723-1.24 11.548-3.851 4.56-4.218 5.243-11.265 2.698-19.402 1.382-.51 2.282-1.752 2.266-3.128zm-16.576-44.7c4.497 0 8.302 1.173 10.973 3.644 6.485 5.998 4.704 18.061-3.319 30.699a79.442 79.442 0 0 0-6.494-8.486c-1.133-9.925-4.038-18.66-8.094-25.059a33.199 33.199 0 0 1 6.934-.798zm-6.206 50.749a89.05 89.05 0 0 1-16.864 12.362 89.447 89.447 0 0 1-16.863-12.354 91.432 91.432 0 0 1-6.503-6.656 82.739 82.739 0 0 1 0-17.903 90.471 90.471 0 0 1 6.503-6.656 88.97 88.97 0 0 1 16.863-12.338 88.97 88.97 0 0 1 16.864 12.338 89.776 89.776 0 0 1 6.503 6.656 82.739 82.739 0 0 1 0 17.903 91.459 91.459 0 0 1-6.503 6.64zm6.296-5.15c-1.214 9.41-4.03 17.67-7.888 23.694a59.855 59.855 0 0 1-14.39-5.707 90.24 90.24 0 0 0 16.603-12.255 91.209 91.209 0 0 0 5.693-5.74zm-24.023 17.97a63.64 63.64 0 0 1-11.45 4.9c-.994.302-1.995.58-3.003.832-3.85-6.023-6.665-14.276-7.88-23.686 1.8 1.939 3.652 3.86 5.676 5.74a90.232 90.232 0 0 0 16.675 12.206zM275.01 120a77.766 77.766 0 0 1-5.838-7.779 78.205 78.205 0 0 1 5.847-7.778 81.002 81.002 0 0 0-.378 7.787c0 2.653.153 5.233.387 7.762zm1.205-18.228c1.214-9.401 4.03-17.654 7.879-23.677a59.24 59.24 0 0 1 14.435 5.715 89.424 89.424 0 0 0-16.639 12.23q-2.986 2.787-5.657 5.724zm24.04-17.962a59.24 59.24 0 0 1 14.436-5.715c3.85 6.023 6.665 14.276 7.88 23.685-1.8-1.946-3.652-3.868-5.676-5.74a89.702 89.702 0 0 0-16.621-12.238zm23.53 20.608a78.301 78.301 0 0 1 5.837 7.778 77.27 77.27 0 0 1-5.838 7.77c.243-2.495.378-5.116.378-7.77a81.63 81.63 0 0 0-.378-7.778zm-36.723-30.283c.59.36 1.28.55 1.987.549.954 0 1.87-.35 2.544-.975a3.206 3.206 0 0 0 1.054-2.353 3.137 3.137 0 0 0-.44-1.58c2.13-1.32 4.63-2.037 7.194-2.064 5.604 0 10.793 3.636 14.832 9.7a61.13 61.13 0 0 0-14.832 5.949 61.27 61.27 0 0 0-14.83-5.949 30.806 30.806 0 0 1 2.49-3.277zm-21.703 6.589c2.698-2.496 6.476-3.644 10.982-3.644 2.335.034 4.658.313 6.925.832-4.047 6.397-6.952 15.133-8.095 25.05a79.646 79.646 0 0 0-6.511 8.477c-7.996-12.67-9.768-24.725-3.301-30.715zm0 62.987a11.667 11.667 0 0 1-3.139-4.934c1.561-.521 2.534-1.963 2.355-3.49-.18-1.526-1.464-2.74-3.11-2.94a31.16 31.16 0 0 1 1.924-8.753 54.622 54.622 0 0 1 5.289-10.582 80.471 80.471 0 0 0 6.502 8.494c1.134 9.917 4.039 18.652 8.095 25.05-7.753 1.68-14.049.715-17.916-2.845zm34.051 13.045c-5.594 0-10.73-3.62-14.804-9.651.9-.225 1.799-.483 2.797-.774a64.97 64.97 0 0 0 12.043-5.208 61.3 61.3 0 0 0 14.796 5.932c-4.075 6.065-9.228 9.7-14.832 9.7zm34.043-13.045c-3.957 3.668-10.38 4.467-17.898 2.845 4.047-6.39 6.952-15.125 8.094-25.05a79.508 79.508 0 0 0 6.494-8.494 60.838 60.838 0 0 1 3.328 5.94c-1.425.771-2.1 2.34-1.637 3.807.464 1.466 1.947 2.452 3.597 2.391.178-.008.355-.025.531-.05 2.519 7.829 1.844 14.592-2.509 18.61z" style="opacity:1;fill:#263238;fill-rule:nonzero;stroke:none;stroke-width:.87;stroke-linecap:butt;stroke-linejoin:miter;stroke-miterlimit:4;stroke-dasharray:none;stroke-dashoffset:0" transform="matrix(.8773 0 0 .9177 83.456 70.353)" vector-effect="non-scaling-stroke"/><path stroke-linecap="round" d="M401.65 168.3c6.1 3.55 13.68 4.64 22.18 3.11a51.66 51.66 0 0 0 12.76-4.08l.16-.08.11-.05.11-.06.15-.07a52.41 52.41 0 0 0 11-7.68c6.37-5.84 10.1-12.52 11-19.53 6.11 3.55 13.69 4.63 22.19 3.11a50.86 50.86 0 0 0 13.28-4.34l-1.85-3.55a44.07 44.07 0 0 1-6 2.38l-12.86-26a45.45 45.45 0 0 1 5.54-3.34l-1.7-3.62a50.76 50.76 0 0 0-11.51 7.94c-6.36 5.83-10.1 12.52-11 19.53-6.11-3.56-13.69-4.64-22.18-3.11a52.17 52.17 0 0 0-12.82 4.14l-.13.06-.11.06-.11.06-.14.06a52.14 52.14 0 0 0-11 7.69c-6.37 5.84-10.1 12.52-11 19.53-6.1-3.55-13.68-4.63-22.18-3.11a51 51 0 0 0-13.29 4.34l1.86 3.55a41.79 41.79 0 0 1 5-2.07l13 26.23a43.39 43.39 0 0 1-4.7 2.77l1.7 3.62a50.82 50.82 0 0 0 11.5-7.94c6.39-5.85 10.16-12.54 11.04-19.55zm13.56-27.51 12.65 25.55a43 43 0 0 1-9.07 1.64L408.4 147a42.69 42.69 0 0 1 6.81-6.21zm6.54-4.1a37.67 37.67 0 0 1 3.69-1.56l13.12 26.49c-1.83 1.15-3.17 1.84-3.55 2a43.839 43.839 0 0 1-4.85 2l-13-26.21c1.472-1 3.005-1.91 4.59-2.72zm18.8 23.59-12.84-25.93a44.56 44.56 0 0 1 10.33-2l10.39 21a44 44 0 0 1-7.88 6.93zm43.81-22.14a43.37 43.37 0 0 1-7.77 1.36l-10.51-21.22a43.63 43.63 0 0 1 5.79-5.36zm-19.94-17.85L474 139.6a24.46 24.46 0 0 1-15-4.6 24.46 24.46 0 0 1 5.42-14.71zm-9.15 16.56a24.36 24.36 0 0 1-5.2 14.41l-9.41-19a24.32 24.32 0 0 1 14.61 4.59zm-48.52 12.2 9.42 19a24.27 24.27 0 0 1-14.61-4.61 24.3 24.3 0 0 1 5.19-14.39zm-8.91 16.24a24.29 24.29 0 0 1-5.14 14.33l-9.38-18.93a24.2 24.2 0 0 1 14.52 4.6zm-26.51-2.82a43.75 43.75 0 0 1 9.37-1.72l10.35 20.91a43.14 43.14 0 0 1-7 6.43z" style="opacity:1;fill:none;fill-rule:nonzero;stroke:#263238;stroke-width:1;stroke-linecap:butt;stroke-linejoin:miter;stroke-miterlimit:10;stroke-dasharray:none;stroke-dashoffset:0" transform="matrix(.8773 0 0 .9177 75.447 76.362)" vector-effect="non-scaling-stroke"/><circle r="12.82" style="opacity:1;fill:none;fill-rule:nonzero;stroke:#263238;stroke-width:1;stroke-linecap:butt;stroke-linejoin:miter;stroke-miterlimit:10;stroke-dasharray:none;stroke-dashoffset:0" transform="matrix(.20178 -.89017 .85098 .21107 501.938 284.664)" vector-effect="non-scaling-stroke"/><path stroke-linecap="round" d="M525.17 192.28a6.93 6.93 0 1 1-13.86 0 6.93 6.93 0 0 1 13.86 0zM468.35 194a4.51 4.51 0 1 1-9.02 0 4.51 4.51 0 0 1 9.02 0z" style="opacity:1;fill:none;fill-rule:nonzero;stroke:#263238;stroke-width:1;stroke-linecap:butt;stroke-linejoin:miter;stroke-miterlimit:10;stroke-dasharray:none;stroke-dashoffset:0" transform="matrix(.8773 0 0 .9177 83.447 70.353)" vector-effect="non-scaling-stroke"/><circle r="5.54" style="opacity:1;fill:none;fill-rule:nonzero;stroke:#263238;stroke-width:1;stroke-linecap:butt;stroke-linejoin:miter;stroke-miterlimit:10;stroke-dasharray:none;stroke-dashoffset:0" transform="matrix(.8773 0 0 .9177 537.486 327.576)" vector-effect="non-scaling-stroke"/><circle r="4.85" style="opacity:1;fill:none;fill-rule:nonzero;stroke:#263238;stroke-width:1;stroke-linecap:butt;stroke-linejoin:miter;stroke-miterlimit:10;stroke-dasharray:none;stroke-dashoffset:0" transform="matrix(.8773 0 0 .9177 471.224 307.222)" vector-effect="non-scaling-stroke"/><circle r="4.85" style="opacity:1;fill:none;fill-rule:nonzero;stroke:#263238;stroke-width:1;stroke-linecap:butt;stroke-linejoin:miter;stroke-miterlimit:10;stroke-dasharray:none;stroke-dashoffset:0" transform="matrix(.8773 0 0 .9177 500.604 315.848)" vector-effect="non-scaling-stroke"/><path stroke-linecap="round" d="M451.33 227.77a10.29 10.29 0 1 1 2.67-3.47" style="opacity:1;fill:none;fill-rule:nonzero;stroke:#263238;stroke-width:1;stroke-linecap:butt;stroke-linejoin:miter;stroke-miterlimit:10;stroke-dasharray:none;stroke-dashoffset:0" transform="matrix(.8773 0 0 .9177 83.439 70.362)" vector-effect="non-scaling-stroke"/><circle r="4.46" style="opacity:1;fill:none;fill-rule:nonzero;stroke:#263238;stroke-width:1;stroke-linecap:butt;stroke-linejoin:miter;stroke-miterlimit:10;stroke-dasharray:none;stroke-dashoffset:0" transform="matrix(.8773 0 0 .9177 542.004 263.126)" vector-effect="non-scaling-stroke"/><path stroke-linecap="round" d="m465.35 198.16 6.94 22.63m33.09-14.74 8.36-8.78m-26.44 27.78 15.82-16.62m-18.38 35.04 28.33 32.66m-66.99-21.29 21.06-12.99m-227.25-.53c-1.17-5.94-1.93-7.19-6.53-10.75l13.51-23.37c10.2 3.44 22.23 24 19.91 34.12zM221 251.92c4.71 2.18 6.19 2.22 12.32.4l13.52 23.39c-11.53 7.08-28.14 6.88-39.39-.35zm-13.55-44.41c4.5 7.78 9 15.58 13.36 23.12a36 36 0 0 0-4 4.86 34.5 34.5 0 0 0-2.08 5.84H188c-1.26-11.57 9-29.51 19.45-33.82zm19.93 41.91a7.91 7.91 0 1 1 .661-15.806 7.91 7.91 0 0 1-.661 15.806z" style="opacity:1;fill:none;fill-rule:nonzero;stroke:#263238;stroke-width:1;stroke-linecap:butt;stroke-linejoin:miter;stroke-miterlimit:10;stroke-dasharray:none;stroke-dashoffset:0" transform="matrix(.8773 0 0 .9177 83.439 70.353)" vector-effect="non-scaling-stroke"/><path stroke-linecap="round" d="M121.19 92.56c4 8.44 15.68 14.56 29.48 14.56s25.5-6.12 29.49-14.56z" style="opacity:1;fill:#fff;fill-rule:nonzero;stroke:#263238;stroke-width:1;stroke-linecap:round;stroke-linejoin:round;stroke-miterlimit:4;stroke-dasharray:none;stroke-dashoffset:0" transform="matrix(.71061 0 0 .74334 145.252 94.21)" vector-effect="non-scaling-stroke"/><path stroke-linecap="round" d="M100.76 95.8h99.52l-49.76-20.81Z" style="opacity:1;fill:#263238;fill-rule:nonzero;stroke:#263238;stroke-width:1;stroke-linecap:round;stroke-linejoin:round;stroke-miterlimit:4;stroke-dasharray:none;stroke-dashoffset:0" transform="matrix(.71061 0 0 .74334 145.182 94.14)" vector-effect="non-scaling-stroke"/><path stroke-linecap="round" d="M136.41 67.07h28.22v16.38h-28.22z" style="opacity:1;fill:#263238;fill-rule:nonzero;stroke:#263238;stroke-width:1;stroke-linecap:round;stroke-linejoin:round;stroke-miterlimit:4;stroke-dasharray:none;stroke-dashoffset:0" transform="matrix(.71061 0 0 .74334 145.313 94.1)" vector-effect="non-scaling-stroke"/><path stroke-linecap="round" d="M150.52 67.98V27.02" style="opacity:1;fill:none;fill-rule:nonzero;stroke:#263238;stroke-width:4;stroke-linecap:round;stroke-linejoin:round;stroke-miterlimit:4;stroke-dasharray:none;stroke-dashoffset:0" transform="matrix(.71061 0 0 .74334 145.375 93.94)" vector-effect="non-scaling-stroke"/><path stroke-linecap="round" d="M538.12 92.56c4 8.44 15.67 14.56 29.48 14.56s25.5-6.12 29.48-14.56z" style="opacity:1;fill:#fff;fill-rule:nonzero;stroke:#263238;stroke-width:1;stroke-linecap:round;stroke-linejoin:round;stroke-miterlimit:4;stroke-dasharray:none;stroke-dashoffset:0" transform="matrix(.71061 0 0 .74334 134.88 94.21)" vector-effect="non-scaling-stroke"/><path stroke-linecap="round" d="M517.69 95.8h99.52l-49.76-20.81Z" style="opacity:1;fill:#263238;fill-rule:nonzero;stroke:#263238;stroke-width:1;stroke-linecap:round;stroke-linejoin:round;stroke-miterlimit:4;stroke-dasharray:none;stroke-dashoffset:0" transform="matrix(.71061 0 0 .74334 134.802 94.14)" vector-effect="non-scaling-stroke"/><path stroke-linecap="round" d="M553.34 67.07h28.22v16.38h-28.22z" style="opacity:1;fill:#263238;fill-rule:nonzero;stroke:#263238;stroke-width:1;stroke-linecap:round;stroke-linejoin:round;stroke-miterlimit:4;stroke-dasharray:none;stroke-dashoffset:0" transform="matrix(.71061 0 0 .74334 134.933 94.1)" vector-effect="non-scaling-stroke"/><path stroke-linecap="round" d="M567.45 67.98V27.02" style="opacity:1;fill:none;fill-rule:nonzero;stroke:#263238;stroke-width:4;stroke-linecap:round;stroke-linejoin:round;stroke-miterlimit:4;stroke-dasharray:none;stroke-dashoffset:0" transform="matrix(.71061 0 0 .74334 134.995 93.94)" vector-effect="non-scaling-stroke"/><path d="M-391.873 189.594h778.801" style="fill:#000;fill-opacity:1;fill-rule:evenodd;stroke:#000;stroke-width:1.11448;stroke-linecap:round;stroke-dasharray:none;stroke-opacity:1" transform="matrix(.8773 0 0 .9177 403.557 291.19)"/></svg>