<svg xmlns="http://www.w3.org/2000/svg" width="144.99" height="143.265" viewBox="0 0 38.362 37.906"><g transform="translate(-137.446 -24.569)"><path d="M165.417 32.478c6.83-5.384 13.034 0 13.034 0" style="fill:none;fill-opacity:1;stroke:#000;stroke-width:.264583;stroke-dasharray:none;stroke-opacity:1" transform="matrix(.4049 0 0 .49553 99.864 14.854)"/><path d="M167.26 29.84c2.314-1.544 4.415 0 4.415 0" style="fill:none;fill-opacity:1;stroke:#000;stroke-width:.109942;stroke-dasharray:none;stroke-opacity:1"/><path d="M168.156 28.928c1.411-.612 2.693 0 2.693 0" style="fill:none;fill-opacity:1;stroke:#000;stroke-width:.084;stroke-dasharray:none;stroke-opacity:1"/><circle cx="169.458" cy="32.723" r="2.501" style="fill:#0a3d62;fill-opacity:1;stroke-width:.762926"/><path d="M168.817 28.37a1.81 1.81 0 0 1 1.395 0" style="fill:none;fill-opacity:1;stroke:#000;stroke-width:.0435308;stroke-dasharray:none;stroke-opacity:1"/></g><g transform="rotate(65.75 109.243 -85.072)"><path d="M165.417 32.478c6.83-5.384 13.034 0 13.034 0" style="fill:none;fill-opacity:1;stroke:#000;stroke-width:.264583;stroke-dasharray:none;stroke-opacity:1" transform="matrix(.4049 0 0 .49553 99.864 14.854)"/><path d="M167.26 29.84c2.314-1.544 4.415 0 4.415 0" style="fill:none;fill-opacity:1;stroke:#000;stroke-width:.109942;stroke-dasharray:none;stroke-opacity:1"/><path d="M168.156 28.928c1.411-.612 2.693 0 2.693 0" style="fill:none;fill-opacity:1;stroke:#000;stroke-width:.084;stroke-dasharray:none;stroke-opacity:1"/><circle cx="169.458" cy="32.723" r="2.501" style="fill:#0a3d62;fill-opacity:1;stroke-width:.762926"/><path d="M168.817 28.37a1.81 1.81 0 0 1 1.395 0" style="fill:none;fill-opacity:1;stroke:#000;stroke-width:.0435308;stroke-dasharray:none;stroke-opacity:1"/></g><g transform="rotate(-35.258 97.585 271.11)"><path d="M165.417 32.478c6.83-5.384 13.034 0 13.034 0" style="fill:none;fill-opacity:1;stroke:#000;stroke-width:.264583;stroke-dasharray:none;stroke-opacity:1" transform="matrix(.4049 0 0 .49553 99.864 14.854)"/><path d="M167.26 29.84c2.314-1.544 4.415 0 4.415 0" style="fill:none;fill-opacity:1;stroke:#000;stroke-width:.109942;stroke-dasharray:none;stroke-opacity:1"/><path d="M168.156 28.928c1.411-.612 2.693 0 2.693 0" style="fill:none;fill-opacity:1;stroke:#000;stroke-width:.084;stroke-dasharray:none;stroke-opacity:1"/><circle cx="169.458" cy="32.723" r="2.501" style="fill:#0a3d62;fill-opacity:1;stroke-width:.762926"/><path d="M168.817 28.37a1.81 1.81 0 0 1 1.395 0" style="fill:none;fill-opacity:1;stroke:#000;stroke-width:.0435308;stroke-dasharray:none;stroke-opacity:1"/></g><g transform="rotate(11.273 151.149 -770.238)"><path d="M165.417 32.478c6.83-5.384 13.034 0 13.034 0" style="fill:none;fill-opacity:1;stroke:#000;stroke-width:.264583;stroke-dasharray:none;stroke-opacity:1" transform="matrix(.4049 0 0 .49553 99.864 14.854)"/><path d="M167.26 29.84c2.314-1.544 4.415 0 4.415 0" style="fill:none;fill-opacity:1;stroke:#000;stroke-width:.109942;stroke-dasharray:none;stroke-opacity:1"/><path d="M168.156 28.928c1.411-.612 2.693 0 2.693 0" style="fill:none;fill-opacity:1;stroke:#000;stroke-width:.084;stroke-dasharray:none;stroke-opacity:1"/><circle cx="169.458" cy="32.723" r="2.501" style="fill:#0a3d62;fill-opacity:1;stroke-width:.762926"/><path d="M168.817 28.37a1.81 1.81 0 0 1 1.395 0" style="fill:none;fill-opacity:1;stroke:#000;stroke-width:.0435308;stroke-dasharray:none;stroke-opacity:1"/></g><g transform="rotate(-48.356 56.55 199.388)"><path d="M165.417 32.478c6.83-5.384 13.034 0 13.034 0" style="fill:none;fill-opacity:1;stroke:#000;stroke-width:.264583;stroke-dasharray:none;stroke-opacity:1" transform="matrix(.4049 0 0 .49553 99.864 14.854)"/><path d="M167.26 29.84c2.314-1.544 4.415 0 4.415 0" style="fill:none;fill-opacity:1;stroke:#000;stroke-width:.109942;stroke-dasharray:none;stroke-opacity:1"/><path d="M168.156 28.928c1.411-.612 2.693 0 2.693 0" style="fill:none;fill-opacity:1;stroke:#000;stroke-width:.084;stroke-dasharray:none;stroke-opacity:1"/><circle cx="169.458" cy="32.723" r="2.501" style="fill:#0a3d62;fill-opacity:1;stroke-width:.762926"/><path d="M168.817 28.37a1.81 1.81 0 0 1 1.395 0" style="fill:none;fill-opacity:1;stroke:#000;stroke-width:.0435308;stroke-dasharray:none;stroke-opacity:1"/></g><g transform="rotate(-179.054 99.234 29.796)"><path d="M165.417 32.478c6.83-5.384 13.034 0 13.034 0" style="fill:none;fill-opacity:1;stroke:#000;stroke-width:.264583;stroke-dasharray:none;stroke-opacity:1" transform="matrix(.4049 0 0 .49553 99.864 14.854)"/><path d="M167.26 29.84c2.314-1.544 4.415 0 4.415 0" style="fill:none;fill-opacity:1;stroke:#000;stroke-width:.109942;stroke-dasharray:none;stroke-opacity:1"/><path d="M168.156 28.928c1.411-.612 2.693 0 2.693 0" style="fill:none;fill-opacity:1;stroke:#000;stroke-width:.084;stroke-dasharray:none;stroke-opacity:1"/><circle cx="169.458" cy="32.723" r="2.501" style="fill:#0a3d62;fill-opacity:1;stroke-width:.762926"/><path d="M168.817 28.37a1.81 1.81 0 0 1 1.395 0" style="fill:none;fill-opacity:1;stroke:#000;stroke-width:.0435308;stroke-dasharray:none;stroke-opacity:1"/></g><g transform="rotate(4.846 169.786 -1745.594)"><path d="M165.417 32.478c6.83-5.384 13.034 0 13.034 0" style="fill:none;fill-opacity:1;stroke:#000;stroke-width:.264583;stroke-dasharray:none;stroke-opacity:1" transform="matrix(.4049 0 0 .49553 99.864 14.854)"/><path d="M167.26 29.84c2.314-1.544 4.415 0 4.415 0" style="fill:none;fill-opacity:1;stroke:#000;stroke-width:.109942;stroke-dasharray:none;stroke-opacity:1"/><path d="M168.156 28.928c1.411-.612 2.693 0 2.693 0" style="fill:none;fill-opacity:1;stroke:#000;stroke-width:.084;stroke-dasharray:none;stroke-opacity:1"/><circle cx="169.458" cy="32.723" r="2.501" style="fill:#0a3d62;fill-opacity:1;stroke-width:.762926"/><path d="M168.817 28.37a1.81 1.81 0 0 1 1.395 0" style="fill:none;fill-opacity:1;stroke:#000;stroke-width:.0435308;stroke-dasharray:none;stroke-opacity:1"/></g><g transform="rotate(-149.319 91.532 42.713)"><path d="M165.417 32.478c6.83-5.384 13.034 0 13.034 0" style="fill:none;fill-opacity:1;stroke:#000;stroke-width:.264583;stroke-dasharray:none;stroke-opacity:1" transform="matrix(.4049 0 0 .49553 99.864 14.854)"/><path d="M167.26 29.84c2.314-1.544 4.415 0 4.415 0" style="fill:none;fill-opacity:1;stroke:#000;stroke-width:.109942;stroke-dasharray:none;stroke-opacity:1"/><path d="M168.156 28.928c1.411-.612 2.693 0 2.693 0" style="fill:none;fill-opacity:1;stroke:#000;stroke-width:.084;stroke-dasharray:none;stroke-opacity:1"/><circle cx="169.458" cy="32.723" r="2.501" style="fill:#0a3d62;fill-opacity:1;stroke-width:.762926"/><path d="M168.817 28.37a1.81 1.81 0 0 1 1.395 0" style="fill:none;fill-opacity:1;stroke:#000;stroke-width:.0435308;stroke-dasharray:none;stroke-opacity:1"/></g><g transform="rotate(135.974 102.671 -11.86)"><path d="M165.417 32.478c6.83-5.384 13.034 0 13.034 0" style="fill:none;fill-opacity:1;stroke:#000;stroke-width:.264583;stroke-dasharray:none;stroke-opacity:1" transform="matrix(.4049 0 0 .49553 99.864 14.854)"/><path d="M167.26 29.84c2.314-1.544 4.415 0 4.415 0" style="fill:none;fill-opacity:1;stroke:#000;stroke-width:.109942;stroke-dasharray:none;stroke-opacity:1"/><path d="M168.156 28.928c1.411-.612 2.693 0 2.693 0" style="fill:none;fill-opacity:1;stroke:#000;stroke-width:.084;stroke-dasharray:none;stroke-opacity:1"/><circle cx="169.458" cy="32.723" r="2.501" style="fill:#0a3d62;fill-opacity:1;stroke-width:.762926"/><path d="M168.817 28.37a1.81 1.81 0 0 1 1.395 0" style="fill:none;fill-opacity:1;stroke:#000;stroke-width:.0435308;stroke-dasharray:none;stroke-opacity:1"/></g><g transform="rotate(85.521 105.585 -63.707)"><path d="M165.417 32.478c6.83-5.384 13.034 0 13.034 0" style="fill:none;fill-opacity:1;stroke:#000;stroke-width:.264583;stroke-dasharray:none;stroke-opacity:1" transform="matrix(.4049 0 0 .49553 99.864 14.854)"/><path d="M167.26 29.84c2.314-1.544 4.415 0 4.415 0" style="fill:none;fill-opacity:1;stroke:#000;stroke-width:.109942;stroke-dasharray:none;stroke-opacity:1"/><path d="M168.156 28.928c1.411-.612 2.693 0 2.693 0" style="fill:none;fill-opacity:1;stroke:#000;stroke-width:.084;stroke-dasharray:none;stroke-opacity:1"/><circle cx="169.458" cy="32.723" r="2.501" style="fill:#0a3d62;fill-opacity:1;stroke-width:.762926"/><path d="M168.817 28.37a1.81 1.81 0 0 1 1.395 0" style="fill:none;fill-opacity:1;stroke:#000;stroke-width:.0435308;stroke-dasharray:none;stroke-opacity:1"/></g><g transform="rotate(11.273 128.44 -805.802)"><path d="M165.417 32.478c6.83-5.384 13.034 0 13.034 0" style="fill:none;fill-opacity:1;stroke:#000;stroke-width:.264583;stroke-dasharray:none;stroke-opacity:1" transform="matrix(.4049 0 0 .49553 99.864 14.854)"/><path d="M167.26 29.84c2.314-1.544 4.415 0 4.415 0" style="fill:none;fill-opacity:1;stroke:#000;stroke-width:.109942;stroke-dasharray:none;stroke-opacity:1"/><path d="M168.156 28.928c1.411-.612 2.693 0 2.693 0" style="fill:none;fill-opacity:1;stroke:#000;stroke-width:.084;stroke-dasharray:none;stroke-opacity:1"/><circle cx="-170.04" cy="29.548" r="2.501" style="fill:#0a3d62;fill-opacity:1;stroke-width:.762926" transform="rotate(-159.213)"/><path d="M168.817 28.37a1.81 1.81 0 0 1 1.395 0" style="fill:none;fill-opacity:1;stroke:#000;stroke-width:.0435308;stroke-dasharray:none;stroke-opacity:1"/></g><g transform="rotate(126.375 100.812 -2.024)"><path d="M165.417 32.478c6.83-5.384 13.034 0 13.034 0" style="fill:none;fill-opacity:1;stroke:#000;stroke-width:.264583;stroke-dasharray:none;stroke-opacity:1" transform="matrix(.4049 0 0 .49553 99.864 14.854)"/><path d="M167.26 29.84c2.314-1.544 4.415 0 4.415 0" style="fill:none;fill-opacity:1;stroke:#000;stroke-width:.109942;stroke-dasharray:none;stroke-opacity:1"/><path d="M168.156 28.928c1.411-.612 2.693 0 2.693 0" style="fill:none;fill-opacity:1;stroke:#000;stroke-width:.084;stroke-dasharray:none;stroke-opacity:1"/><circle cx="169.458" cy="32.723" r="2.501" style="fill:#0a3d62;fill-opacity:1;stroke-width:.762926"/><path d="M168.817 28.37a1.81 1.81 0 0 1 1.395 0" style="fill:none;fill-opacity:1;stroke:#000;stroke-width:.0435308;stroke-dasharray:none;stroke-opacity:1"/></g><g transform="rotate(-91.256 94.455 91.215)"><path d="M165.417 32.478c6.83-5.384 13.034 0 13.034 0" style="fill:none;fill-opacity:1;stroke:#000;stroke-width:.264583;stroke-dasharray:none;stroke-opacity:1" transform="matrix(.4049 0 0 .49553 99.864 14.854)"/><path d="M167.26 29.84c2.314-1.544 4.415 0 4.415 0" style="fill:none;fill-opacity:1;stroke:#000;stroke-width:.109942;stroke-dasharray:none;stroke-opacity:1"/><path d="M168.156 28.928c1.411-.612 2.693 0 2.693 0" style="fill:none;fill-opacity:1;stroke:#000;stroke-width:.084;stroke-dasharray:none;stroke-opacity:1"/><circle cx="169.458" cy="32.723" r="2.501" style="fill:#0a3d62;fill-opacity:1;stroke-width:.762926"/><path d="M168.817 28.37a1.81 1.81 0 0 1 1.395 0" style="fill:none;fill-opacity:1;stroke:#000;stroke-width:.0435308;stroke-dasharray:none;stroke-opacity:1"/></g><g transform="rotate(-71.451 83.997 128.5)"><path d="M165.417 32.478c6.83-5.384 13.034 0 13.034 0" style="fill:none;fill-opacity:1;stroke:#000;stroke-width:.264583;stroke-dasharray:none;stroke-opacity:1" transform="matrix(.4049 0 0 .49553 99.864 14.854)"/><path d="M167.26 29.84c2.314-1.544 4.415 0 4.415 0" style="fill:none;fill-opacity:1;stroke:#000;stroke-width:.109942;stroke-dasharray:none;stroke-opacity:1"/><path d="M168.156 28.928c1.411-.612 2.693 0 2.693 0" style="fill:none;fill-opacity:1;stroke:#000;stroke-width:.084;stroke-dasharray:none;stroke-opacity:1"/><circle cx="169.458" cy="32.723" r="2.501" style="fill:#0a3d62;fill-opacity:1;stroke-width:.762926"/><path d="M168.817 28.37a1.81 1.81 0 0 1 1.395 0" style="fill:none;fill-opacity:1;stroke:#000;stroke-width:.0435308;stroke-dasharray:none;stroke-opacity:1"/></g><g transform="rotate(76.5 97.925 -80.63)"><path d="M165.417 32.478c6.83-5.384 13.034 0 13.034 0" style="fill:none;fill-opacity:1;stroke:#000;stroke-width:.264583;stroke-dasharray:none;stroke-opacity:1" transform="matrix(.4049 0 0 .49553 99.864 14.854)"/><path d="M167.26 29.84c2.314-1.544 4.415 0 4.415 0" style="fill:none;fill-opacity:1;stroke:#000;stroke-width:.109942;stroke-dasharray:none;stroke-opacity:1"/><path d="M168.156 28.928c1.411-.612 2.693 0 2.693 0" style="fill:none;fill-opacity:1;stroke:#000;stroke-width:.084;stroke-dasharray:none;stroke-opacity:1"/><circle cx="169.458" cy="32.723" r="2.501" style="fill:#0a3d62;fill-opacity:1;stroke-width:.762926"/><path d="M168.817 28.37a1.81 1.81 0 0 1 1.395 0" style="fill:none;fill-opacity:1;stroke:#000;stroke-width:.0435308;stroke-dasharray:none;stroke-opacity:1"/></g><g transform="rotate(11.273 85.02 -794.046)"><path d="M165.417 32.478c6.83-5.384 13.034 0 13.034 0" style="fill:none;fill-opacity:1;stroke:#000;stroke-width:.264583;stroke-dasharray:none;stroke-opacity:1" transform="matrix(.4049 0 0 .49553 99.864 14.854)"/><path d="M167.26 29.84c2.314-1.544 4.415 0 4.415 0" style="fill:none;fill-opacity:1;stroke:#000;stroke-width:.109942;stroke-dasharray:none;stroke-opacity:1"/><path d="M168.156 28.928c1.411-.612 2.693 0 2.693 0" style="fill:none;fill-opacity:1;stroke:#000;stroke-width:.084;stroke-dasharray:none;stroke-opacity:1"/><circle cx="169.458" cy="32.723" r="2.501" style="fill:#0a3d62;fill-opacity:1;stroke-width:.762926"/><path d="M168.817 28.37a1.81 1.81 0 0 1 1.395 0" style="fill:none;fill-opacity:1;stroke:#000;stroke-width:.0435308;stroke-dasharray:none;stroke-opacity:1"/></g><path d="m130.198 32.892.33 36.44h37.032v-36.55" style="fill:none;fill-opacity:1;stroke:#000;stroke-width:1;stroke-opacity:1" transform="translate(-129.698 -31.926)"/></svg>