<?xml version="1.0" encoding="UTF-8" standalone="no"?>
<svg
   width="264"
   height="280"
   version="1.1"
   id="svg129"
   sodipodi:docname="sara.svg"
   inkscape:export-filename="sara.svg"
   inkscape:export-xdpi="96"
   inkscape:export-ydpi="96"
   inkscape:version="1.2.2 (b0a8486541, 2022-12-01)"
   xmlns:inkscape="http://www.inkscape.org/namespaces/inkscape"
   xmlns:sodipodi="http://sodipodi.sourceforge.net/DTD/sodipodi-0.dtd"
   xmlns:xlink="http://www.w3.org/1999/xlink"
   xmlns="http://www.w3.org/2000/svg"
   xmlns:svg="http://www.w3.org/2000/svg">
  <sodipodi:namedview
     id="namedview74"
     pagecolor="#ffffff"
     bordercolor="#000000"
     borderopacity="0.25"
     inkscape:showpageshadow="2"
     inkscape:pageopacity="0.0"
     inkscape:pagecheckerboard="0"
     inkscape:deskcolor="#d1d1d1"
     showgrid="false"
     inkscape:zoom="0.24780305"
     inkscape:cx="-1763.4973"
     inkscape:cy="50.443286"
     inkscape:window-width="1920"
     inkscape:window-height="1011"
     inkscape:window-x="0"
     inkscape:window-y="0"
     inkscape:window-maximized="1"
     inkscape:current-layer="svg129" />
  <defs
     id="defs5">
    <path
       id="c"
       d="m 12,160 c 0,66.274 53.726,120 120,120 66.274,0 120,-53.726 120,-120 h 12 V 0 H 0 v 160 z" />
    <path
       id="e"
       d="M 124,144.611 V 163 h 4 c 39.765,0 72,32.235 72,72 v 9 H 0 v -9 c 0,-39.765 32.235,-72 72,-72 h 4 V 144.611 C 58.763,136.422 46.372,119.687 44.305,99.881 38.48,99.058 34,94.052 34,88 V 74 C 34,68.054 38.325,63.118 44,62.166 V 56 C 44,25.072 69.072,0 100,0 c 30.928,0 56,25.072 56,56 v 6.166 c 5.675,0.952 10,5.888 10,11.834 v 14 c 0,6.052 -4.48,11.058 -10.305,11.881 -2.067,19.806 -14.458,36.541 -31.695,44.73 z" />
    <circle
       id="a"
       cx="120"
       cy="120"
       r="120" />
  </defs>
  <g
     fill="none"
     fill-rule="evenodd"
     id="g127">
    <g
       transform="translate(12,40)"
       id="g16"
       style="display:inline">
      <mask
         id="b"
         fill="#ffffff">
        <use
           xlink:href="#a"
           id="use7" />
      </mask>
      <use
         xlink:href="#a"
         fill="#e6e6e6"
         id="use10" />
      <g
         fill="#65c9ff"
         mask="url(#b)"
         id="g14"
         style="display:none">
        <path
           d="M 0,0 H 240 V 240 H 0 Z"
           id="path12" />
      </g>
    </g>
    <mask
       id="d"
       fill="#ffffff">
      <use
         xlink:href="#c"
         id="use18" />
    </mask>
    <g
       mask="url(#d)"
       id="g125"
       style="display:inline">
      <g
         transform="translate(32,36)"
         id="g32">
        <mask
           id="f"
           fill="#ffffff">
          <use
             xlink:href="#e"
             id="use21" />
        </mask>
        <use
           xlink:href="#e"
           fill="#d0c6ac"
           id="use24" />
        <g
           fill="#614335"
           mask="url(#f)"
           id="g28">
          <path
             d="M 0,0 H 264 V 280 H 0 Z"
             id="path26" />
        </g>
        <path
           fill="#000000"
           fill-opacity="0.1"
           d="m 156,79 v 23 c 0,30.928 -25.072,56 -56,56 -30.928,0 -56,-25.072 -56,-56 V 79 94 c 0,30.928 25.072,56 56,56 30.928,0 56,-25.072 56,-56 z"
           mask="url(#f)"
           id="path30" />
      </g>
      <g
         transform="translate(0,170)"
         id="g50">
        <defs
           id="defs35">
          <path
             id="g"
             d="M 94,29.688 V 74 h 76 V 29.688 a 71.525,71.525 0 0 1 26,8.944 V 110 H 68 V 38.632 a 71.525,71.525 0 0 1 26,-8.944 z" />
        </defs>
        <mask
           id="h"
           fill="#ffffff">
          <use
             xlink:href="#g"
             id="use37" />
        </mask>
        <use
           xlink:href="#g"
           fill="#b7c1db"
           id="use40" />
        <g
           fill="#ffffff"
           mask="url(#h)"
           id="g44">
          <path
             d="M 0,0 H 264 V 110 H 0 Z"
             id="path42" />
        </g>
        <circle
           cx="81"
           cy="83"
           r="5"
           fill="#f4f4f4"
           id="circle46" />
        <circle
           cx="183"
           cy="83"
           r="5"
           fill="#f4f4f4"
           id="circle48" />
      </g>
      <g
         fill="#000000"
         id="g82">
        <g
           transform="translate(78,134)"
           id="g70">
          <defs
             id="defs53">
            <path
               id="i"
               d="M 35.118,15.128 C 36.176,24.62 44.226,32 54,32 63.804,32 71.874,24.574 72.892,15.04 72.974,14.273 72.117,13 71.042,13 H 37.088 c -1.08,0 -2.075,1.178 -1.97,2.128 z" />
          </defs>
          <mask
             id="j"
             fill="#ffffff">
            <use
               xlink:href="#i"
               id="use55" />
          </mask>
          <use
             xlink:href="#i"
             fill-opacity="0.7"
             id="use58" />
          <rect
             width="31"
             height="16"
             x="39"
             y="2"
             fill="#ffffff"
             mask="url(#j)"
             rx="5"
             id="rect60" />
          <g
             fill="#ff4f6d"
             mask="url(#j)"
             id="g68">
            <g
               transform="translate(38,24)"
               id="g66">
              <circle
                 cx="11"
                 cy="11"
                 r="11"
                 id="circle62" />
              <circle
                 cx="21"
                 cy="11"
                 r="11"
                 id="circle64" />
            </g>
          </g>
        </g>
        <path
           fill-opacity="0.16"
           d="m 120,130 c 0,4.418 5.373,8 12,8 6.627,0 12,-3.582 12,-8"
           id="path72" />
        <g
           fill-opacity="0.6"
           id="g76">
          <path
             d="m 92.16,112.447 c 1.847,-3.798 6.004,-6.447 10.838,-6.447 4.816,0 8.961,2.63 10.817,6.407 0.552,1.122 -0.233,2.04 -1.024,1.36 -2.451,-2.107 -5.932,-3.423 -9.793,-3.423 -3.74,0 -7.124,1.235 -9.56,3.228 -0.891,0.728 -1.818,-0.014 -1.278,-1.125 z m 58,0 c 1.847,-3.798 6.004,-6.447 10.838,-6.447 4.816,0 8.961,2.63 10.817,6.407 0.552,1.122 -0.233,2.04 -1.024,1.36 -2.451,-2.107 -5.932,-3.423 -9.793,-3.423 -3.74,0 -7.124,1.235 -9.56,3.228 -0.891,0.728 -1.818,-0.014 -1.278,-1.125 z"
             id="path74" />
        </g>
        <g
           fill-opacity="0.6"
           id="g80">
          <path
             d="m 102.547,88.148 c -5.807,0.269 -15.195,4.488 -14.953,10.344 0.008,0.192 0.29,0.276 0.427,0.129 2.755,-2.96 22.316,-5.95 29.205,-4.365 0.63,0.145 1.11,-0.477 0.71,-0.927 -3.422,-3.848 -10.186,-5.426 -15.389,-5.18 m 59.906,-0.001 c 5.807,0.269 15.195,4.488 14.953,10.344 -0.008,0.192 -0.29,0.276 -0.427,0.129 -2.755,-2.96 -22.316,-5.95 -29.205,-4.365 -0.63,0.145 -1.11,-0.477 -0.71,-0.927 3.422,-3.848 10.186,-5.426 15.389,-5.18"
             id="path78" />
        </g>
      </g>
      <defs
         id="defs86">
        <path
           id="k"
           d="M 0,0 H 264 V 280 H 0 Z" />
        <path
           id="m"
           d="M 153.503,98.874 C 157.9,100.654 161,104.965 161,110 v 13 c 0,5.288 -3.42,9.776 -8.168,11.375 a 55.713,55.713 0 0 1 -11.076,29.29 c 0.209,0.807 0.41,1.625 0.556,2.503 0.55,3.327 -0.12,6.093 1.645,9.093 0.457,0.78 1.183,1.247 1.522,2.144 0.533,1.415 -0.232,4.594 1.95,4.595 3.106,0 1.374,-5.966 0.596,-7.384 -1.525,-2.772 -2.462,-3.45 -2.383,-7.044 1.745,1.16 7.53,3.376 9.448,2.316 4.432,-2.448 -6.662,-4.936 -7.438,-5.453 1.704,-1.666 3.656,-2.55 5.197,-4.746 1.26,-1.793 2.406,-4.397 4.55,-4.501 1.186,-0.058 4.657,2.884 5.71,0.866 0.964,-1.85 -1.115,-2.122 -1.928,-2.777 -1.502,-1.21 -1.84,-0.006 -1.474,-2.134 1.085,1.165 2.789,0.429 3.244,-1.015 0.49,-1.559 -1.127,-2.024 -1.097,-3.014 -0.012,0.387 0.834,-5.115 0.7,-4.938 0.86,-1.135 3.908,-0.784 5.413,-0.62 2.296,0.248 2.164,0.317 3.255,2.436 0.882,1.715 3.198,5.178 3.707,0.641 0.121,-1.085 -0.869,-3.404 -1.45,-4.338 -0.627,-1.007 -2.517,-1.643 -2.912,-2.427 -0.944,-1.87 2.165,-6.034 1.639,-8.854 1.093,0.418 3.857,6.927 5.198,1.599 0.707,-2.8 -6.505,-8.945 -3.514,-9.894 2.289,-0.726 4.612,2.225 5.25,4.044 0.473,1.348 0.26,4.238 1.068,5.353 3.036,4.203 3.41,-2.74 3.157,-4.572 -0.559,-4.026 -1.984,-6.988 -5.623,-8.51 1.295,-1.607 -0.345,-2.887 -1.275,-3.893 1.528,-1.657 11.437,0.104 9.208,-4.327 -0.538,-1.072 -2.481,-1.262 -3.467,-1.655 -2.49,-0.992 -4.985,-3.01 -6.257,-5.562 1.841,-0.46 7.28,0.798 6.565,-2.996 -0.563,-2.982 -5.403,-2.067 -7.278,-1.61 1.692,-1.016 4.973,-0.174 5.434,-2.941 0.531,-3.183 -3.288,-3.076 -5.08,-2.402 -0.422,-3.358 5.53,-5.83 7.213,-8.4 0.568,-0.867 1.47,-1.164 0.746,-2.633 -1.306,-2.643 -4.68,1.086 -5.792,2.09 0.876,-1.628 3.32,-8.403 2.95,-10.122 -0.546,-2.526 -2.353,-2.615 -3.79,-0.568 -0.93,1.33 -1.19,4.703 -1.68,6.427 -2.04,-1.537 -2.143,0.246 -2.248,-2.191 -0.068,-1.58 2.002,-4.701 2.532,-6.248 0.456,-1.329 1.668,-3.76 0.943,-5.046 -1.776,-3.143 -3.473,1.172 -3.94,2.652 -0.789,-3.411 2.214,-6.057 3.103,-9.431 0.541,-2.048 1.976,-7.578 -0.51,-8.561 -3.394,-1.341 -2.2,4.956 -2.678,7 -0.365,1.559 -0.922,4.077 -2.139,4.845 -0.176,0.111 -2.82,0.343 -2.948,0.193 -1.734,-2.021 3.038,-6.447 3.284,-8.351 0.223,-1.73 -0.44,-2.825 -2.061,-2.929 -0.81,-0.051 -2.12,1.2 -2.495,1.119 -1.48,-0.322 0.447,-7.089 0.587,-8.967 0.15,-2.003 -0.094,-7.172 -3.483,-4.785 0.227,-2.697 0.364,-5.236 0.734,-7.891 0.195,-1.4 1.398,-2.645 -0.374,-3.767 -2.156,-1.365 -3.35,1.492 -3.842,3.168 -0.846,2.885 0.9,7.375 -3.158,7.466 -4.665,0.106 -1.444,-4.73 -1.215,-7.868 0.128,-1.74 -1.012,-6.421 -3.262,-3.263 -0.896,1.259 -0.587,5.694 -1.084,7.183 -1.106,-0.493 0.733,-4.515 -0.23,-5.564 -2.06,-2.247 -3.788,1.026 -5.099,1.692 -0.086,-1.445 -0.187,-2.891 -0.248,-4.338 -0.093,-2.2 1.255,-6.83 -0.113,-8.347 -2.337,-2.59 -3.823,0.431 -4.506,2.523 -0.613,1.884 -0.697,3.744 -3.233,4 0.208,-2.717 -2.258,-8.436 -1.035,-10.727 0.553,-1.035 1.679,-0.301 2.179,-1.46 0.821,-1.902 -0.524,-2.71 -1.986,-2.771 -6.792,-0.286 -1.562,9.134 -3.969,11.491 -1.099,-1.04 0.072,-2.113 -1.065,-3.596 -1.223,-1.595 -3.173,-1.46 -4.918,-0.738 -0.056,-1.613 2.364,-12.92 -3.08,-7.817 -1.352,1.271 -0.974,3.393 -1.693,4.886 -0.696,1.445 -2.39,3.598 -3.341,4.771 -0.51,-2.067 0.272,-4.63 0.82,-6.666 0.38,-1.415 2.931,-5.805 2.387,-7.244 -1.58,-4.167 -6.323,2.72 -7.572,3.832 -1.582,1.41 -7.88,6.045 -9.901,4.64 -0.701,-0.487 -0.07,-2.29 -1.027,-3.128 -0.47,-0.41 -2.477,-0.6 -3.05,-0.548 0.358,-1.494 -0.346,-3.427 -2.055,-2.91 -2.149,0.65 -1.219,3.838 -2.58,5.002 -2.53,2.164 -5.535,-2.112 -8.245,-1.992 0.414,-1.755 3.485,-8.062 -1.399,-6.144 -1.246,0.49 -2.13,3.351 -2.44,4.54 -0.792,3.036 -0.222,3.593 -3.509,4.45 0.257,-1.76 -0.2,-3.948 0.649,-5.521 0.696,-1.289 4.305,-4.645 0.462,-5.063 -4.74,-0.516 -4.274,7.672 -4.855,10.44 -4.206,-2.549 -6.974,1.098 -9.48,4.252 0.447,-1.419 1.553,-15.557 -2.965,-11.237 -1.292,1.237 0.138,3.066 0.05,4.478 -0.078,1.28 -0.5,2.422 -0.995,3.618 -0.796,1.921 -1.72,3.887 -2.974,5.524 -1.573,2.059 -1.015,2.22 -2.82,0.823 -2.425,-1.873 -3.577,-6.624 -3.457,-9.525 0.09,-2.16 1.196,-6.548 -2.384,-5.531 -3.507,0.996 -1.649,7.974 -1.296,10.453 0.381,2.687 0.635,5.436 0.183,8.173 -2.984,-3.05 -3.42,3.302 -4.017,4.385 -0.98,1.777 -2.868,2.647 -4.335,3.86 -0.8,-2.794 2.405,-5.157 1.77,-7.38 -1.194,-4.165 -4.571,1.716 -5.313,2.87 -0.619,0.963 -2.635,6.442 -3.365,6.933 -1.023,0.69 -7.605,-2.527 -8.27,-3.14 -1.223,-1.125 -0.778,-4.272 -2.316,-4.99 -4.72,-2.197 -1.932,5.735 -1.005,7.375 2.419,4.284 3.516,9.456 2.949,14.504 -0.858,-0.302 -1.915,-1.312 -2.468,-2.077 -1.076,-1.49 -0.685,-3.865 -1.808,-4.987 -3.288,-3.28 -3.673,2.878 -3.406,4.791 0.5,3.588 2.291,4.75 3.778,7.734 1.368,2.75 -0.445,6.069 -0.828,9.125 -3.429,-3.3 -18.195,-0.543 -14.396,4.502 1.978,2.633 4.318,-2.377 6.598,-2.25 4.083,0.225 6.235,5.295 5.967,8.846 -0.497,-1.898 -2.422,-3.761 -3.746,-1.444 -0.897,1.573 0.635,4.26 1.374,5.823 -0.906,-0.444 -5.372,-2.52 -6.246,-2.161 -3.44,1.414 1.3,4.151 2.537,4.698 4.224,1.868 6.887,3.92 8.2,8.992 -2.367,-0.757 -1.955,-1.878 -3.552,-3.043 -1.466,-1.07 -1.74,-0.518 -3.09,-0.868 -2.362,-0.611 -5.441,-1.427 -8.11,-0.318 -1.97,0.819 -5.287,3.31 -5.906,5.65 -0.757,2.874 0.844,3.606 2.904,2.143 2.45,-1.739 2.897,-5.105 6.583,-4.96 1.769,0.068 3.52,0.995 4.64,2.325 0.835,0.993 1.323,2.43 2.12,3.495 0.703,0.94 2.564,2.259 2.957,3.254 1.418,3.595 -1.276,6.795 -3.083,9.314 -0.419,-0.554 -3.477,-1.758 -4.11,-1.878 -2.94,-0.561 -4.037,0.798 -2.199,3.512 0.58,0.856 1.798,1.216 2.436,1.994 0.711,0.87 1.112,2.2 1.818,3.144 1.393,1.863 3.115,2.822 4.778,4.322 -0.613,0.41 -0.546,-0.624 -1.102,-0.41 -0.404,0.156 -1.107,-0.155 -1.617,0.014 -0.828,0.275 -0.718,1.717 -1.248,1.929 -3.299,1.314 -6.627,-3.615 -9.586,-3.775 -1.614,-0.088 -2.975,0.994 -2.2,3.022 0.538,1.412 2.87,2.178 4.036,2.767 3.246,1.644 6.478,2.868 9.948,1.607 2.797,2.438 6.159,3.64 9.674,3.675 -2.011,0.998 -4,2.235 -4.702,4.721 -1.189,-1.23 -4.108,-6.952 -5.633,-2.462 -1.045,3.087 3.723,6.871 5.92,8.262 -2.555,0.755 -4.677,0.907 -7.277,0.607 -1.357,-0.156 -4.337,-1.974 -3.238,1.748 1.182,4.016 8.24,2.21 10.48,1.516 0.083,-1.198 -10.77,12.108 -3.158,9.489 2.176,-0.748 2.385,-5 5.418,-5.373 3.503,-0.43 3.855,3.077 5.882,5.646 1.01,1.282 5.67,4.165 5.449,5.265 -0.191,0.952 -2.75,1.496 -3.293,2.828 -0.633,1.55 -0.347,2.746 0.532,4.078 1.538,2.333 4.36,2.691 6.592,3.604 3.164,1.295 4.31,2.867 5.73,6.217 -2.502,0.12 -9.62,7.36 -5.258,8.648 1.625,0.48 1.372,-0.966 2.049,-1.765 0.273,-0.516 0.547,-1.03 0.821,-1.545 0.458,-1.198 0.965,-1.271 1.52,-0.22 0.123,-0.031 1.61,0.388 1.947,0.409 1.708,0.105 2.85,-1.192 4.266,-1.893 1.023,-0.506 2.024,-0.418 2.795,-1.586 -0.089,0.135 0.554,-2.51 0.565,-2.536 0.276,-0.637 0.985,-0.547 1.31,-1.234 C 47.908,159.754 42.2,147.72 41.168,134.375 36.42,132.776 33,128.288 33,123 v -13 c 0,-5.035 3.1,-9.345 7.497,-11.126 0.531,0.374 1.27,0 1.503,-0.842 -0.463,-1.506 3.296,-27.854 13,-34.876 3.618,-2.438 23.008,-2.619 42.313,-2.606 19.096,0.014 38.108,0.195 41.687,2.606 9.704,7.022 13.463,33.37 13,34.876 0.233,0.843 0.972,1.216 1.503,0.842 z" />
      </defs>
      <mask
         id="l"
         fill="#ffffff">
        <use
           xlink:href="#k"
           id="use88" />
      </mask>
      <g
         mask="url(#l)"
         id="g123"
         style="display:inline">
        <g
           transform="translate(35)"
           id="g100">
          <mask
             id="n"
             fill="#ffffff">
            <use
               xlink:href="#m"
               id="use91" />
          </mask>
          <use
             xlink:href="#m"
             fill="#2e3257"
             id="use94" />
          <g
             fill="#c93305"
             mask="url(#n)"
             id="g98"
             style="display:inline">
            <path
               d="M 0,0 H 264 V 280 H 0 Z"
               id="path96"
               style="display:inline;fill:#f6a13b;fill-opacity:1" />
          </g>
        </g>
        <g
           transform="translate(61,85)"
           id="g121">
          <defs
             id="defs113">
            <filter
               id="o"
               width="1"
               height="1.0487805"
               x="0"
               y="0"
               filterUnits="objectBoundingBox">
              <feOffset
                 dy="2"
                 in="SourceAlpha"
                 result="shadowOffsetOuter1"
                 id="feOffset102" />
              <feColorMatrix
                 in="shadowOffsetOuter1"
                 result="shadowMatrixOuter1"
                 values="0 0 0 0 0 0 0 0 0 0 0 0 0 0 0 0 0 0 0.2 0"
                 id="feColorMatrix104" />
              <feMerge
                 id="feMerge110">
                <feMergeNode
                   in="shadowMatrixOuter1"
                   id="feMergeNode106" />
                <feMergeNode
                   in="SourceGraphic"
                   id="feMergeNode108" />
              </feMerge>
            </filter>
          </defs>
          <g
             fill="#252c2f"
             fill-rule="nonzero"
             filter="url(#o)"
             transform="translate(6,7)"
             id="g119">
            <path
               d="M 34,41 H 31.242 C 17.315,41 9,33.336 9,20.5 9,10.127 10.817,0 32.53,0 h 2.94 C 57.183,0 59,10.127 59,20.5 59,32.569 48.721,41 34,41 Z M 32.385,6 C 13,6 13,12.841 13,21.502 13,28.572 16.116,37 30.97,37 H 34 C 46.365,37 55,30.627 55,21.502 55,12.84 55,6 35.615,6 Z M 96,41 H 93.242 C 79.315,41 71,33.336 71,20.5 71,10.127 72.817,0 94.53,0 h 2.94 C 119.183,0 121,10.127 121,20.5 121,32.569 110.721,41 96,41 Z M 94.385,6 C 75,6 75,12.841 75,21.502 75,28.572 78.12,37 92.97,37 H 96 c 12.365,0 21,-6.373 21,-15.498 C 117,12.84 117,6 97.615,6 Z"
               id="path115" />
            <path
               d="M 2.955,5.772 C 3.645,5.096 11.21,0 32.5,0 50.351,0 54.13,1.853 59.85,4.652 l 0.419,0.207 c 0.398,0.14 2.431,0.83 4.81,0.907 A 16.998,16.998 0 0 0 69.642,4.897 C 76.17,1.722 82.562,0 97.5,0 c 21.29,0 28.854,5.096 29.545,5.772 1.634,0 2.955,1.29 2.955,2.885 v 2.886 c 0,1.596 -1.32,2.886 -2.955,2.886 0,0 -6.901,0 -6.901,2.886 0,2.885 -1.962,-4.176 -1.962,-5.772 V 8.733 C 114.579,7.353 108.128,4.786 97.5,4.786 c -11.842,0 -17.739,2.1 -22.798,4.185 l 0.057,0.137 -0.003,1.986 -2.217,5.35 L 69.8,15.36 c -0.244,-0.097 -0.772,-0.27 -1.504,-0.451 -2.04,-0.503 -4.137,-0.656 -5.992,-0.276 -0.68,0.14 -1.312,0.35 -1.891,0.633 l -2.643,1.29 -2.643,-5.16 0.117,-2.295 0.08,-0.195 C 50.962,6.873 46.939,4.786 32.5,4.786 21.872,4.786 15.422,7.351 11.818,8.73 v 2.812 c 0,1.596 -2.954,8.657 -2.954,5.772 0,-2.886 -5.91,-2.886 -5.91,-2.886 C 1.324,14.428 0,13.138 0,11.542 V 8.657 C 0,7.062 1.324,5.772 2.955,5.772 Z"
               id="path117" />
          </g>
        </g>
      </g>
    </g>
  </g>
</svg>
