<?xml version="1.0" encoding="UTF-8" standalone="no"?>
<!-- Created with Inkscape (http://www.inkscape.org/) -->

<svg
   width="53.043789mm"
   height="67.755356mm"
   viewBox="0 0 53.043789 67.755356"
   version="1.1"
   id="svg431"
   xmlns="http://www.w3.org/2000/svg"
   xmlns:svg="http://www.w3.org/2000/svg">
  <defs
     id="defs428" />
  <g
     id="layer1"
     transform="translate(-12.215965,-10.189412)">
    <path
       class="cls-1"
       d="m 36.417538,24.83522 c -2.801286,0.325332 -5.345764,0.275693 -7.549425,-0.47969 -2.680796,-0.879816 -4.929517,-3.039987 -6.204814,-5.960496 l -0.02804,-0.07169 v 0 L 20.072097,12.07063 c -0.266796,-0.658892 -0.0223,-1.447984 0.54158,-1.747891 0.162132,-0.09526 0.341955,-0.140775 0.522901,-0.132335 v 0 l 8.581226,0.628569 h 0.140037 0.02796 c 1.601394,0.237117 3.35686,0.501786 4.944243,2.150422 1.180369,1.247674 2.097987,2.803388 2.67988,4.543425 0.624562,1.867585 0.941498,3.858806 0.93374,5.866738 3.59e-4,0.140467 -0.01872,0.280169 -0.05607,0.413547 0.434193,-0.766423 0.873061,-1.494254 1.316589,-2.172462 0.922351,-1.445244 1.96222,-2.780448 3.104737,-3.986536 4.313963,-4.477242 10.789555,-4.835646 16.704914,-5.16097 1.367949,-0.07169 2.698549,-0.143382 4.043152,-0.281197 v 0 c 0.160261,-0.01458 0.321079,0.0188 0.466898,0.0992 0.452386,0.257644 1.424439,1.40823 1.203723,1.941016 -3.26816,7.928945 -6.330068,12.852678 -10.121121,16.094835 -3.650986,3.18701 -8.5672,4.124382 -16.868296,3.060203 v 8.607153 c 3.468907,-5.70686 6.863108,-5.806122 12.395617,-5.960497 1.185872,-0.03313 2.479123,-0.07169 3.954461,-0.176517 v 0 c 0.693047,-0.04978 1.1739,0.802003 0.868394,1.538373 -2.259707,5.513862 -3.735035,8.943485 -6.223494,10.884381 -2.395082,1.852658 -5.546519,2.205542 -10.994978,1.494254 v 5.927401 h -1.82082 v -5.613117 c -7.470075,0.959405 -12.008116,0.148799 -15.434998,-2.668703 -3.520264,-2.89479 -5.723928,-7.785579 -8.683934,-14.992196 -0.204001,-0.535248 -0.0173,-1.165441 0.424858,-1.433607 0.144879,-0.08357 0.306118,-0.119829 0.466878,-0.10483 v 0 c 1.213884,0.110247 2.451109,0.170886 3.735024,0.226077 5.471815,0.259141 11.634604,0.551378 15.528353,4.587521 1.820837,1.891257 3.100093,3.462702 3.977822,5.199577 v -16.06741 z"
       id="path8"
       style="fill:#557f2d;fill-rule:evenodd;stroke-width:0.507377" />
    <path
       class="cls-2"
       d="m 37.850834,44.811967 c 0.78804,-0.828511 1.658083,-1.541312 2.591178,-2.122846 2.173306,-1.308799 4.506172,-2.209205 6.91446,-2.668704 0.569905,-0.112955 2.40433,-0.197354 2.49957,0.475772 0.09941,0.673253 -1.571652,1.855095 -2.140059,1.983407 -2.192367,0.413212 -4.317093,1.226088 -6.298182,2.409563 -1.403188,0.835115 -2.614254,2.059156 -3.529602,3.567461 5.294395,0.634088 8.357115,0.292236 10.532771,-1.417063 2.175656,-1.709284 3.599617,-4.813598 5.602531,-9.731963 -0.989784,0.04421 -1.937536,0.07169 -2.829275,0.0992 -6.069421,0.170886 -9.627029,0.275693 -13.380733,7.405135 z"
       id="path10"
       style="fill:#7cb142;fill-rule:evenodd;stroke-width:0.507377" />
    <path
       class="cls-2"
       d="m 35.086937,48.699233 a 18.31096,21.625375 0 0 0 -4.24394,-4.846686 22.237407,26.262535 0 0 0 -6.069413,-3.30832 0.98044409,1.1579115 0 1 1 0.588272,-2.205542 24.277662,28.672093 0 0 1 6.58298,3.611581 20.453931,24.156239 0 0 1 4.939576,5.734427 10.472076,12.367597 0 0 0 -1.055139,-5.01762 c -0.807714,-1.841634 -2.138315,-3.512341 -4.159899,-5.607596 -3.66032,-3.804578 -9.90715,-4.096815 -15.453661,-4.355956 -0.817037,-0.03855 -1.620068,-0.07169 -2.38575,-0.121286 2.679883,6.445706 4.827524,10.873333 7.946264,13.448318 2.969351,2.437114 6.951817,3.30832 13.31071,2.679727 z"
       id="path12"
       style="fill:#7cb142;fill-rule:evenodd;stroke-width:0.507377" />
    <path
       class="cls-2"
       d="m 36.92642,23.153488 a 5.3504234,6.3188884 0 0 0 -1.241883,-1.43359 9.1321361,10.785118 0 0 0 -3.319511,-1.505302 1.0852181,1.2816502 0 0 1 0.466874,-2.503274 11.205076,13.233274 0 0 1 4.080518,1.891257 C 36.828432,19.293791 36.730277,18.985011 36.627621,18.68175 A 9.4916326,11.209686 0 0 0 34.153165,14.447097 C 32.859914,13.107249 31.2025,12.859108 29.685154,12.633039 h -0.03274 l -7.936925,-0.551377 2.058933,5.017619 a 9.3375635,11.027728 0 0 0 5.742591,5.530398 c 2.105634,0.722311 4.594092,0.799518 7.409365,0.551385 z"
       id="path14"
       style="fill:#7cb142;fill-rule:evenodd;stroke-width:0.507377" />
    <path
       class="cls-2"
       d="m 37.584731,28.127012 v 0.722312 c 1.012254,-1.773181 2.298384,-3.305198 3.791053,-4.515866 2.334395,-1.885729 5.135657,-2.96646 8.431806,-3.655692 1.282355,-0.264669 1.618519,2.007056 0.336165,2.271725 -3.048718,0.634088 -5.602547,1.610036 -7.670816,3.30832 -1.781113,1.457112 -3.225521,3.416978 -4.201907,5.701335 7.936941,0.937349 12.643064,0 16.055938,-2.911329 3.412871,-2.911317 6.428183,-8.072796 9.416221,-15.306997 -0.87307,0.06062 -2.553113,0.243115 -3.482186,0.298258 -6.018061,0.325332 -12.605733,0.689232 -16.723592,4.962476 -1.134185,1.191536 -2.166296,2.512052 -3.08139,3.942409 -1.06269,1.650181 -2.026778,3.385718 -2.885295,5.194073 z"
       id="path16"
       style="fill:#7cb142;fill-rule:evenodd;stroke-width:0.507377" />
    <polygon
       class="cls-3"
       points="31.88,122.88 20.49,82.24 92.26,82.24 80.87,122.88 "
       id="polygon18"
       transform="matrix(0.46687814,0,0,0.55138642,12.209898,10.190404)"
       style="fill:#ffa448;fill-opacity:1;fill-rule:evenodd" />
    <polygon
       class="cls-4"
       points="20.49,96.14 16.73,82.24 96.02,82.24 92.26,96.14 "
       id="polygon20"
       transform="matrix(0.46687814,0,0,0.55138642,12.209898,10.190404)"
       style="fill:#6f6f6f;fill-opacity:1;fill-rule:evenodd" />
  </g>
</svg>
