<svg xmlns="http://www.w3.org/2000/svg" xmlns:xlink="http://www.w3.org/1999/xlink" width="264" height="280"><defs><path id="c" d="M12 160c0 66.274 53.726 120 120 120s120-53.726 120-120h12V0H0v160h12Z"/><path id="e" d="M124 144.611V163h4c39.765 0 72 32.235 72 72v9H0v-9c0-39.765 32.235-72 72-72h4v-18.389c-17.237-8.189-29.628-24.924-31.695-44.73C38.48 99.058 34 94.052 34 88V74c0-5.946 4.325-10.882 10-11.834V56c0-30.928 25.072-56 56-56s56 25.072 56 56v6.166c5.675.952 10 5.888 10 11.834v14c0 6.052-4.48 11.058-10.305 11.881-2.067 19.806-14.458 36.541-31.695 44.73Z"/><circle id="a" cx="120" cy="120" r="120"/></defs><g fill="none" fill-rule="evenodd"><g transform="translate(12 40)"><mask id="b" fill="#fff"><use xlink:href="#a"/></mask><use xlink:href="#a" fill="#E6E6E6"/><g fill="#65C9FF" mask="url(#b)"><path d="M0 0h240v240H0z"/></g></g><mask id="d" fill="#fff"><use xlink:href="#c"/></mask><g mask="url(#d)"><g transform="translate(32 36)"><mask id="f" fill="#fff"><use xlink:href="#e"/></mask><use xlink:href="#e" fill="#D0C6AC"/><g fill="#EDB98A" mask="url(#f)"><path d="M0 0h264v280H0z"/></g><path fill="#000" fill-opacity=".1" d="M156 79v23c0 30.928-25.072 56-56 56s-56-25.072-56-56V79v15c0 30.928 25.072 56 56 56s56-25.072 56-56V79Z" mask="url(#f)"/></g><g transform="translate(0 170)"><defs><path id="g" d="M108 13.07c-17.919 2.006-31.72 7.482-31.996 21.575C50.146 45.568 32 71.165 32 100.999V110h200v-9c0-29.835-18.146-55.432-44.004-66.355-.276-14.093-14.077-19.57-31.996-21.574V32c0 13.255-10.745 24-24 24s-24-10.745-24-24V13.07Z"/></defs><mask id="h" fill="#fff"><use xlink:href="#g"/></mask><use xlink:href="#g" fill="#B7C1DB"/><g fill="#3C4F5C" mask="url(#h)"><path d="M0 0h264v110H0z"/></g><path fill="#F4F4F4" d="M102 61.74V110h-7V58.15a64.54 64.54 0 0 0 7 3.59Zm67-3.59V98.5a3.5 3.5 0 1 1-7 0V61.74a64.54 64.54 0 0 0 7-3.59Z" mask="url(#h)"/><path fill="#000" fill-opacity=".16" d="M90.96 12.724C75.91 15.571 65.5 21.243 65.5 32.308 65.5 52.02 98.538 68 132 68s66.5-15.98 66.5-35.692c0-11.065-10.41-16.737-25.46-19.584 9.085 3.35 14.96 8.982 14.96 18.353C188 51.469 160.179 68 132 68S76 51.469 76 31.077c0-9.37 5.875-15.003 14.96-18.353Z" mask="url(#h)"/></g><g fill="#000"><g transform="translate(78 134)"><defs><path id="i" d="M35.118 15.128C36.176 24.62 44.226 32 54 32c9.804 0 17.874-7.426 18.892-16.96.082-.767-.775-2.04-1.85-2.04H37.088c-1.08 0-2.075 1.178-1.97 2.128Z"/></defs><mask id="j" fill="#fff"><use xlink:href="#i"/></mask><use xlink:href="#i" fill-opacity=".7"/><rect width="31" height="16" x="39" y="2" fill="#FFF" mask="url(#j)" rx="5"/><g fill="#FF4F6D" mask="url(#j)"><g transform="translate(38 24)"><circle cx="11" cy="11" r="11"/><circle cx="21" cy="11" r="11"/></g></g></g><path fill-opacity=".16" d="M120 130c0 4.418 5.373 8 12 8s12-3.582 12-8"/><g fill-opacity=".6"><path d="M103.241 110.346a6 6 0 1 0 10.699 2.8 1.998 1.998 0 0 0-.125-.739 7.509 7.509 0 0 0-.144-.372 6.007 6.007 0 0 0-1.646-2.484c-2.126-2.234-5.519-3.551-9.027-3.551-4.834 0-8.991 2.649-10.838 6.447-.54 1.111.387 1.853 1.278 1.125 2.436-1.993 5.82-3.228 9.56-3.228.08 0 .162 0 .243.002ZM161.241 110.346a6 6 0 1 0 10.699 2.8 1.998 1.998 0 0 0-.125-.739 7.509 7.509 0 0 0-.144-.372 6.007 6.007 0 0 0-1.646-2.484c-2.126-2.234-5.519-3.551-9.027-3.551-4.834 0-8.991 2.649-10.838 6.447-.54 1.111.387 1.853 1.278 1.125 2.436-1.993 5.82-3.228 9.56-3.228.08 0 .162 0 .243.002Z"/></g><g fill-opacity=".6" fill-rule="nonzero"><path d="M91.591 96.162c4.496-6.326 14.012-9.508 23.756-6.366a2 2 0 1 0 1.228-3.807c-11.408-3.68-22.74.11-28.244 7.856a2 2 0 1 0 3.26 2.317ZM172.377 103.158c-3.914-5.509-14.647-8.598-23.892-6.328a2 2 0 0 1-.954-3.884c10.736-2.637 23.165.94 28.107 7.895a2 2 0 1 1-3.26 2.317Z"/></g></g><defs><path id="k" d="M0 0h264v280H0z"/><path id="l" d="M129.66 38.357A60.834 60.834 0 0 1 134 61v8H2v-8c0-8.025 1.55-15.688 4.366-22.707C-.037 24.83-1.28 13.773 2.636 5.12c7.505-2.276 16.198-.47 26.08 5.419C38.486 3.888 50.289 0 63 0h10c12.722 0 24.535 3.895 34.31 10.557 9.894-5.904 18.597-7.716 26.11-5.437 3.922 8.666 2.669 19.745-3.76 33.237Z"/><path id="n" d="M28.716 10.539c-9.957 6.778-17.804 16.426-22.35 27.754C-.037 24.83-1.28 13.773 2.636 5.12c7.505-2.276 16.198-.47 26.08 5.419Zm100.943 27.818c-4.538-11.346-12.386-21.01-22.349-27.8 9.894-5.904 18.597-7.716 26.11-5.437 3.922 8.666 2.669 19.745-3.76 33.237Z"/><path id="o" d="M21.862 15.96a61.277 61.277 0 0 0-11.433 14.08c-2.925-8.108-3.426-13.719-1.502-16.832 2.651-1.146 6.963-.23 12.935 2.751Zm103.49 13.714a61.284 61.284 0 0 0-11.274-13.77c5.803-2.852 10.005-3.715 12.608-2.59 1.886 3.053 1.442 8.506-1.333 16.36Z"/><path id="p" d="M67.285 61.451C83.23 49.817 105.159 44 133.073 44c27.912 0 49.799 5.817 65.659 17.45A8 8 0 0 1 202 67.9v30.47a4 4 0 0 1-6.135 3.383C179.223 91.25 158.536 86 133.805 86c-24.922 0-46.165 5.331-63.73 15.994A4 4 0 0 1 64 98.575V67.914a8 8 0 0 1 3.285-6.463Z"/></defs><g transform="translate(64 4)"><mask id="m" fill="#fff"><use xlink:href="#l"/></mask><use xlink:href="#l" fill="#D8D8D8"/><g fill="#25557C" mask="url(#m)"><path d="M0 0h264v280H0z"/></g><use xlink:href="#n" fill="#000" fill-opacity=".24"/><use xlink:href="#o" fill="#FFF" fill-opacity=".3"/></g><g transform="translate(-1)"><use xlink:href="#p" fill="#000" filter="url(#p)"/><use xlink:href="#p" fill="#F4F4F4"/></g><g transform="translate(61 85)"><defs><filter id="q" width="101.5%" height="109.8%" x="-.8%" y="-2.4%" filterUnits="objectBoundingBox"><feOffset dy="2" in="SourceAlpha" result="shadowOffsetOuter1"/><feColorMatrix in="shadowOffsetOuter1" result="shadowMatrixOuter1" values="0 0 0 0 0 0 0 0 0 0 0 0 0 0 0 0 0 0 0.2 0"/><feMerge><feMergeNode in="shadowMatrixOuter1"/><feMergeNode in="SourceGraphic"/></feMerge></filter></defs><g fill="#252C2F" fill-rule="nonzero" filter="url(#q)" transform="translate(6 7)"><path d="M34 41h-2.758C17.315 41 9 33.336 9 20.5 9 10.127 10.817 0 32.53 0h2.94C57.183 0 59 10.127 59 20.5 59 32.569 48.721 41 34 41ZM32.385 6C13 6 13 12.841 13 21.502 13 28.572 16.116 37 30.97 37H34c12.365 0 21-6.373 21-15.498C55 12.84 55 6 35.615 6h-3.23ZM96 41h-2.758C79.315 41 71 33.336 71 20.5 71 10.127 72.817 0 94.53 0h2.94C119.183 0 121 10.127 121 20.5 121 32.569 110.721 41 96 41ZM94.385 6C75 6 75 12.841 75 21.502 75 28.572 78.12 37 92.97 37H96c12.365 0 21-6.373 21-15.498C117 12.84 117 6 97.615 6h-3.23Z"/><path d="M2.955 5.772C3.645 5.096 11.21 0 32.5 0c17.851 0 21.63 1.853 27.35 4.652l.419.207c.398.14 2.431.83 4.81.907a16.998 16.998 0 0 0 4.563-.869C76.17 1.722 82.562 0 97.5 0c21.29 0 28.854 5.096 29.545 5.772 1.634 0 2.955 1.29 2.955 2.885v2.886c0 1.596-1.32 2.886-2.955 2.886 0 0-6.901 0-6.901 2.886 0 2.885-1.962-4.176-1.962-5.772v-2.81c-3.603-1.38-10.054-3.947-20.682-3.947-11.842 0-17.739 2.1-22.798 4.185l.057.137-.003 1.986-2.217 5.35L69.8 15.36c-.244-.097-.772-.27-1.504-.451-2.04-.503-4.137-.656-5.992-.276-.68.14-1.312.35-1.891.633l-2.643 1.29-2.643-5.16.117-2.295.08-.195c-4.362-2.033-8.385-4.12-22.824-4.12-10.628 0-17.078 2.565-20.682 3.944v2.812c0 1.596-2.954 8.657-2.954 5.772 0-2.886-5.91-2.886-5.91-2.886-1.63 0-2.954-1.29-2.954-2.886V8.657c0-1.595 1.324-2.885 2.955-2.885Z"/></g></g></g></g></svg>